%TF.GenerationSoftware,KiCad,Pcbnew,10.0.0*%
%TF.CreationDate,2026-07-02T21:12:41+08:00*%
%TF.ProjectId,carrrrdddd,63617272-7272-4646-9464-642e6b696361,rev?*%
%TF.SameCoordinates,Original*%
%TF.FileFunction,Paste,Top*%
%TF.FilePolarity,Positive*%
%FSLAX46Y46*%
G04 Gerber Fmt 4.6, Leading zero omitted, Abs format (unit mm)*
G04 Created by KiCad (PCBNEW 10.0.0) date 2026-07-02 21:12:41*
%MOMM*%
%LPD*%
G01*
G04 APERTURE LIST*
G04 Aperture macros list*
%AMRoundRect*
0 Rectangle with rounded corners*
0 $1 Rounding radius*
0 $2 $3 $4 $5 $6 $7 $8 $9 X,Y pos of 4 corners*
0 Add a 4 corners polygon primitive as box body*
4,1,4,$2,$3,$4,$5,$6,$7,$8,$9,$2,$3,0*
0 Add four circle primitives for the rounded corners*
1,1,$1+$1,$2,$3*
1,1,$1+$1,$4,$5*
1,1,$1+$1,$6,$7*
1,1,$1+$1,$8,$9*
0 Add four rect primitives between the rounded corners*
20,1,$1+$1,$2,$3,$4,$5,0*
20,1,$1+$1,$4,$5,$6,$7,0*
20,1,$1+$1,$6,$7,$8,$9,0*
20,1,$1+$1,$8,$9,$2,$3,0*%
G04 Aperture macros list end*
%ADD10RoundRect,0.218750X-0.300161X-0.153032X0.104036X-0.320456X0.300161X0.153032X-0.104036X0.320456X0*%
%ADD11RoundRect,0.218750X-0.218750X-0.256250X0.218750X-0.256250X0.218750X0.256250X-0.218750X0.256250X0*%
%ADD12RoundRect,0.200000X0.053033X-0.335876X0.335876X-0.053033X-0.053033X0.335876X-0.335876X0.053033X0*%
%ADD13RoundRect,0.218750X-0.026517X0.335876X-0.335876X0.026517X0.026517X-0.335876X0.335876X-0.026517X0*%
%ADD14RoundRect,0.200000X-0.079538X-0.330604X0.290014X-0.177530X0.079538X0.330604X-0.290014X0.177530X0*%
%ADD15RoundRect,0.200000X-0.177530X0.290014X-0.330604X-0.079538X0.177530X-0.290014X0.330604X0.079538X0*%
%ADD16RoundRect,0.218750X0.335876X0.026517X0.026517X0.335876X-0.335876X-0.026517X-0.026517X-0.335876X0*%
%ADD17RoundRect,0.218750X-0.335876X-0.026517X-0.026517X-0.335876X0.335876X0.026517X0.026517X0.335876X0*%
%ADD18RoundRect,0.218750X0.104036X0.320456X-0.300161X0.153032X-0.104036X-0.320456X0.300161X-0.153032X0*%
%ADD19RoundRect,0.218750X0.300161X0.153032X-0.104036X0.320456X-0.300161X-0.153032X0.104036X-0.320456X0*%
%ADD20RoundRect,0.218750X-0.153032X0.300161X-0.320456X-0.104036X0.153032X-0.300161X0.320456X0.104036X0*%
%ADD21RoundRect,0.218750X-0.320456X0.104036X-0.153032X-0.300161X0.320456X-0.104036X0.153032X0.300161X0*%
%ADD22RoundRect,0.200000X-0.275000X0.200000X-0.275000X-0.200000X0.275000X-0.200000X0.275000X0.200000X0*%
%ADD23RoundRect,0.200000X0.275000X-0.200000X0.275000X0.200000X-0.275000X0.200000X-0.275000X-0.200000X0*%
%ADD24RoundRect,0.218750X-0.104036X-0.320456X0.300161X-0.153032X0.104036X0.320456X-0.300161X0.153032X0*%
%ADD25RoundRect,0.218750X0.026517X-0.335876X0.335876X-0.026517X-0.026517X0.335876X-0.335876X0.026517X0*%
%ADD26RoundRect,0.200000X-0.200000X-0.275000X0.200000X-0.275000X0.200000X0.275000X-0.200000X0.275000X0*%
%ADD27RoundRect,0.218750X-0.256250X0.218750X-0.256250X-0.218750X0.256250X-0.218750X0.256250X0.218750X0*%
%ADD28RoundRect,0.200000X-0.290014X-0.177530X0.079538X-0.330604X0.290014X0.177530X-0.079538X0.330604X0*%
%ADD29RoundRect,0.200000X0.335876X0.053033X0.053033X0.335876X-0.335876X-0.053033X-0.053033X-0.335876X0*%
%ADD30RoundRect,0.200000X0.290014X0.177530X-0.079538X0.330604X-0.290014X-0.177530X0.079538X-0.330604X0*%
%ADD31RoundRect,0.218750X0.256250X-0.218750X0.256250X0.218750X-0.256250X0.218750X-0.256250X-0.218750X0*%
%ADD32RoundRect,0.218750X0.320456X-0.104036X0.153032X0.300161X-0.320456X0.104036X-0.153032X-0.300161X0*%
%ADD33RoundRect,0.200000X-0.053033X0.335876X-0.335876X0.053033X0.053033X-0.335876X0.335876X-0.053033X0*%
%ADD34RoundRect,0.200000X0.330604X-0.079538X0.177530X0.290014X-0.330604X0.079538X-0.177530X-0.290014X0*%
%ADD35RoundRect,0.218750X0.153032X-0.300161X0.320456X0.104036X-0.153032X0.300161X-0.320456X-0.104036X0*%
%ADD36RoundRect,0.200000X-0.330604X0.079538X-0.177530X-0.290014X0.330604X-0.079538X0.177530X0.290014X0*%
%ADD37RoundRect,0.200000X0.177530X-0.290014X0.330604X0.079538X-0.177530X0.290014X-0.330604X-0.079538X0*%
%ADD38RoundRect,0.200000X-0.335876X-0.053033X-0.053033X-0.335876X0.335876X0.053033X0.053033X0.335876X0*%
%ADD39RoundRect,0.200000X0.079538X0.330604X-0.290014X0.177530X-0.079538X-0.330604X0.290014X-0.177530X0*%
%ADD40RoundRect,0.218750X0.218750X0.256250X-0.218750X0.256250X-0.218750X-0.256250X0.218750X-0.256250X0*%
%ADD41RoundRect,0.200000X0.200000X0.275000X-0.200000X0.275000X-0.200000X-0.275000X0.200000X-0.275000X0*%
G04 APERTURE END LIST*
D10*
%TO.C,D11*%
X127197474Y-23720034D03*
X128652584Y-24322760D03*
%TD*%
D11*
%TO.C,D10*%
X113428661Y-21294534D03*
X115003661Y-21294534D03*
%TD*%
D12*
%TO.C,R12*%
X96146637Y-40043363D03*
X97313363Y-38876637D03*
%TD*%
D13*
%TO.C,D16*%
X140103694Y-81891373D03*
X138990000Y-83005067D03*
%TD*%
D14*
%TO.C,R13*%
X104345383Y-34177991D03*
X105869785Y-33546563D03*
%TD*%
D15*
%TO.C,R3*%
X139162674Y-66839452D03*
X138531246Y-68363854D03*
%TD*%
D16*
%TO.C,D4*%
X89442321Y-83005067D03*
X88328627Y-81891373D03*
%TD*%
D17*
%TO.C,D12*%
X138990000Y-31230000D03*
X140103694Y-32343694D03*
%TD*%
D18*
%TO.C,D1*%
X128652584Y-89912307D03*
X127197474Y-90515033D03*
%TD*%
D19*
%TO.C,D3*%
X101234847Y-90515033D03*
X99779737Y-89912307D03*
%TD*%
D20*
%TO.C,D15*%
X147613660Y-70098847D03*
X147010934Y-71553957D03*
%TD*%
D21*
%TO.C,D13*%
X147010934Y-42681110D03*
X147613660Y-44136220D03*
%TD*%
D22*
%TO.C,R2*%
X140812619Y-56894619D03*
X140812619Y-58544619D03*
%TD*%
D23*
%TO.C,R10*%
X89166619Y-58544619D03*
X89166619Y-56894619D03*
%TD*%
D24*
%TO.C,D9*%
X99779737Y-24322760D03*
X101234847Y-23720034D03*
%TD*%
D25*
%TO.C,D8*%
X88328627Y-32343694D03*
X89442321Y-31230000D03*
%TD*%
D26*
%TO.C,R14*%
X114164619Y-31896619D03*
X115814619Y-31896619D03*
%TD*%
D27*
%TO.C,D14*%
X150039161Y-56330034D03*
X150039161Y-57905034D03*
%TD*%
D28*
%TO.C,R15*%
X124109452Y-33546563D03*
X125633854Y-34177991D03*
%TD*%
D29*
%TO.C,R8*%
X97313363Y-76562600D03*
X96146637Y-75395874D03*
%TD*%
D30*
%TO.C,R7*%
X105869785Y-81892674D03*
X104345383Y-81261246D03*
%TD*%
D31*
%TO.C,D6*%
X78393161Y-57905034D03*
X78393161Y-56330034D03*
%TD*%
D32*
%TO.C,D5*%
X81421387Y-71553957D03*
X80818661Y-70098847D03*
%TD*%
D33*
%TO.C,R4*%
X133832600Y-75395874D03*
X132665874Y-76562600D03*
%TD*%
D34*
%TO.C,R9*%
X91447991Y-68363854D03*
X90816563Y-66839452D03*
%TD*%
D35*
%TO.C,D7*%
X80818661Y-44136220D03*
X81421387Y-42681110D03*
%TD*%
D36*
%TO.C,R1*%
X138531246Y-47075383D03*
X139162674Y-48599785D03*
%TD*%
D37*
%TO.C,R11*%
X90816563Y-48599785D03*
X91447991Y-47075383D03*
%TD*%
D38*
%TO.C,R16*%
X132665874Y-38876637D03*
X133832600Y-40043363D03*
%TD*%
D39*
%TO.C,R5*%
X125633854Y-81261246D03*
X124109452Y-81892674D03*
%TD*%
D40*
%TO.C,D2*%
X115003661Y-92940534D03*
X113428661Y-92940534D03*
%TD*%
D41*
%TO.C,R6*%
X115814619Y-83542619D03*
X114164619Y-83542619D03*
%TD*%
M02*
