%TF.GenerationSoftware,KiCad,Pcbnew,10.0.0*%
%TF.CreationDate,2026-07-02T21:12:41+08:00*%
%TF.ProjectId,carrrrdddd,63617272-7272-4646-9464-642e6b696361,rev?*%
%TF.SameCoordinates,Original*%
%TF.FileFunction,Legend,Bot*%
%TF.FilePolarity,Positive*%
%FSLAX46Y46*%
G04 Gerber Fmt 4.6, Leading zero omitted, Abs format (unit mm)*
G04 Created by KiCad (PCBNEW 10.0.0) date 2026-07-02 21:12:41*
%MOMM*%
%LPD*%
G01*
G04 APERTURE LIST*
%ADD10C,0.150000*%
%ADD11C,0.120000*%
%ADD12C,0.127000*%
%ADD13C,0.200000*%
G04 APERTURE END LIST*
D10*
X114665714Y-71061009D02*
X114522857Y-71108628D01*
X114522857Y-71108628D02*
X114475238Y-71156247D01*
X114475238Y-71156247D02*
X114427619Y-71251485D01*
X114427619Y-71251485D02*
X114427619Y-71394342D01*
X114427619Y-71394342D02*
X114475238Y-71489580D01*
X114475238Y-71489580D02*
X114522857Y-71537200D01*
X114522857Y-71537200D02*
X114618095Y-71584819D01*
X114618095Y-71584819D02*
X114999047Y-71584819D01*
X114999047Y-71584819D02*
X114999047Y-70584819D01*
X114999047Y-70584819D02*
X114665714Y-70584819D01*
X114665714Y-70584819D02*
X114570476Y-70632438D01*
X114570476Y-70632438D02*
X114522857Y-70680057D01*
X114522857Y-70680057D02*
X114475238Y-70775295D01*
X114475238Y-70775295D02*
X114475238Y-70870533D01*
X114475238Y-70870533D02*
X114522857Y-70965771D01*
X114522857Y-70965771D02*
X114570476Y-71013390D01*
X114570476Y-71013390D02*
X114665714Y-71061009D01*
X114665714Y-71061009D02*
X114999047Y-71061009D01*
X114141904Y-70584819D02*
X113570476Y-70584819D01*
X113856190Y-71584819D02*
X113856190Y-70584819D01*
X112713333Y-71584819D02*
X113284761Y-71584819D01*
X112999047Y-71584819D02*
X112999047Y-70584819D01*
X112999047Y-70584819D02*
X113094285Y-70727676D01*
X113094285Y-70727676D02*
X113189523Y-70822914D01*
X113189523Y-70822914D02*
X113284761Y-70870533D01*
X130564404Y-66154819D02*
X130564404Y-66964342D01*
X130564404Y-66964342D02*
X130516785Y-67059580D01*
X130516785Y-67059580D02*
X130469166Y-67107200D01*
X130469166Y-67107200D02*
X130373928Y-67154819D01*
X130373928Y-67154819D02*
X130183452Y-67154819D01*
X130183452Y-67154819D02*
X130088214Y-67107200D01*
X130088214Y-67107200D02*
X130040595Y-67059580D01*
X130040595Y-67059580D02*
X129992976Y-66964342D01*
X129992976Y-66964342D02*
X129992976Y-66154819D01*
X128992976Y-67154819D02*
X129564404Y-67154819D01*
X129278690Y-67154819D02*
X129278690Y-66154819D01*
X129278690Y-66154819D02*
X129373928Y-66297676D01*
X129373928Y-66297676D02*
X129469166Y-66392914D01*
X129469166Y-66392914D02*
X129564404Y-66440533D01*
X120564404Y-43614819D02*
X120564404Y-44424342D01*
X120564404Y-44424342D02*
X120516785Y-44519580D01*
X120516785Y-44519580D02*
X120469166Y-44567200D01*
X120469166Y-44567200D02*
X120373928Y-44614819D01*
X120373928Y-44614819D02*
X120183452Y-44614819D01*
X120183452Y-44614819D02*
X120088214Y-44567200D01*
X120088214Y-44567200D02*
X120040595Y-44519580D01*
X120040595Y-44519580D02*
X119992976Y-44424342D01*
X119992976Y-44424342D02*
X119992976Y-43614819D01*
X119564404Y-43710057D02*
X119516785Y-43662438D01*
X119516785Y-43662438D02*
X119421547Y-43614819D01*
X119421547Y-43614819D02*
X119183452Y-43614819D01*
X119183452Y-43614819D02*
X119088214Y-43662438D01*
X119088214Y-43662438D02*
X119040595Y-43710057D01*
X119040595Y-43710057D02*
X118992976Y-43805295D01*
X118992976Y-43805295D02*
X118992976Y-43900533D01*
X118992976Y-43900533D02*
X119040595Y-44043390D01*
X119040595Y-44043390D02*
X119612023Y-44614819D01*
X119612023Y-44614819D02*
X118992976Y-44614819D01*
%TO.C,BT1*%
D11*
X110820000Y-73530000D02*
X111430000Y-73530000D01*
X110820000Y-74830000D02*
X111430000Y-74830000D01*
X111430000Y-72830000D02*
X113380000Y-72830000D01*
X111430000Y-76330000D02*
X111430000Y-72830000D01*
X113380000Y-72830000D02*
X113380000Y-72220000D01*
X113780000Y-75830000D02*
X113780000Y-76330000D01*
X113880000Y-76330000D02*
X113880000Y-75830000D01*
X113980000Y-75830000D02*
X113780000Y-75830000D01*
X113980000Y-76330000D02*
X113980000Y-75830000D01*
X114380000Y-72220000D02*
X114380000Y-72830000D01*
X114380000Y-72830000D02*
X116330000Y-72830000D01*
X115180000Y-72020000D02*
X115480000Y-72020000D01*
X115180000Y-72120000D02*
X115480000Y-72120000D01*
X115180000Y-72220000D02*
X115180000Y-72020000D01*
X115480000Y-72020000D02*
X115480000Y-72220000D01*
X115990000Y-71920000D02*
X117240000Y-71920000D01*
X116330000Y-72830000D02*
X116330000Y-76330000D01*
X116330000Y-76330000D02*
X111430000Y-76330000D01*
X116940000Y-73530000D02*
X116330000Y-73530000D01*
X116940000Y-74830000D02*
X116330000Y-74830000D01*
X117240000Y-71920000D02*
X117240000Y-73170000D01*
X110820000Y-72220000D02*
X116940000Y-72220000D01*
X116940000Y-76940000D01*
X110820000Y-76940000D01*
X110820000Y-72220000D01*
%TO.C,U1*%
X128892500Y-67540000D02*
X128892500Y-67590000D01*
X128892500Y-68710000D02*
X128892500Y-69490000D01*
X128892500Y-70610000D02*
X128892500Y-70660000D01*
X128892500Y-70660000D02*
X130712500Y-70660000D01*
X130712500Y-67540000D02*
X128892500Y-67540000D01*
X130712500Y-67590000D02*
X130712500Y-67540000D01*
X130712500Y-70660000D02*
X130712500Y-70610000D01*
X131252500Y-67590000D02*
X131012500Y-67260000D01*
X131492500Y-67260000D01*
X131252500Y-67590000D01*
G36*
X131252500Y-67590000D02*
G01*
X131012500Y-67260000D01*
X131492500Y-67260000D01*
X131252500Y-67590000D01*
G37*
%TO.C,U2*%
D12*
X105197500Y-46817500D02*
X105197500Y-67772500D01*
X105197500Y-67772500D02*
X122977500Y-67772500D01*
X122977500Y-46817500D02*
X105197500Y-46817500D01*
X122977500Y-67772500D02*
X122977500Y-46817500D01*
D13*
X123687500Y-49611500D02*
G75*
G02*
X123487500Y-49611500I-100000J0D01*
G01*
X123487500Y-49611500D02*
G75*
G02*
X123687500Y-49611500I100000J0D01*
G01*
%TD*%
M02*
