%TF.GenerationSoftware,KiCad,Pcbnew,10.0.0*%
%TF.CreationDate,2026-07-02T21:12:41+08:00*%
%TF.ProjectId,carrrrdddd,63617272-7272-4646-9464-642e6b696361,rev?*%
%TF.SameCoordinates,Original*%
%TF.FileFunction,Copper,L2,Bot*%
%TF.FilePolarity,Positive*%
%FSLAX46Y46*%
G04 Gerber Fmt 4.6, Leading zero omitted, Abs format (unit mm)*
G04 Created by KiCad (PCBNEW 10.0.0) date 2026-07-02 21:12:41*
%MOMM*%
%LPD*%
G01*
G04 APERTURE LIST*
G04 Aperture macros list*
%AMRoundRect*
0 Rectangle with rounded corners*
0 $1 Rounding radius*
0 $2 $3 $4 $5 $6 $7 $8 $9 X,Y pos of 4 corners*
0 Add a 4 corners polygon primitive as box body*
4,1,4,$2,$3,$4,$5,$6,$7,$8,$9,$2,$3,0*
0 Add four circle primitives for the rounded corners*
1,1,$1+$1,$2,$3*
1,1,$1+$1,$4,$5*
1,1,$1+$1,$6,$7*
1,1,$1+$1,$8,$9*
0 Add four rect primitives between the rounded corners*
20,1,$1+$1,$2,$3,$4,$5,0*
20,1,$1+$1,$4,$5,$6,$7,0*
20,1,$1+$1,$6,$7,$8,$9,0*
20,1,$1+$1,$8,$9,$2,$3,0*%
G04 Aperture macros list end*
%TA.AperFunction,ComponentPad*%
%ADD10RoundRect,0.250000X0.350000X0.625000X-0.350000X0.625000X-0.350000X-0.625000X0.350000X-0.625000X0*%
%TD*%
%TA.AperFunction,ComponentPad*%
%ADD11O,1.200000X1.750000*%
%TD*%
%TA.AperFunction,SMDPad,CuDef*%
%ADD12RoundRect,0.150000X0.512500X0.150000X-0.512500X0.150000X-0.512500X-0.150000X0.512500X-0.150000X0*%
%TD*%
%TA.AperFunction,ComponentPad*%
%ADD13R,1.358000X1.358000*%
%TD*%
%TA.AperFunction,ComponentPad*%
%ADD14C,1.358000*%
%TD*%
%TA.AperFunction,ViaPad*%
%ADD15C,0.600000*%
%TD*%
%TA.AperFunction,Conductor*%
%ADD16C,0.500000*%
%TD*%
%TA.AperFunction,Conductor*%
%ADD17C,0.200000*%
%TD*%
G04 APERTURE END LIST*
D10*
%TO.P,BT1,1,+_1*%
%TO.N,battery_positive*%
X114880000Y-74030000D03*
D11*
%TO.P,BT1,2,-_2*%
%TO.N,GND*%
X112880000Y-74030000D03*
%TD*%
D12*
%TO.P,U1,1,V_{IN}_1*%
%TO.N,battery_positive*%
X130940000Y-68150000D03*
%TO.P,U1,2,V_{SS}_2*%
%TO.N,GND*%
X130940000Y-69100000D03*
%TO.P,U1,3,CE_3*%
%TO.N,battery_positive*%
X130940000Y-70050000D03*
%TO.P,U1,4,NC_4*%
%TO.N,unconnected-(U1-NC-Pad4)*%
X128665000Y-70050000D03*
%TO.P,U1,5,V_{OUT}_5*%
%TO.N,3.3v*%
X128665000Y-68150000D03*
%TD*%
D13*
%TO.P,U2,1,D0_1*%
%TO.N,GPIO4*%
X121707500Y-49738500D03*
D14*
%TO.P,U2,2,D1_2*%
%TO.N,GPIO3*%
X121707500Y-52278500D03*
%TO.P,U2,3,D2_3*%
%TO.N,GPIO2*%
X121707500Y-54818500D03*
%TO.P,U2,4,D3_4*%
%TO.N,GPIO1*%
X121707500Y-57358500D03*
%TO.P,U2,5,D4_5*%
%TO.N,unconnected-(U2-D4-Pad5)*%
X121707500Y-59898500D03*
%TO.P,U2,6,D5_6*%
%TO.N,unconnected-(U2-D5-Pad6)*%
X121707500Y-62438500D03*
%TO.P,U2,7,TX_D6_7*%
%TO.N,unconnected-(U2-TX_D6-Pad7)*%
X121707500Y-64978500D03*
%TO.P,U2,8,RX_D7_8*%
%TO.N,unconnected-(U2-RX_D7-Pad8)*%
X106467500Y-64978500D03*
%TO.P,U2,9,D8_9*%
%TO.N,unconnected-(U2-D8-Pad9)*%
X106467500Y-62438500D03*
%TO.P,U2,10,D9_10*%
%TO.N,unconnected-(U2-D9-Pad10)*%
X106467500Y-59898500D03*
%TO.P,U2,11,D10_11*%
%TO.N,unconnected-(U2-D10-Pad11)*%
X106467500Y-57358500D03*
%TO.P,U2,12,VCC_3V3_12*%
%TO.N,3.3v*%
X106467500Y-54818500D03*
%TO.P,U2,13,GND_13*%
%TO.N,GND*%
X106467500Y-52278500D03*
%TO.P,U2,14,VUSB_14*%
%TO.N,unconnected-(U2-VUSB-Pad14)*%
X106467500Y-49738500D03*
%TD*%
D15*
%TO.N,battery_positive*%
X130940000Y-70050000D03*
%TO.N,GND*%
X131760000Y-77610000D03*
X132230000Y-79310000D03*
X131730000Y-71410000D03*
%TO.N,Net-(D1-A)*%
X140030000Y-46900000D03*
X127410000Y-88900000D03*
%TO.N,Net-(D2-A)*%
X139762674Y-55450000D03*
X139590000Y-61060000D03*
X139830000Y-70350000D03*
X131970000Y-81900000D03*
%TO.N,Net-(D3-A)*%
X100100000Y-87950000D03*
X139830000Y-68620000D03*
%TO.N,Net-(D5-A)*%
X89320000Y-72050000D03*
X124290000Y-80260000D03*
%TO.N,Net-(D6-A)*%
X79730000Y-55220000D03*
X115120000Y-82180000D03*
%TO.N,Net-(D9-A)*%
X99270000Y-26580000D03*
X87610000Y-67520000D03*
%TO.N,Net-(D14-A)*%
X147160000Y-57370000D03*
X114800000Y-30080000D03*
%TD*%
%TO.N,battery_positive*%
D16*
X131505184Y-68150000D02*
X132052500Y-68697316D01*
X131602499Y-70050000D02*
X130940000Y-70050000D01*
X130940000Y-68150000D02*
X131505184Y-68150000D01*
X132052500Y-68697316D02*
X132052500Y-69599999D01*
X132052500Y-69599999D02*
X131602499Y-70050000D01*
%TO.N,GND*%
X130940000Y-69100000D02*
X115810000Y-69100000D01*
D17*
X132230000Y-79310000D02*
X132230000Y-78080000D01*
X130277501Y-69100000D02*
X130940000Y-69100000D01*
X129977500Y-70390552D02*
X129977500Y-69400001D01*
X129977500Y-69400001D02*
X130277501Y-69100000D01*
X130996948Y-71410000D02*
X129977500Y-70390552D01*
X132230000Y-78080000D02*
X131760000Y-77610000D01*
X131730000Y-71410000D02*
X130996948Y-71410000D01*
D16*
X115810000Y-69100000D02*
X112880000Y-72030000D01*
X112880000Y-72030000D02*
X112880000Y-74030000D01*
%TO.N,Net-(D1-A)*%
D17*
X140430000Y-75880000D02*
X140430000Y-47300000D01*
X140430000Y-47300000D02*
X140030000Y-46900000D01*
X127410000Y-88900000D02*
X140430000Y-75880000D01*
%TO.N,Net-(D2-A)*%
X139590000Y-61060000D02*
X139590000Y-55622674D01*
X139590000Y-55622674D02*
X139762674Y-55450000D01*
X139830000Y-74040000D02*
X139830000Y-70350000D01*
X131970000Y-81900000D02*
X139830000Y-74040000D01*
%TO.N,Net-(D3-A)*%
X100100000Y-87950000D02*
X120500000Y-87950000D01*
X120500000Y-87950000D02*
X139830000Y-68620000D01*
%TO.N,Net-(D5-A)*%
X97530000Y-80260000D02*
X124290000Y-80260000D01*
X89320000Y-72050000D02*
X97530000Y-80260000D01*
%TO.N,Net-(D6-A)*%
X85330000Y-59270000D02*
X85330000Y-72740000D01*
X80870000Y-54810000D02*
X85330000Y-59270000D01*
X85330000Y-72740000D02*
X94770000Y-82180000D01*
X80140000Y-54810000D02*
X80870000Y-54810000D01*
X94770000Y-82180000D02*
X115120000Y-82180000D01*
X79730000Y-55220000D02*
X80140000Y-54810000D01*
%TO.N,Net-(D9-A)*%
X99270000Y-26580000D02*
X87610000Y-38240000D01*
X87610000Y-38240000D02*
X87610000Y-67520000D01*
%TO.N,Net-(D14-A)*%
X147160000Y-57370000D02*
X147160000Y-53181471D01*
X147160000Y-53181471D02*
X124058529Y-30080000D01*
X124058529Y-30080000D02*
X114800000Y-30080000D01*
%TO.N,3.3v*%
D16*
X119799000Y-68150000D02*
X106467500Y-54818500D01*
X128665000Y-68150000D02*
X119799000Y-68150000D01*
%TD*%
%TA.AperFunction,NonConductor*%
G36*
X114314987Y-18605376D02*
G01*
X115536621Y-18643766D01*
X115540472Y-18643949D01*
X116760273Y-18720692D01*
X116764089Y-18720992D01*
X117980952Y-18836020D01*
X117984790Y-18836444D01*
X119197348Y-18989626D01*
X119201201Y-18990174D01*
X119751987Y-19077410D01*
X120408330Y-19181365D01*
X120412172Y-19182034D01*
X121612763Y-19411059D01*
X121616518Y-19411836D01*
X122809381Y-19678473D01*
X122813064Y-19679358D01*
X123996904Y-19983317D01*
X124000659Y-19984344D01*
X125174342Y-20325330D01*
X125178006Y-20326457D01*
X126340441Y-20704156D01*
X126344107Y-20705411D01*
X127494073Y-21119424D01*
X127497669Y-21120783D01*
X128634077Y-21570719D01*
X128637605Y-21572179D01*
X129657709Y-22013618D01*
X129759326Y-22057592D01*
X129762877Y-22059195D01*
X130868803Y-22579603D01*
X130872237Y-22581286D01*
X131961288Y-23136185D01*
X131964672Y-23137977D01*
X133035740Y-23726802D01*
X133039046Y-23728687D01*
X133668414Y-24100895D01*
X134091082Y-24350861D01*
X134094403Y-24352896D01*
X135126344Y-25007785D01*
X135129600Y-25009924D01*
X136140453Y-25696899D01*
X136143640Y-25699139D01*
X136379649Y-25870609D01*
X137132455Y-26417555D01*
X137135469Y-26419817D01*
X138101262Y-27168963D01*
X138104266Y-27171370D01*
X139046037Y-27950470D01*
X139048957Y-27952964D01*
X139123290Y-28018497D01*
X139965765Y-28761239D01*
X139968646Y-28763861D01*
X140859588Y-29600512D01*
X140862385Y-29603223D01*
X141726592Y-30467430D01*
X141729303Y-30470227D01*
X142565954Y-31361169D01*
X142568576Y-31364050D01*
X143376833Y-32280837D01*
X143379363Y-32283799D01*
X144158443Y-33225546D01*
X144160858Y-33228561D01*
X144909990Y-34194336D01*
X144912268Y-34197371D01*
X145211577Y-34609334D01*
X145630676Y-35186175D01*
X145632916Y-35189362D01*
X146319891Y-36200215D01*
X146322030Y-36203471D01*
X146976919Y-37235412D01*
X146978954Y-37238733D01*
X147601105Y-38290730D01*
X147603024Y-38294096D01*
X147738265Y-38540097D01*
X148191822Y-39365114D01*
X148193645Y-39368556D01*
X148748513Y-40457546D01*
X148750227Y-40461044D01*
X149270620Y-41566938D01*
X149272223Y-41570489D01*
X149757621Y-42692175D01*
X149759111Y-42695774D01*
X150209023Y-43832122D01*
X150210400Y-43835766D01*
X150624400Y-44985698D01*
X150625662Y-44989383D01*
X151003349Y-46151780D01*
X151004494Y-46155503D01*
X151345470Y-47329154D01*
X151346498Y-47332911D01*
X151650444Y-48516698D01*
X151651352Y-48520480D01*
X151666455Y-48588043D01*
X151917972Y-49713267D01*
X151918762Y-49717082D01*
X152147781Y-50917648D01*
X152148450Y-50921485D01*
X152339640Y-52128610D01*
X152340189Y-52132467D01*
X152493369Y-53345011D01*
X152493797Y-53348882D01*
X152608820Y-54565689D01*
X152609125Y-54569573D01*
X152685865Y-55789322D01*
X152686049Y-55793213D01*
X152724440Y-57014828D01*
X152724501Y-57018723D01*
X152724501Y-58240908D01*
X152724440Y-58244803D01*
X152686049Y-59466418D01*
X152685865Y-59470309D01*
X152609125Y-60690058D01*
X152608820Y-60693942D01*
X152493797Y-61910749D01*
X152493369Y-61914620D01*
X152340189Y-63127164D01*
X152339640Y-63131021D01*
X152148450Y-64338146D01*
X152147781Y-64341983D01*
X151918762Y-65542549D01*
X151917972Y-65546364D01*
X151651354Y-66739145D01*
X151650444Y-66742933D01*
X151346498Y-67926720D01*
X151345470Y-67930477D01*
X151004494Y-69104128D01*
X151003349Y-69107851D01*
X150625662Y-70270248D01*
X150624400Y-70273933D01*
X150210400Y-71423865D01*
X150209023Y-71427509D01*
X149759111Y-72563857D01*
X149757621Y-72567456D01*
X149272223Y-73689142D01*
X149270620Y-73692693D01*
X148750227Y-74798587D01*
X148748513Y-74802085D01*
X148193645Y-75891075D01*
X148191822Y-75894517D01*
X147603035Y-76965517D01*
X147601105Y-76968901D01*
X146978954Y-78020898D01*
X146976919Y-78024219D01*
X146322030Y-79056160D01*
X146319891Y-79059416D01*
X145632916Y-80070269D01*
X145630676Y-80073456D01*
X144912287Y-81062235D01*
X144909967Y-81065325D01*
X144443650Y-81666498D01*
X144160878Y-82031045D01*
X144158443Y-82034085D01*
X143379363Y-82975832D01*
X143376833Y-82978794D01*
X142568576Y-83895581D01*
X142565954Y-83898462D01*
X141729303Y-84789404D01*
X141726592Y-84792201D01*
X140862385Y-85656408D01*
X140859588Y-85659119D01*
X139968646Y-86495770D01*
X139965765Y-86498392D01*
X139048978Y-87306649D01*
X139046016Y-87309179D01*
X138104269Y-88088259D01*
X138101229Y-88090694D01*
X138050220Y-88130261D01*
X137135509Y-88839783D01*
X137132419Y-88842103D01*
X136143640Y-89560492D01*
X136140453Y-89562732D01*
X135129600Y-90249707D01*
X135126344Y-90251846D01*
X134094403Y-90906735D01*
X134091082Y-90908770D01*
X133039085Y-91530921D01*
X133035701Y-91532851D01*
X131964701Y-92121638D01*
X131961259Y-92123461D01*
X130872269Y-92678329D01*
X130868771Y-92680043D01*
X129762877Y-93200436D01*
X129759326Y-93202039D01*
X128637640Y-93687437D01*
X128634041Y-93688927D01*
X127497693Y-94138839D01*
X127494049Y-94140216D01*
X126344117Y-94554216D01*
X126340432Y-94555478D01*
X125178035Y-94933165D01*
X125174312Y-94934310D01*
X124000661Y-95275286D01*
X123996904Y-95276314D01*
X122813117Y-95580260D01*
X122809329Y-95581170D01*
X121616548Y-95847788D01*
X121612733Y-95848578D01*
X120412167Y-96077597D01*
X120408330Y-96078266D01*
X119201205Y-96269456D01*
X119197348Y-96270005D01*
X117984804Y-96423185D01*
X117980933Y-96423613D01*
X116764126Y-96538636D01*
X116760242Y-96538941D01*
X115540493Y-96615681D01*
X115536602Y-96615865D01*
X114314987Y-96654256D01*
X114311092Y-96654317D01*
X113088908Y-96654317D01*
X113085013Y-96654256D01*
X111863397Y-96615865D01*
X111859506Y-96615681D01*
X110639757Y-96538941D01*
X110635873Y-96538636D01*
X109419066Y-96423613D01*
X109415195Y-96423185D01*
X108202651Y-96270005D01*
X108198794Y-96269456D01*
X106991669Y-96078266D01*
X106987832Y-96077597D01*
X105787266Y-95848578D01*
X105783451Y-95847788D01*
X104590670Y-95581170D01*
X104586882Y-95580260D01*
X103403095Y-95276314D01*
X103399338Y-95275286D01*
X102225687Y-94934310D01*
X102221964Y-94933165D01*
X101059567Y-94555478D01*
X101055882Y-94554216D01*
X99905950Y-94140216D01*
X99902306Y-94138839D01*
X98765958Y-93688927D01*
X98762359Y-93687437D01*
X97640673Y-93202039D01*
X97637122Y-93200436D01*
X96531228Y-92680043D01*
X96527730Y-92678329D01*
X95992665Y-92405700D01*
X95438734Y-92123458D01*
X95435298Y-92121638D01*
X94364280Y-91532840D01*
X94360933Y-91530932D01*
X94045718Y-91344514D01*
X93308917Y-90908770D01*
X93305596Y-90906735D01*
X92273655Y-90251846D01*
X92270399Y-90249707D01*
X91259546Y-89562732D01*
X91256359Y-89560492D01*
X90695213Y-89152796D01*
X90267555Y-88842084D01*
X90264520Y-88839806D01*
X89298745Y-88090674D01*
X89295730Y-88088259D01*
X89141429Y-87960610D01*
X89033294Y-87871153D01*
X99299500Y-87871153D01*
X99299500Y-88028846D01*
X99330261Y-88183489D01*
X99330264Y-88183501D01*
X99390602Y-88329172D01*
X99390609Y-88329185D01*
X99478210Y-88460288D01*
X99478213Y-88460292D01*
X99589707Y-88571786D01*
X99589711Y-88571789D01*
X99720814Y-88659390D01*
X99720827Y-88659397D01*
X99866498Y-88719735D01*
X99866503Y-88719737D01*
X100021153Y-88750499D01*
X100021156Y-88750500D01*
X100021158Y-88750500D01*
X100178844Y-88750500D01*
X100178845Y-88750499D01*
X100333497Y-88719737D01*
X100479179Y-88659394D01*
X100479185Y-88659390D01*
X100610875Y-88571398D01*
X100677553Y-88550520D01*
X100679766Y-88550500D01*
X120413331Y-88550500D01*
X120413347Y-88550501D01*
X120420943Y-88550501D01*
X120579054Y-88550501D01*
X120579057Y-88550501D01*
X120731785Y-88509577D01*
X120781904Y-88480639D01*
X120868716Y-88430520D01*
X120980520Y-88318716D01*
X120980520Y-88318714D01*
X120990728Y-88308507D01*
X120990730Y-88308504D01*
X131070898Y-78228335D01*
X131132219Y-78194852D01*
X131201911Y-78199836D01*
X131246258Y-78228337D01*
X131249707Y-78231786D01*
X131249711Y-78231789D01*
X131380814Y-78319390D01*
X131380827Y-78319397D01*
X131468230Y-78355599D01*
X131526503Y-78379737D01*
X131529686Y-78380370D01*
X131531197Y-78381160D01*
X131532336Y-78381506D01*
X131532270Y-78381721D01*
X131591598Y-78412752D01*
X131626175Y-78473466D01*
X131629500Y-78501988D01*
X131629500Y-78730234D01*
X131609815Y-78797273D01*
X131608602Y-78799125D01*
X131520609Y-78930814D01*
X131520602Y-78930827D01*
X131460264Y-79076498D01*
X131460261Y-79076510D01*
X131429500Y-79231153D01*
X131429500Y-79388846D01*
X131460261Y-79543489D01*
X131460264Y-79543501D01*
X131520602Y-79689172D01*
X131520609Y-79689185D01*
X131608210Y-79820288D01*
X131608213Y-79820292D01*
X131719707Y-79931786D01*
X131719711Y-79931789D01*
X131850814Y-80019390D01*
X131850827Y-80019397D01*
X131981339Y-80073456D01*
X131996503Y-80079737D01*
X132151153Y-80110499D01*
X132151156Y-80110500D01*
X132151158Y-80110500D01*
X132308844Y-80110500D01*
X132308845Y-80110499D01*
X132463497Y-80079737D01*
X132609179Y-80019394D01*
X132740289Y-79931789D01*
X132851789Y-79820289D01*
X132939394Y-79689179D01*
X132951688Y-79659500D01*
X132999735Y-79543501D01*
X132999737Y-79543497D01*
X133030500Y-79388842D01*
X133030500Y-79231158D01*
X133030500Y-79231155D01*
X133030499Y-79231153D01*
X132999738Y-79076510D01*
X132999737Y-79076503D01*
X132999735Y-79076498D01*
X132939397Y-78930827D01*
X132939390Y-78930814D01*
X132851398Y-78799125D01*
X132830520Y-78732447D01*
X132830500Y-78730234D01*
X132830500Y-78000945D01*
X132830500Y-78000943D01*
X132789577Y-77848216D01*
X132789573Y-77848209D01*
X132710524Y-77711290D01*
X132710521Y-77711286D01*
X132710520Y-77711284D01*
X132598716Y-77599480D01*
X132598715Y-77599479D01*
X132594572Y-77595336D01*
X132561088Y-77534013D01*
X132560637Y-77531846D01*
X132552200Y-77489435D01*
X132529737Y-77376503D01*
X132529735Y-77376498D01*
X132469397Y-77230827D01*
X132469390Y-77230814D01*
X132381789Y-77099711D01*
X132381786Y-77099707D01*
X132378337Y-77096258D01*
X132344852Y-77034935D01*
X132349836Y-76965243D01*
X132378335Y-76920898D01*
X138839064Y-70460169D01*
X138900385Y-70426686D01*
X138970077Y-70431670D01*
X139026010Y-70473542D01*
X139048360Y-70523660D01*
X139060261Y-70583491D01*
X139060264Y-70583501D01*
X139120602Y-70729172D01*
X139120609Y-70729185D01*
X139208602Y-70860874D01*
X139229480Y-70927551D01*
X139229500Y-70929765D01*
X139229500Y-73739902D01*
X139209815Y-73806941D01*
X139193181Y-73827583D01*
X131955339Y-81065425D01*
X131894016Y-81098910D01*
X131891850Y-81099361D01*
X131736508Y-81130261D01*
X131736498Y-81130264D01*
X131590827Y-81190602D01*
X131590814Y-81190609D01*
X131459711Y-81278210D01*
X131459707Y-81278213D01*
X131348213Y-81389707D01*
X131348210Y-81389711D01*
X131260609Y-81520814D01*
X131260602Y-81520827D01*
X131200264Y-81666498D01*
X131200261Y-81666510D01*
X131169500Y-81821153D01*
X131169500Y-81978846D01*
X131200261Y-82133489D01*
X131200264Y-82133501D01*
X131260602Y-82279172D01*
X131260609Y-82279185D01*
X131348210Y-82410288D01*
X131348213Y-82410292D01*
X131459707Y-82521786D01*
X131459711Y-82521789D01*
X131590814Y-82609390D01*
X131590827Y-82609397D01*
X131714251Y-82660520D01*
X131736503Y-82669737D01*
X131891153Y-82700499D01*
X131891156Y-82700500D01*
X131891158Y-82700500D01*
X132048844Y-82700500D01*
X132048845Y-82700499D01*
X132203497Y-82669737D01*
X132349179Y-82609394D01*
X132480289Y-82521789D01*
X132591789Y-82410289D01*
X132679394Y-82279179D01*
X132739737Y-82133497D01*
X132760116Y-82031045D01*
X132770638Y-81978150D01*
X132803023Y-81916239D01*
X132804518Y-81914716D01*
X139617819Y-75101416D01*
X139679142Y-75067931D01*
X139748834Y-75072915D01*
X139804767Y-75114787D01*
X139829184Y-75180251D01*
X139829500Y-75189097D01*
X139829500Y-75579902D01*
X139809815Y-75646941D01*
X139793181Y-75667583D01*
X127395339Y-88065425D01*
X127334016Y-88098910D01*
X127331850Y-88099361D01*
X127176508Y-88130261D01*
X127176498Y-88130264D01*
X127030827Y-88190602D01*
X127030814Y-88190609D01*
X126899711Y-88278210D01*
X126899707Y-88278213D01*
X126788213Y-88389707D01*
X126788210Y-88389711D01*
X126700609Y-88520814D01*
X126700602Y-88520827D01*
X126640264Y-88666498D01*
X126640261Y-88666510D01*
X126609500Y-88821153D01*
X126609500Y-88978846D01*
X126640261Y-89133489D01*
X126640264Y-89133501D01*
X126700602Y-89279172D01*
X126700609Y-89279185D01*
X126788210Y-89410288D01*
X126788213Y-89410292D01*
X126899707Y-89521786D01*
X126899711Y-89521789D01*
X127030814Y-89609390D01*
X127030827Y-89609397D01*
X127176498Y-89669735D01*
X127176503Y-89669737D01*
X127331153Y-89700499D01*
X127331156Y-89700500D01*
X127331158Y-89700500D01*
X127488844Y-89700500D01*
X127488845Y-89700499D01*
X127643497Y-89669737D01*
X127789179Y-89609394D01*
X127920289Y-89521789D01*
X128031789Y-89410289D01*
X128119394Y-89279179D01*
X128179737Y-89133497D01*
X128199113Y-89036085D01*
X128210638Y-88978150D01*
X128243023Y-88916239D01*
X128244518Y-88914716D01*
X140910520Y-76248716D01*
X140989577Y-76111784D01*
X141030501Y-75959057D01*
X141030501Y-75800942D01*
X141030501Y-75793347D01*
X141030500Y-75793329D01*
X141030500Y-48200568D01*
X141050185Y-48133529D01*
X141102989Y-48087774D01*
X141172147Y-48077830D01*
X141235703Y-48106855D01*
X141242181Y-48112887D01*
X146523181Y-53393887D01*
X146556666Y-53455210D01*
X146559500Y-53481568D01*
X146559500Y-56790234D01*
X146539815Y-56857273D01*
X146538602Y-56859125D01*
X146450609Y-56990814D01*
X146450602Y-56990827D01*
X146390264Y-57136498D01*
X146390261Y-57136510D01*
X146359500Y-57291153D01*
X146359500Y-57448846D01*
X146390261Y-57603489D01*
X146390264Y-57603501D01*
X146450602Y-57749172D01*
X146450609Y-57749185D01*
X146538210Y-57880288D01*
X146538213Y-57880292D01*
X146649707Y-57991786D01*
X146649711Y-57991789D01*
X146780814Y-58079390D01*
X146780827Y-58079397D01*
X146895497Y-58126894D01*
X146926503Y-58139737D01*
X147081153Y-58170499D01*
X147081156Y-58170500D01*
X147081158Y-58170500D01*
X147238844Y-58170500D01*
X147238845Y-58170499D01*
X147393497Y-58139737D01*
X147539179Y-58079394D01*
X147670289Y-57991789D01*
X147781789Y-57880289D01*
X147869394Y-57749179D01*
X147929737Y-57603497D01*
X147960500Y-57448842D01*
X147960500Y-57291158D01*
X147960500Y-57291155D01*
X147960499Y-57291153D01*
X147955300Y-57265016D01*
X147929737Y-57136503D01*
X147907286Y-57082300D01*
X147869397Y-56990827D01*
X147869390Y-56990814D01*
X147781398Y-56859125D01*
X147760520Y-56792447D01*
X147760500Y-56790234D01*
X147760500Y-53270531D01*
X147760501Y-53270518D01*
X147760501Y-53102415D01*
X147719576Y-52949685D01*
X147719573Y-52949680D01*
X147640524Y-52812761D01*
X147640518Y-52812753D01*
X124546119Y-29718355D01*
X124546117Y-29718352D01*
X124427246Y-29599481D01*
X124427245Y-29599480D01*
X124340433Y-29549360D01*
X124340433Y-29549359D01*
X124340429Y-29549358D01*
X124290314Y-29520423D01*
X124137586Y-29479499D01*
X123979472Y-29479499D01*
X123971876Y-29479499D01*
X123971860Y-29479500D01*
X115379766Y-29479500D01*
X115312727Y-29459815D01*
X115310875Y-29458602D01*
X115179185Y-29370609D01*
X115179172Y-29370602D01*
X115033501Y-29310264D01*
X115033489Y-29310261D01*
X114878845Y-29279500D01*
X114878842Y-29279500D01*
X114721158Y-29279500D01*
X114721155Y-29279500D01*
X114566510Y-29310261D01*
X114566498Y-29310264D01*
X114420827Y-29370602D01*
X114420814Y-29370609D01*
X114289711Y-29458210D01*
X114289707Y-29458213D01*
X114178213Y-29569707D01*
X114178210Y-29569711D01*
X114090609Y-29700814D01*
X114090602Y-29700827D01*
X114030264Y-29846498D01*
X114030261Y-29846510D01*
X113999500Y-30001153D01*
X113999500Y-30158846D01*
X114030261Y-30313489D01*
X114030264Y-30313501D01*
X114090602Y-30459172D01*
X114090609Y-30459185D01*
X114178210Y-30590288D01*
X114178213Y-30590292D01*
X114289707Y-30701786D01*
X114289711Y-30701789D01*
X114420814Y-30789390D01*
X114420827Y-30789397D01*
X114566498Y-30849735D01*
X114566503Y-30849737D01*
X114721153Y-30880499D01*
X114721156Y-30880500D01*
X114721158Y-30880500D01*
X114878844Y-30880500D01*
X114878845Y-30880499D01*
X115033497Y-30849737D01*
X115179179Y-30789394D01*
X115179185Y-30789390D01*
X115310875Y-30701398D01*
X115377553Y-30680520D01*
X115379766Y-30680500D01*
X123758432Y-30680500D01*
X123825471Y-30700185D01*
X123846113Y-30716819D01*
X139380630Y-46251337D01*
X139414115Y-46312660D01*
X139409131Y-46382352D01*
X139396051Y-46407909D01*
X139320609Y-46520814D01*
X139320602Y-46520827D01*
X139260264Y-46666498D01*
X139260261Y-46666510D01*
X139229500Y-46821153D01*
X139229500Y-46978846D01*
X139260261Y-47133489D01*
X139260264Y-47133501D01*
X139320602Y-47279172D01*
X139320609Y-47279185D01*
X139408210Y-47410288D01*
X139408213Y-47410292D01*
X139519707Y-47521786D01*
X139519711Y-47521789D01*
X139650814Y-47609390D01*
X139650827Y-47609397D01*
X139752952Y-47651698D01*
X139807356Y-47695538D01*
X139829421Y-47761833D01*
X139829500Y-47766259D01*
X139829500Y-54525500D01*
X139809815Y-54592539D01*
X139757011Y-54638294D01*
X139705500Y-54649500D01*
X139683829Y-54649500D01*
X139529184Y-54680261D01*
X139529172Y-54680264D01*
X139383501Y-54740602D01*
X139383488Y-54740609D01*
X139252385Y-54828210D01*
X139252381Y-54828213D01*
X139140887Y-54939707D01*
X139140884Y-54939711D01*
X139053283Y-55070814D01*
X139053276Y-55070827D01*
X138992938Y-55216498D01*
X138992935Y-55216510D01*
X138962174Y-55371153D01*
X138962174Y-55371158D01*
X138962174Y-55528842D01*
X138962174Y-55528844D01*
X138962173Y-55528844D01*
X138987116Y-55654232D01*
X138989499Y-55678420D01*
X138989499Y-55701731D01*
X138989499Y-55701733D01*
X138989500Y-55711729D01*
X138989500Y-60480234D01*
X138969815Y-60547273D01*
X138968602Y-60549125D01*
X138880609Y-60680814D01*
X138880602Y-60680827D01*
X138820264Y-60826498D01*
X138820261Y-60826510D01*
X138789500Y-60981153D01*
X138789500Y-61138846D01*
X138820261Y-61293489D01*
X138820264Y-61293501D01*
X138880602Y-61439172D01*
X138880609Y-61439185D01*
X138968210Y-61570288D01*
X138968213Y-61570292D01*
X139079707Y-61681786D01*
X139079711Y-61681789D01*
X139210814Y-61769390D01*
X139210827Y-61769397D01*
X139350499Y-61827250D01*
X139356503Y-61829737D01*
X139498695Y-61858021D01*
X139511153Y-61860499D01*
X139511156Y-61860500D01*
X139511158Y-61860500D01*
X139668843Y-61860500D01*
X139673474Y-61859578D01*
X139681304Y-61858021D01*
X139750895Y-61864245D01*
X139806074Y-61907106D01*
X139829322Y-61972994D01*
X139829500Y-61979637D01*
X139829500Y-67702152D01*
X139809815Y-67769191D01*
X139757011Y-67814946D01*
X139729692Y-67823769D01*
X139596508Y-67850261D01*
X139596498Y-67850264D01*
X139450827Y-67910602D01*
X139450814Y-67910609D01*
X139319711Y-67998210D01*
X139319707Y-67998213D01*
X139208213Y-68109707D01*
X139208210Y-68109711D01*
X139120609Y-68240814D01*
X139120602Y-68240827D01*
X139060264Y-68386498D01*
X139060261Y-68386508D01*
X139029361Y-68541850D01*
X138996976Y-68603761D01*
X138995425Y-68605339D01*
X120287584Y-87313181D01*
X120226261Y-87346666D01*
X120199903Y-87349500D01*
X100679766Y-87349500D01*
X100612727Y-87329815D01*
X100610875Y-87328602D01*
X100479185Y-87240609D01*
X100479172Y-87240602D01*
X100333501Y-87180264D01*
X100333489Y-87180261D01*
X100178845Y-87149500D01*
X100178842Y-87149500D01*
X100021158Y-87149500D01*
X100021155Y-87149500D01*
X99866510Y-87180261D01*
X99866498Y-87180264D01*
X99720827Y-87240602D01*
X99720814Y-87240609D01*
X99589711Y-87328210D01*
X99589707Y-87328213D01*
X99478213Y-87439707D01*
X99478210Y-87439711D01*
X99390609Y-87570814D01*
X99390602Y-87570827D01*
X99330264Y-87716498D01*
X99330261Y-87716510D01*
X99299500Y-87871153D01*
X89033294Y-87871153D01*
X88670246Y-87570814D01*
X88353968Y-87309166D01*
X88351037Y-87306663D01*
X87434234Y-86498392D01*
X87431353Y-86495770D01*
X86540411Y-85659119D01*
X86537614Y-85656408D01*
X85673407Y-84792201D01*
X85670696Y-84789404D01*
X84834045Y-83898462D01*
X84831423Y-83895581D01*
X84597841Y-83630634D01*
X84023148Y-82978773D01*
X84020654Y-82975853D01*
X83241554Y-82034082D01*
X83239147Y-82031078D01*
X82490001Y-81065285D01*
X82487739Y-81062271D01*
X81847573Y-80181158D01*
X81769323Y-80073456D01*
X81767083Y-80070269D01*
X81080108Y-79059416D01*
X81077969Y-79056160D01*
X80423080Y-78024219D01*
X80421045Y-78020898D01*
X80039947Y-77376498D01*
X79798871Y-76968862D01*
X79796986Y-76965556D01*
X79208161Y-75894488D01*
X79206369Y-75891104D01*
X78651470Y-74802053D01*
X78649787Y-74798619D01*
X78129379Y-73692693D01*
X78127776Y-73689142D01*
X77973467Y-73332555D01*
X77642363Y-72567421D01*
X77640903Y-72563893D01*
X77190967Y-71427485D01*
X77189599Y-71423865D01*
X77156221Y-71331155D01*
X76775595Y-70273923D01*
X76774337Y-70270248D01*
X76712006Y-70078414D01*
X76396641Y-69107822D01*
X76395514Y-69104158D01*
X76054528Y-67930475D01*
X76053501Y-67926720D01*
X76027068Y-67823769D01*
X75749542Y-66742880D01*
X75748657Y-66739197D01*
X75482020Y-65546334D01*
X75481243Y-65542579D01*
X75252218Y-64341983D01*
X75251549Y-64338146D01*
X75060359Y-63131021D01*
X75059810Y-63127164D01*
X74906628Y-61914606D01*
X74906202Y-61910749D01*
X74897653Y-61820306D01*
X74791176Y-60693905D01*
X74790874Y-60690058D01*
X74790293Y-60680827D01*
X74714133Y-59470288D01*
X74713950Y-59466418D01*
X74708101Y-59280307D01*
X74675560Y-58244803D01*
X74675499Y-58240908D01*
X74675499Y-57018723D01*
X74675560Y-57014828D01*
X74675859Y-57005308D01*
X74713951Y-55793191D01*
X74714134Y-55789322D01*
X74717848Y-55730288D01*
X74754913Y-55141153D01*
X78929500Y-55141153D01*
X78929500Y-55298846D01*
X78960261Y-55453489D01*
X78960264Y-55453501D01*
X79020602Y-55599172D01*
X79020609Y-55599185D01*
X79108210Y-55730288D01*
X79108213Y-55730292D01*
X79219707Y-55841786D01*
X79219711Y-55841789D01*
X79350814Y-55929390D01*
X79350827Y-55929397D01*
X79491527Y-55987676D01*
X79496503Y-55989737D01*
X79651153Y-56020499D01*
X79651156Y-56020500D01*
X79651158Y-56020500D01*
X79808844Y-56020500D01*
X79808845Y-56020499D01*
X79963497Y-55989737D01*
X80109179Y-55929394D01*
X80240289Y-55841789D01*
X80351789Y-55730289D01*
X80439394Y-55599179D01*
X80476907Y-55508611D01*
X80520747Y-55454210D01*
X80587041Y-55432144D01*
X80654740Y-55449423D01*
X80679149Y-55468384D01*
X84693181Y-59482416D01*
X84726666Y-59543739D01*
X84729500Y-59570097D01*
X84729500Y-72653330D01*
X84729499Y-72653348D01*
X84729499Y-72819054D01*
X84729498Y-72819054D01*
X84750597Y-72897796D01*
X84770423Y-72971785D01*
X84787027Y-73000544D01*
X84799358Y-73021900D01*
X84799359Y-73021904D01*
X84799360Y-73021904D01*
X84836173Y-73085668D01*
X84849479Y-73108714D01*
X84849481Y-73108717D01*
X84968349Y-73227585D01*
X84968355Y-73227590D01*
X94285139Y-82544374D01*
X94285149Y-82544385D01*
X94289479Y-82548715D01*
X94289480Y-82548716D01*
X94401284Y-82660520D01*
X94470532Y-82700500D01*
X94538215Y-82739577D01*
X94690943Y-82780501D01*
X94690946Y-82780501D01*
X94856653Y-82780501D01*
X94856669Y-82780500D01*
X114540234Y-82780500D01*
X114607273Y-82800185D01*
X114609125Y-82801398D01*
X114740814Y-82889390D01*
X114740827Y-82889397D01*
X114886498Y-82949735D01*
X114886503Y-82949737D01*
X115041153Y-82980499D01*
X115041156Y-82980500D01*
X115041158Y-82980500D01*
X115198844Y-82980500D01*
X115198845Y-82980499D01*
X115353497Y-82949737D01*
X115499179Y-82889394D01*
X115630289Y-82801789D01*
X115741789Y-82690289D01*
X115829394Y-82559179D01*
X115889737Y-82413497D01*
X115920500Y-82258842D01*
X115920500Y-82101158D01*
X115920500Y-82101155D01*
X115920499Y-82101153D01*
X115907158Y-82034085D01*
X115889737Y-81946503D01*
X115837816Y-81821153D01*
X115829397Y-81800827D01*
X115829390Y-81800814D01*
X115741789Y-81669711D01*
X115741786Y-81669707D01*
X115630292Y-81558213D01*
X115630288Y-81558210D01*
X115499185Y-81470609D01*
X115499172Y-81470602D01*
X115353501Y-81410264D01*
X115353489Y-81410261D01*
X115198845Y-81379500D01*
X115198842Y-81379500D01*
X115041158Y-81379500D01*
X115041155Y-81379500D01*
X114886510Y-81410261D01*
X114886498Y-81410264D01*
X114740827Y-81470602D01*
X114740814Y-81470609D01*
X114609125Y-81558602D01*
X114542447Y-81579480D01*
X114540234Y-81579500D01*
X95070097Y-81579500D01*
X95003058Y-81559815D01*
X94982416Y-81543181D01*
X85966819Y-72527584D01*
X85933334Y-72466261D01*
X85930500Y-72439903D01*
X85930500Y-71971153D01*
X88519500Y-71971153D01*
X88519500Y-72128846D01*
X88550261Y-72283489D01*
X88550264Y-72283501D01*
X88610602Y-72429172D01*
X88610609Y-72429185D01*
X88698210Y-72560288D01*
X88698213Y-72560292D01*
X88809707Y-72671786D01*
X88809711Y-72671789D01*
X88940814Y-72759390D01*
X88940827Y-72759397D01*
X89084854Y-72819054D01*
X89086503Y-72819737D01*
X89151147Y-72832595D01*
X89241849Y-72850638D01*
X89303760Y-72883023D01*
X89305339Y-72884574D01*
X97045139Y-80624374D01*
X97045149Y-80624385D01*
X97049479Y-80628715D01*
X97049480Y-80628716D01*
X97161284Y-80740520D01*
X97161286Y-80740521D01*
X97161290Y-80740524D01*
X97298209Y-80819573D01*
X97298216Y-80819577D01*
X97410019Y-80849534D01*
X97450942Y-80860500D01*
X97450943Y-80860500D01*
X123710234Y-80860500D01*
X123777273Y-80880185D01*
X123779125Y-80881398D01*
X123910814Y-80969390D01*
X123910827Y-80969397D01*
X124056498Y-81029735D01*
X124056503Y-81029737D01*
X124211153Y-81060499D01*
X124211156Y-81060500D01*
X124211158Y-81060500D01*
X124368844Y-81060500D01*
X124368845Y-81060499D01*
X124523497Y-81029737D01*
X124669179Y-80969394D01*
X124800289Y-80881789D01*
X124911789Y-80770289D01*
X124999394Y-80639179D01*
X125059737Y-80493497D01*
X125090500Y-80338842D01*
X125090500Y-80181158D01*
X125090500Y-80181155D01*
X125090499Y-80181153D01*
X125070326Y-80079737D01*
X125059737Y-80026503D01*
X125023518Y-79939061D01*
X124999397Y-79880827D01*
X124999390Y-79880814D01*
X124911789Y-79749711D01*
X124911786Y-79749707D01*
X124800292Y-79638213D01*
X124800288Y-79638210D01*
X124669185Y-79550609D01*
X124669172Y-79550602D01*
X124523501Y-79490264D01*
X124523489Y-79490261D01*
X124368845Y-79459500D01*
X124368842Y-79459500D01*
X124211158Y-79459500D01*
X124211155Y-79459500D01*
X124056510Y-79490261D01*
X124056498Y-79490264D01*
X123910827Y-79550602D01*
X123910814Y-79550609D01*
X123779125Y-79638602D01*
X123712447Y-79659480D01*
X123710234Y-79659500D01*
X97830097Y-79659500D01*
X97763058Y-79639815D01*
X97742416Y-79623181D01*
X90154574Y-72035339D01*
X90121089Y-71974016D01*
X90120638Y-71971849D01*
X90089738Y-71816510D01*
X90089737Y-71816503D01*
X90072287Y-71774374D01*
X90029397Y-71670827D01*
X90029390Y-71670814D01*
X89941789Y-71539711D01*
X89941786Y-71539707D01*
X89830292Y-71428213D01*
X89830288Y-71428210D01*
X89699185Y-71340609D01*
X89699172Y-71340602D01*
X89553501Y-71280264D01*
X89553489Y-71280261D01*
X89398845Y-71249500D01*
X89398842Y-71249500D01*
X89241158Y-71249500D01*
X89241155Y-71249500D01*
X89086510Y-71280261D01*
X89086498Y-71280264D01*
X88940827Y-71340602D01*
X88940814Y-71340609D01*
X88809711Y-71428210D01*
X88809707Y-71428213D01*
X88698213Y-71539707D01*
X88698210Y-71539711D01*
X88610609Y-71670814D01*
X88610602Y-71670827D01*
X88550264Y-71816498D01*
X88550261Y-71816510D01*
X88519500Y-71971153D01*
X85930500Y-71971153D01*
X85930500Y-67441153D01*
X86809500Y-67441153D01*
X86809500Y-67598846D01*
X86840261Y-67753489D01*
X86840264Y-67753501D01*
X86900602Y-67899172D01*
X86900609Y-67899185D01*
X86988210Y-68030288D01*
X86988213Y-68030292D01*
X87099707Y-68141786D01*
X87099711Y-68141789D01*
X87230814Y-68229390D01*
X87230827Y-68229397D01*
X87326038Y-68268834D01*
X87376503Y-68289737D01*
X87531153Y-68320499D01*
X87531156Y-68320500D01*
X87531158Y-68320500D01*
X87688844Y-68320500D01*
X87688845Y-68320499D01*
X87843497Y-68289737D01*
X87961592Y-68240821D01*
X87989172Y-68229397D01*
X87989172Y-68229396D01*
X87989179Y-68229394D01*
X88120289Y-68141789D01*
X88231789Y-68030289D01*
X88319394Y-67899179D01*
X88379737Y-67753497D01*
X88410500Y-67598842D01*
X88410500Y-67441158D01*
X88410500Y-67441155D01*
X88410499Y-67441153D01*
X88379738Y-67286510D01*
X88379737Y-67286503D01*
X88379735Y-67286498D01*
X88319397Y-67140827D01*
X88319390Y-67140814D01*
X88231398Y-67009125D01*
X88210520Y-66942447D01*
X88210500Y-66940234D01*
X88210500Y-49645665D01*
X105288000Y-49645665D01*
X105288000Y-49831334D01*
X105317042Y-50014696D01*
X105317043Y-50014700D01*
X105374415Y-50191271D01*
X105458701Y-50356693D01*
X105567828Y-50506893D01*
X105699107Y-50638172D01*
X105849307Y-50747299D01*
X106014729Y-50831585D01*
X106191300Y-50888957D01*
X106191302Y-50888957D01*
X106195933Y-50890462D01*
X106195226Y-50892635D01*
X106247629Y-50922748D01*
X106279771Y-50984786D01*
X106273271Y-51054352D01*
X106230192Y-51109361D01*
X106195499Y-51125204D01*
X106195933Y-51126538D01*
X106191302Y-51128042D01*
X106191300Y-51128043D01*
X106093163Y-51159930D01*
X106014726Y-51185416D01*
X105849306Y-51269701D01*
X105763611Y-51331962D01*
X105699107Y-51378828D01*
X105699105Y-51378830D01*
X105699104Y-51378830D01*
X105567830Y-51510104D01*
X105567830Y-51510105D01*
X105567828Y-51510107D01*
X105520962Y-51574611D01*
X105458701Y-51660306D01*
X105374416Y-51825726D01*
X105317042Y-52002303D01*
X105288000Y-52185665D01*
X105288000Y-52371334D01*
X105317042Y-52554696D01*
X105317043Y-52554700D01*
X105374415Y-52731271D01*
X105458701Y-52896693D01*
X105567828Y-53046893D01*
X105699107Y-53178172D01*
X105849307Y-53287299D01*
X106014729Y-53371585D01*
X106191300Y-53428957D01*
X106191302Y-53428957D01*
X106195933Y-53430462D01*
X106195226Y-53432635D01*
X106247629Y-53462748D01*
X106279771Y-53524786D01*
X106273271Y-53594352D01*
X106230192Y-53649361D01*
X106195499Y-53665204D01*
X106195933Y-53666538D01*
X106191302Y-53668042D01*
X106191300Y-53668043D01*
X106014729Y-53725415D01*
X106014726Y-53725416D01*
X105849306Y-53809701D01*
X105763611Y-53871962D01*
X105699107Y-53918828D01*
X105699105Y-53918830D01*
X105699104Y-53918830D01*
X105567830Y-54050104D01*
X105567830Y-54050105D01*
X105567828Y-54050107D01*
X105520962Y-54114611D01*
X105458701Y-54200306D01*
X105374416Y-54365726D01*
X105317042Y-54542303D01*
X105288000Y-54725665D01*
X105288000Y-54911334D01*
X105317042Y-55094696D01*
X105317043Y-55094700D01*
X105374415Y-55271271D01*
X105458701Y-55436693D01*
X105567828Y-55586893D01*
X105699107Y-55718172D01*
X105849307Y-55827299D01*
X106014729Y-55911585D01*
X106191300Y-55968957D01*
X106191302Y-55968957D01*
X106195933Y-55970462D01*
X106195226Y-55972635D01*
X106247629Y-56002748D01*
X106279771Y-56064786D01*
X106273271Y-56134352D01*
X106230192Y-56189361D01*
X106195499Y-56205204D01*
X106195933Y-56206538D01*
X106191302Y-56208042D01*
X106191300Y-56208043D01*
X106014729Y-56265415D01*
X106014726Y-56265416D01*
X105849306Y-56349701D01*
X105763611Y-56411962D01*
X105699107Y-56458828D01*
X105699105Y-56458830D01*
X105699104Y-56458830D01*
X105567830Y-56590104D01*
X105567830Y-56590105D01*
X105567828Y-56590107D01*
X105520962Y-56654611D01*
X105458701Y-56740306D01*
X105374416Y-56905726D01*
X105317042Y-57082303D01*
X105288000Y-57265665D01*
X105288000Y-57451334D01*
X105317042Y-57634696D01*
X105317043Y-57634700D01*
X105374415Y-57811271D01*
X105458701Y-57976693D01*
X105567828Y-58126893D01*
X105699107Y-58258172D01*
X105849307Y-58367299D01*
X106014729Y-58451585D01*
X106191300Y-58508957D01*
X106191302Y-58508957D01*
X106195933Y-58510462D01*
X106195226Y-58512635D01*
X106247629Y-58542748D01*
X106279771Y-58604786D01*
X106273271Y-58674352D01*
X106230192Y-58729361D01*
X106195499Y-58745204D01*
X106195933Y-58746538D01*
X106191302Y-58748042D01*
X106191300Y-58748043D01*
X106014729Y-58805415D01*
X106014726Y-58805416D01*
X105849306Y-58889701D01*
X105763611Y-58951962D01*
X105699107Y-58998828D01*
X105699105Y-58998830D01*
X105699104Y-58998830D01*
X105567830Y-59130104D01*
X105567830Y-59130105D01*
X105567828Y-59130107D01*
X105520962Y-59194611D01*
X105458701Y-59280306D01*
X105374416Y-59445726D01*
X105317042Y-59622303D01*
X105288000Y-59805665D01*
X105288000Y-59991334D01*
X105317042Y-60174696D01*
X105317043Y-60174700D01*
X105374415Y-60351271D01*
X105458701Y-60516693D01*
X105567828Y-60666893D01*
X105699107Y-60798172D01*
X105849307Y-60907299D01*
X106014729Y-60991585D01*
X106191300Y-61048957D01*
X106191302Y-61048957D01*
X106195933Y-61050462D01*
X106195226Y-61052635D01*
X106247629Y-61082748D01*
X106279771Y-61144786D01*
X106273271Y-61214352D01*
X106230192Y-61269361D01*
X106195499Y-61285204D01*
X106195933Y-61286538D01*
X106191302Y-61288042D01*
X106191300Y-61288043D01*
X106014729Y-61345415D01*
X106014726Y-61345416D01*
X105849306Y-61429701D01*
X105836253Y-61439185D01*
X105699107Y-61538828D01*
X105699105Y-61538830D01*
X105699104Y-61538830D01*
X105567830Y-61670104D01*
X105567830Y-61670105D01*
X105567828Y-61670107D01*
X105559343Y-61681786D01*
X105458701Y-61820306D01*
X105374416Y-61985726D01*
X105317042Y-62162303D01*
X105288000Y-62345665D01*
X105288000Y-62531334D01*
X105317042Y-62714696D01*
X105317043Y-62714700D01*
X105374415Y-62891271D01*
X105458701Y-63056693D01*
X105567828Y-63206893D01*
X105699107Y-63338172D01*
X105849307Y-63447299D01*
X106014729Y-63531585D01*
X106191300Y-63588957D01*
X106191302Y-63588957D01*
X106195933Y-63590462D01*
X106195226Y-63592635D01*
X106247629Y-63622748D01*
X106279771Y-63684786D01*
X106273271Y-63754352D01*
X106230192Y-63809361D01*
X106195499Y-63825204D01*
X106195933Y-63826538D01*
X106191302Y-63828042D01*
X106191300Y-63828043D01*
X106014729Y-63885415D01*
X106014726Y-63885416D01*
X105849306Y-63969701D01*
X105763611Y-64031962D01*
X105699107Y-64078828D01*
X105699105Y-64078830D01*
X105699104Y-64078830D01*
X105567830Y-64210104D01*
X105567830Y-64210105D01*
X105567828Y-64210107D01*
X105520962Y-64274611D01*
X105458701Y-64360306D01*
X105374416Y-64525726D01*
X105317042Y-64702303D01*
X105288000Y-64885665D01*
X105288000Y-65071334D01*
X105317042Y-65254696D01*
X105317043Y-65254700D01*
X105374415Y-65431271D01*
X105458701Y-65596693D01*
X105567828Y-65746893D01*
X105699107Y-65878172D01*
X105849307Y-65987299D01*
X106014729Y-66071585D01*
X106191300Y-66128957D01*
X106260064Y-66139848D01*
X106374666Y-66158000D01*
X106374671Y-66158000D01*
X106560334Y-66158000D01*
X106662201Y-66141865D01*
X106743700Y-66128957D01*
X106920271Y-66071585D01*
X107085693Y-65987299D01*
X107235893Y-65878172D01*
X107367172Y-65746893D01*
X107476299Y-65596693D01*
X107560585Y-65431271D01*
X107617957Y-65254700D01*
X107630865Y-65173201D01*
X107647000Y-65071334D01*
X107647000Y-64885665D01*
X107617957Y-64702303D01*
X107617957Y-64702300D01*
X107560585Y-64525729D01*
X107476299Y-64360307D01*
X107367172Y-64210107D01*
X107235893Y-64078828D01*
X107085693Y-63969701D01*
X106920271Y-63885415D01*
X106743700Y-63828043D01*
X106743697Y-63828042D01*
X106739067Y-63826538D01*
X106739777Y-63824352D01*
X106687414Y-63794297D01*
X106655240Y-63732276D01*
X106661705Y-63662706D01*
X106704756Y-63607676D01*
X106739504Y-63591807D01*
X106739067Y-63590462D01*
X106743697Y-63588957D01*
X106743700Y-63588957D01*
X106920271Y-63531585D01*
X107085693Y-63447299D01*
X107235893Y-63338172D01*
X107367172Y-63206893D01*
X107476299Y-63056693D01*
X107560585Y-62891271D01*
X107617957Y-62714700D01*
X107630865Y-62633201D01*
X107647000Y-62531334D01*
X107647000Y-62345665D01*
X107617957Y-62162303D01*
X107617957Y-62162300D01*
X107560585Y-61985729D01*
X107476299Y-61820307D01*
X107367172Y-61670107D01*
X107235893Y-61538828D01*
X107085693Y-61429701D01*
X106920271Y-61345415D01*
X106743700Y-61288043D01*
X106743697Y-61288042D01*
X106739067Y-61286538D01*
X106739777Y-61284352D01*
X106687414Y-61254297D01*
X106655240Y-61192276D01*
X106661705Y-61122706D01*
X106704756Y-61067676D01*
X106739504Y-61051807D01*
X106739067Y-61050462D01*
X106743697Y-61048957D01*
X106743700Y-61048957D01*
X106920271Y-60991585D01*
X107085693Y-60907299D01*
X107235893Y-60798172D01*
X107367172Y-60666893D01*
X107476299Y-60516693D01*
X107560585Y-60351271D01*
X107617957Y-60174700D01*
X107630865Y-60093201D01*
X107647000Y-59991334D01*
X107647000Y-59805665D01*
X107617957Y-59622303D01*
X107617957Y-59622300D01*
X107560585Y-59445729D01*
X107476299Y-59280307D01*
X107367172Y-59130107D01*
X107235893Y-58998828D01*
X107085693Y-58889701D01*
X106920271Y-58805415D01*
X106743700Y-58748043D01*
X106743697Y-58748042D01*
X106739067Y-58746538D01*
X106739777Y-58744352D01*
X106687414Y-58714297D01*
X106655240Y-58652276D01*
X106661705Y-58582706D01*
X106704756Y-58527676D01*
X106739504Y-58511807D01*
X106739067Y-58510462D01*
X106743697Y-58508957D01*
X106743700Y-58508957D01*
X106920271Y-58451585D01*
X107085693Y-58367299D01*
X107235893Y-58258172D01*
X107367172Y-58126893D01*
X107476299Y-57976693D01*
X107560585Y-57811271D01*
X107617957Y-57634700D01*
X107630865Y-57553201D01*
X107647000Y-57451334D01*
X107647000Y-57358729D01*
X107666685Y-57291690D01*
X107719489Y-57245935D01*
X107788647Y-57235991D01*
X107852203Y-57265016D01*
X107858666Y-57271034D01*
X113302329Y-62714696D01*
X118725452Y-68137819D01*
X118758937Y-68199142D01*
X118753953Y-68268834D01*
X118712081Y-68324767D01*
X118646617Y-68349184D01*
X118637771Y-68349500D01*
X115736076Y-68349500D01*
X115707242Y-68355234D01*
X115707243Y-68355235D01*
X115591093Y-68378339D01*
X115591083Y-68378342D01*
X115511081Y-68411479D01*
X115511082Y-68411480D01*
X115454502Y-68434917D01*
X115405269Y-68467813D01*
X115331588Y-68517044D01*
X115331580Y-68517050D01*
X112297050Y-71551580D01*
X112297044Y-71551588D01*
X112247812Y-71625268D01*
X112247813Y-71625269D01*
X112214921Y-71674496D01*
X112214914Y-71674508D01*
X112158342Y-71811086D01*
X112158340Y-71811092D01*
X112129500Y-71956079D01*
X112129500Y-72897796D01*
X112109815Y-72964835D01*
X112093181Y-72985477D01*
X112040588Y-73038069D01*
X112040588Y-73038070D01*
X112040586Y-73038072D01*
X112033905Y-73047268D01*
X111938768Y-73178211D01*
X111860128Y-73332552D01*
X111806597Y-73497302D01*
X111779500Y-73668389D01*
X111779500Y-74391611D01*
X111806598Y-74562701D01*
X111860127Y-74727445D01*
X111938768Y-74881788D01*
X112040586Y-75021928D01*
X112163072Y-75144414D01*
X112303212Y-75246232D01*
X112457555Y-75324873D01*
X112622299Y-75378402D01*
X112793389Y-75405500D01*
X112793390Y-75405500D01*
X112966610Y-75405500D01*
X112966611Y-75405500D01*
X113137701Y-75378402D01*
X113302445Y-75324873D01*
X113456788Y-75246232D01*
X113596928Y-75144414D01*
X113704472Y-75036869D01*
X113765791Y-75003387D01*
X113835483Y-75008371D01*
X113891417Y-75050242D01*
X113897688Y-75059456D01*
X113937285Y-75123652D01*
X113937288Y-75123656D01*
X114061344Y-75247712D01*
X114210666Y-75339814D01*
X114377203Y-75394999D01*
X114479991Y-75405500D01*
X115280008Y-75405499D01*
X115280016Y-75405498D01*
X115280019Y-75405498D01*
X115336302Y-75399748D01*
X115382797Y-75394999D01*
X115549334Y-75339814D01*
X115698656Y-75247712D01*
X115822712Y-75123656D01*
X115914814Y-74974334D01*
X115969999Y-74807797D01*
X115980500Y-74705009D01*
X115980499Y-73354992D01*
X115969999Y-73252203D01*
X115914814Y-73085666D01*
X115822712Y-72936344D01*
X115698656Y-72812288D01*
X115549334Y-72720186D01*
X115382797Y-72665001D01*
X115382795Y-72665000D01*
X115280010Y-72654500D01*
X114479998Y-72654500D01*
X114479980Y-72654501D01*
X114377203Y-72665000D01*
X114377200Y-72665001D01*
X114210668Y-72720185D01*
X114210663Y-72720187D01*
X114061342Y-72812289D01*
X113937287Y-72936344D01*
X113897688Y-73000544D01*
X113845739Y-73047268D01*
X113776777Y-73058489D01*
X113712695Y-73030645D01*
X113704469Y-73023127D01*
X113666819Y-72985477D01*
X113633334Y-72924154D01*
X113630500Y-72897796D01*
X113630500Y-72392230D01*
X113650185Y-72325191D01*
X113666819Y-72304549D01*
X116084549Y-69886819D01*
X116145872Y-69853334D01*
X116172230Y-69850500D01*
X127378000Y-69850500D01*
X127445039Y-69870185D01*
X127490794Y-69922989D01*
X127502000Y-69974500D01*
X127502000Y-70265701D01*
X127504901Y-70302567D01*
X127504902Y-70302573D01*
X127550754Y-70460393D01*
X127550755Y-70460396D01*
X127634417Y-70601862D01*
X127634423Y-70601870D01*
X127750629Y-70718076D01*
X127750633Y-70718079D01*
X127750635Y-70718081D01*
X127892102Y-70801744D01*
X127933724Y-70813836D01*
X128049926Y-70847597D01*
X128049929Y-70847597D01*
X128049931Y-70847598D01*
X128086806Y-70850500D01*
X128086814Y-70850500D01*
X129243186Y-70850500D01*
X129243194Y-70850500D01*
X129280069Y-70847598D01*
X129280071Y-70847597D01*
X129280073Y-70847597D01*
X129445390Y-70799568D01*
X129446303Y-70802711D01*
X129500735Y-70795970D01*
X129563710Y-70826233D01*
X129568369Y-70830657D01*
X129608784Y-70871072D01*
X129608785Y-70871072D01*
X129615854Y-70878141D01*
X130512087Y-71774374D01*
X130512097Y-71774385D01*
X130516427Y-71778715D01*
X130516428Y-71778716D01*
X130628232Y-71890520D01*
X130679793Y-71920288D01*
X130715043Y-71940639D01*
X130715045Y-71940641D01*
X130741790Y-71956082D01*
X130765163Y-71969577D01*
X130917891Y-72010500D01*
X131150234Y-72010500D01*
X131217273Y-72030185D01*
X131219125Y-72031398D01*
X131350814Y-72119390D01*
X131350827Y-72119397D01*
X131496498Y-72179735D01*
X131496503Y-72179737D01*
X131651153Y-72210499D01*
X131651156Y-72210500D01*
X131651158Y-72210500D01*
X131808844Y-72210500D01*
X131808845Y-72210499D01*
X131963497Y-72179737D01*
X132109179Y-72119394D01*
X132240289Y-72031789D01*
X132351789Y-71920289D01*
X132439394Y-71789179D01*
X132499737Y-71643497D01*
X132530500Y-71488842D01*
X132530500Y-71331158D01*
X132530500Y-71331155D01*
X132530499Y-71331153D01*
X132499738Y-71176510D01*
X132499737Y-71176503D01*
X132499735Y-71176498D01*
X132439397Y-71030827D01*
X132439390Y-71030814D01*
X132351789Y-70899711D01*
X132351786Y-70899707D01*
X132240292Y-70788213D01*
X132240288Y-70788210D01*
X132177310Y-70746129D01*
X132132505Y-70692516D01*
X132123798Y-70623191D01*
X132153953Y-70560164D01*
X132158504Y-70555362D01*
X132635452Y-70078414D01*
X132673256Y-70021836D01*
X132717584Y-69955494D01*
X132761074Y-69850500D01*
X132774159Y-69818911D01*
X132803000Y-69673916D01*
X132803000Y-69526081D01*
X132803000Y-68623398D01*
X132786641Y-68541158D01*
X132774159Y-68478404D01*
X132727472Y-68365694D01*
X132717584Y-68341821D01*
X132682783Y-68289737D01*
X132682783Y-68289736D01*
X132635450Y-68218897D01*
X131983605Y-67567052D01*
X131983598Y-67567046D01*
X131910958Y-67518510D01*
X131910913Y-67518481D01*
X131909913Y-67517813D01*
X131860679Y-67484916D01*
X131855016Y-67482570D01*
X131854365Y-67481919D01*
X131847076Y-67477608D01*
X131847049Y-67477591D01*
X131712900Y-67398257D01*
X131712893Y-67398254D01*
X131555073Y-67352402D01*
X131555067Y-67352401D01*
X131518201Y-67349500D01*
X131518194Y-67349500D01*
X130361806Y-67349500D01*
X130361798Y-67349500D01*
X130324932Y-67352401D01*
X130324926Y-67352402D01*
X130167106Y-67398254D01*
X130167103Y-67398255D01*
X130025637Y-67481917D01*
X130025629Y-67481923D01*
X129909423Y-67598129D01*
X129909414Y-67598140D01*
X129909229Y-67598455D01*
X129909019Y-67598650D01*
X129904639Y-67604298D01*
X129903727Y-67603591D01*
X129858157Y-67646136D01*
X129789415Y-67658637D01*
X129724827Y-67631988D01*
X129700643Y-67604078D01*
X129700361Y-67604298D01*
X129696323Y-67599092D01*
X129695771Y-67598455D01*
X129695585Y-67598140D01*
X129695576Y-67598129D01*
X129579370Y-67481923D01*
X129579362Y-67481917D01*
X129440001Y-67399500D01*
X129437898Y-67398256D01*
X129437897Y-67398255D01*
X129437896Y-67398255D01*
X129437893Y-67398254D01*
X129280073Y-67352402D01*
X129280067Y-67352401D01*
X129243201Y-67349500D01*
X129243194Y-67349500D01*
X128086806Y-67349500D01*
X128086798Y-67349500D01*
X128049932Y-67352401D01*
X128049926Y-67352402D01*
X127904767Y-67394576D01*
X127870172Y-67399500D01*
X120161229Y-67399500D01*
X120094190Y-67379815D01*
X120073548Y-67363181D01*
X107683319Y-54972951D01*
X107649834Y-54911628D01*
X107647000Y-54885270D01*
X107647000Y-54725665D01*
X107625914Y-54592539D01*
X107617957Y-54542300D01*
X107560585Y-54365729D01*
X107476299Y-54200307D01*
X107367172Y-54050107D01*
X107235893Y-53918828D01*
X107085693Y-53809701D01*
X106920271Y-53725415D01*
X106743700Y-53668043D01*
X106743697Y-53668042D01*
X106739067Y-53666538D01*
X106739777Y-53664352D01*
X106687414Y-53634297D01*
X106655240Y-53572276D01*
X106661705Y-53502706D01*
X106704756Y-53447676D01*
X106739504Y-53431807D01*
X106739067Y-53430462D01*
X106743697Y-53428957D01*
X106743700Y-53428957D01*
X106920271Y-53371585D01*
X107085693Y-53287299D01*
X107235893Y-53178172D01*
X107367172Y-53046893D01*
X107476299Y-52896693D01*
X107560585Y-52731271D01*
X107617957Y-52554700D01*
X107630865Y-52473201D01*
X107647000Y-52371334D01*
X107647000Y-52185665D01*
X107617957Y-52002303D01*
X107617957Y-52002300D01*
X107560585Y-51825729D01*
X107476299Y-51660307D01*
X107367172Y-51510107D01*
X107235893Y-51378828D01*
X107085693Y-51269701D01*
X106920271Y-51185415D01*
X106743700Y-51128043D01*
X106743697Y-51128042D01*
X106739067Y-51126538D01*
X106739777Y-51124352D01*
X106687414Y-51094297D01*
X106655240Y-51032276D01*
X106661705Y-50962706D01*
X106704756Y-50907676D01*
X106739504Y-50891807D01*
X106739067Y-50890462D01*
X106743697Y-50888957D01*
X106743700Y-50888957D01*
X106920271Y-50831585D01*
X107085693Y-50747299D01*
X107235893Y-50638172D01*
X107367172Y-50506893D01*
X107476299Y-50356693D01*
X107560585Y-50191271D01*
X107617957Y-50014700D01*
X107630865Y-49933201D01*
X107647000Y-49831334D01*
X107647000Y-49645665D01*
X107617957Y-49462303D01*
X107617957Y-49462300D01*
X107560585Y-49285729D01*
X107476299Y-49120307D01*
X107397344Y-49011635D01*
X120528000Y-49011635D01*
X120528000Y-50465370D01*
X120528001Y-50465376D01*
X120534408Y-50524983D01*
X120584702Y-50659828D01*
X120584706Y-50659835D01*
X120670952Y-50775044D01*
X120670955Y-50775047D01*
X120786164Y-50861293D01*
X120786171Y-50861297D01*
X120921017Y-50911591D01*
X120921016Y-50911591D01*
X120927944Y-50912335D01*
X120980627Y-50918000D01*
X121294845Y-50917999D01*
X121361882Y-50937683D01*
X121407637Y-50990487D01*
X121417581Y-51059646D01*
X121388556Y-51123201D01*
X121333163Y-51159929D01*
X121254728Y-51185415D01*
X121089306Y-51269701D01*
X121003611Y-51331962D01*
X120939107Y-51378828D01*
X120939105Y-51378830D01*
X120939104Y-51378830D01*
X120807830Y-51510104D01*
X120807830Y-51510105D01*
X120807828Y-51510107D01*
X120760962Y-51574611D01*
X120698701Y-51660306D01*
X120614416Y-51825726D01*
X120557042Y-52002303D01*
X120528000Y-52185665D01*
X120528000Y-52371334D01*
X120557042Y-52554696D01*
X120557043Y-52554700D01*
X120614415Y-52731271D01*
X120698701Y-52896693D01*
X120807828Y-53046893D01*
X120939107Y-53178172D01*
X121089307Y-53287299D01*
X121254729Y-53371585D01*
X121431300Y-53428957D01*
X121431302Y-53428957D01*
X121435933Y-53430462D01*
X121435226Y-53432635D01*
X121487629Y-53462748D01*
X121519771Y-53524786D01*
X121513271Y-53594352D01*
X121470192Y-53649361D01*
X121435499Y-53665204D01*
X121435933Y-53666538D01*
X121431302Y-53668042D01*
X121431300Y-53668043D01*
X121254729Y-53725415D01*
X121254726Y-53725416D01*
X121089306Y-53809701D01*
X121003611Y-53871962D01*
X120939107Y-53918828D01*
X120939105Y-53918830D01*
X120939104Y-53918830D01*
X120807830Y-54050104D01*
X120807830Y-54050105D01*
X120807828Y-54050107D01*
X120760962Y-54114611D01*
X120698701Y-54200306D01*
X120614416Y-54365726D01*
X120557042Y-54542303D01*
X120528000Y-54725665D01*
X120528000Y-54911334D01*
X120557042Y-55094696D01*
X120557043Y-55094700D01*
X120614415Y-55271271D01*
X120698701Y-55436693D01*
X120807828Y-55586893D01*
X120939107Y-55718172D01*
X121089307Y-55827299D01*
X121254729Y-55911585D01*
X121431300Y-55968957D01*
X121431302Y-55968957D01*
X121435933Y-55970462D01*
X121435226Y-55972635D01*
X121487629Y-56002748D01*
X121519771Y-56064786D01*
X121513271Y-56134352D01*
X121470192Y-56189361D01*
X121435499Y-56205204D01*
X121435933Y-56206538D01*
X121431302Y-56208042D01*
X121431300Y-56208043D01*
X121254729Y-56265415D01*
X121254726Y-56265416D01*
X121089306Y-56349701D01*
X121003611Y-56411962D01*
X120939107Y-56458828D01*
X120939105Y-56458830D01*
X120939104Y-56458830D01*
X120807830Y-56590104D01*
X120807830Y-56590105D01*
X120807828Y-56590107D01*
X120760962Y-56654611D01*
X120698701Y-56740306D01*
X120614416Y-56905726D01*
X120557042Y-57082303D01*
X120528000Y-57265665D01*
X120528000Y-57451334D01*
X120557042Y-57634696D01*
X120557043Y-57634700D01*
X120614415Y-57811271D01*
X120698701Y-57976693D01*
X120807828Y-58126893D01*
X120939107Y-58258172D01*
X121089307Y-58367299D01*
X121254729Y-58451585D01*
X121431300Y-58508957D01*
X121431302Y-58508957D01*
X121435933Y-58510462D01*
X121435226Y-58512635D01*
X121487629Y-58542748D01*
X121519771Y-58604786D01*
X121513271Y-58674352D01*
X121470192Y-58729361D01*
X121435499Y-58745204D01*
X121435933Y-58746538D01*
X121431302Y-58748042D01*
X121431300Y-58748043D01*
X121254729Y-58805415D01*
X121254726Y-58805416D01*
X121089306Y-58889701D01*
X121003611Y-58951962D01*
X120939107Y-58998828D01*
X120939105Y-58998830D01*
X120939104Y-58998830D01*
X120807830Y-59130104D01*
X120807830Y-59130105D01*
X120807828Y-59130107D01*
X120760962Y-59194611D01*
X120698701Y-59280306D01*
X120614416Y-59445726D01*
X120557042Y-59622303D01*
X120528000Y-59805665D01*
X120528000Y-59991334D01*
X120557042Y-60174696D01*
X120557043Y-60174700D01*
X120614415Y-60351271D01*
X120698701Y-60516693D01*
X120807828Y-60666893D01*
X120939107Y-60798172D01*
X121089307Y-60907299D01*
X121254729Y-60991585D01*
X121431300Y-61048957D01*
X121431302Y-61048957D01*
X121435933Y-61050462D01*
X121435226Y-61052635D01*
X121487629Y-61082748D01*
X121519771Y-61144786D01*
X121513271Y-61214352D01*
X121470192Y-61269361D01*
X121435499Y-61285204D01*
X121435933Y-61286538D01*
X121431302Y-61288042D01*
X121431300Y-61288043D01*
X121254729Y-61345415D01*
X121254726Y-61345416D01*
X121089306Y-61429701D01*
X121076253Y-61439185D01*
X120939107Y-61538828D01*
X120939105Y-61538830D01*
X120939104Y-61538830D01*
X120807830Y-61670104D01*
X120807830Y-61670105D01*
X120807828Y-61670107D01*
X120799343Y-61681786D01*
X120698701Y-61820306D01*
X120614416Y-61985726D01*
X120557042Y-62162303D01*
X120528000Y-62345665D01*
X120528000Y-62531334D01*
X120557042Y-62714696D01*
X120557043Y-62714700D01*
X120614415Y-62891271D01*
X120698701Y-63056693D01*
X120807828Y-63206893D01*
X120939107Y-63338172D01*
X121089307Y-63447299D01*
X121254729Y-63531585D01*
X121431300Y-63588957D01*
X121431302Y-63588957D01*
X121435933Y-63590462D01*
X121435226Y-63592635D01*
X121487629Y-63622748D01*
X121519771Y-63684786D01*
X121513271Y-63754352D01*
X121470192Y-63809361D01*
X121435499Y-63825204D01*
X121435933Y-63826538D01*
X121431302Y-63828042D01*
X121431300Y-63828043D01*
X121254729Y-63885415D01*
X121254726Y-63885416D01*
X121089306Y-63969701D01*
X121003611Y-64031962D01*
X120939107Y-64078828D01*
X120939105Y-64078830D01*
X120939104Y-64078830D01*
X120807830Y-64210104D01*
X120807830Y-64210105D01*
X120807828Y-64210107D01*
X120760962Y-64274611D01*
X120698701Y-64360306D01*
X120614416Y-64525726D01*
X120557042Y-64702303D01*
X120528000Y-64885665D01*
X120528000Y-65071334D01*
X120557042Y-65254696D01*
X120557043Y-65254700D01*
X120614415Y-65431271D01*
X120698701Y-65596693D01*
X120807828Y-65746893D01*
X120939107Y-65878172D01*
X121089307Y-65987299D01*
X121254729Y-66071585D01*
X121431300Y-66128957D01*
X121500064Y-66139848D01*
X121614666Y-66158000D01*
X121614671Y-66158000D01*
X121800334Y-66158000D01*
X121902201Y-66141865D01*
X121983700Y-66128957D01*
X122160271Y-66071585D01*
X122325693Y-65987299D01*
X122475893Y-65878172D01*
X122607172Y-65746893D01*
X122716299Y-65596693D01*
X122800585Y-65431271D01*
X122857957Y-65254700D01*
X122870865Y-65173201D01*
X122887000Y-65071334D01*
X122887000Y-64885665D01*
X122857957Y-64702303D01*
X122857957Y-64702300D01*
X122800585Y-64525729D01*
X122716299Y-64360307D01*
X122607172Y-64210107D01*
X122475893Y-64078828D01*
X122325693Y-63969701D01*
X122160271Y-63885415D01*
X121983700Y-63828043D01*
X121983697Y-63828042D01*
X121979067Y-63826538D01*
X121979777Y-63824352D01*
X121927414Y-63794297D01*
X121895240Y-63732276D01*
X121901705Y-63662706D01*
X121944756Y-63607676D01*
X121979504Y-63591807D01*
X121979067Y-63590462D01*
X121983697Y-63588957D01*
X121983700Y-63588957D01*
X122160271Y-63531585D01*
X122325693Y-63447299D01*
X122475893Y-63338172D01*
X122607172Y-63206893D01*
X122716299Y-63056693D01*
X122800585Y-62891271D01*
X122857957Y-62714700D01*
X122870865Y-62633201D01*
X122887000Y-62531334D01*
X122887000Y-62345665D01*
X122857957Y-62162303D01*
X122857957Y-62162300D01*
X122800585Y-61985729D01*
X122716299Y-61820307D01*
X122607172Y-61670107D01*
X122475893Y-61538828D01*
X122325693Y-61429701D01*
X122160271Y-61345415D01*
X121983700Y-61288043D01*
X121983697Y-61288042D01*
X121979067Y-61286538D01*
X121979777Y-61284352D01*
X121927414Y-61254297D01*
X121895240Y-61192276D01*
X121901705Y-61122706D01*
X121944756Y-61067676D01*
X121979504Y-61051807D01*
X121979067Y-61050462D01*
X121983697Y-61048957D01*
X121983700Y-61048957D01*
X122160271Y-60991585D01*
X122325693Y-60907299D01*
X122475893Y-60798172D01*
X122607172Y-60666893D01*
X122716299Y-60516693D01*
X122800585Y-60351271D01*
X122857957Y-60174700D01*
X122870865Y-60093201D01*
X122887000Y-59991334D01*
X122887000Y-59805665D01*
X122857957Y-59622303D01*
X122857957Y-59622300D01*
X122800585Y-59445729D01*
X122716299Y-59280307D01*
X122607172Y-59130107D01*
X122475893Y-58998828D01*
X122325693Y-58889701D01*
X122160271Y-58805415D01*
X121983700Y-58748043D01*
X121983697Y-58748042D01*
X121979067Y-58746538D01*
X121979777Y-58744352D01*
X121927414Y-58714297D01*
X121895240Y-58652276D01*
X121901705Y-58582706D01*
X121944756Y-58527676D01*
X121979504Y-58511807D01*
X121979067Y-58510462D01*
X121983697Y-58508957D01*
X121983700Y-58508957D01*
X122160271Y-58451585D01*
X122325693Y-58367299D01*
X122475893Y-58258172D01*
X122607172Y-58126893D01*
X122716299Y-57976693D01*
X122800585Y-57811271D01*
X122857957Y-57634700D01*
X122870865Y-57553201D01*
X122887000Y-57451334D01*
X122887000Y-57265665D01*
X122857957Y-57082303D01*
X122857957Y-57082300D01*
X122800585Y-56905729D01*
X122716299Y-56740307D01*
X122607172Y-56590107D01*
X122475893Y-56458828D01*
X122325693Y-56349701D01*
X122160271Y-56265415D01*
X121983700Y-56208043D01*
X121983697Y-56208042D01*
X121979067Y-56206538D01*
X121979777Y-56204352D01*
X121927414Y-56174297D01*
X121895240Y-56112276D01*
X121901705Y-56042706D01*
X121944756Y-55987676D01*
X121979504Y-55971807D01*
X121979067Y-55970462D01*
X121983697Y-55968957D01*
X121983700Y-55968957D01*
X122160271Y-55911585D01*
X122325693Y-55827299D01*
X122475893Y-55718172D01*
X122607172Y-55586893D01*
X122716299Y-55436693D01*
X122800585Y-55271271D01*
X122857957Y-55094700D01*
X122875094Y-54986503D01*
X122887000Y-54911334D01*
X122887000Y-54725665D01*
X122865914Y-54592539D01*
X122857957Y-54542300D01*
X122800585Y-54365729D01*
X122716299Y-54200307D01*
X122607172Y-54050107D01*
X122475893Y-53918828D01*
X122325693Y-53809701D01*
X122160271Y-53725415D01*
X121983700Y-53668043D01*
X121983697Y-53668042D01*
X121979067Y-53666538D01*
X121979777Y-53664352D01*
X121927414Y-53634297D01*
X121895240Y-53572276D01*
X121901705Y-53502706D01*
X121944756Y-53447676D01*
X121979504Y-53431807D01*
X121979067Y-53430462D01*
X121983697Y-53428957D01*
X121983700Y-53428957D01*
X122160271Y-53371585D01*
X122325693Y-53287299D01*
X122475893Y-53178172D01*
X122607172Y-53046893D01*
X122716299Y-52896693D01*
X122800585Y-52731271D01*
X122857957Y-52554700D01*
X122870865Y-52473201D01*
X122887000Y-52371334D01*
X122887000Y-52185665D01*
X122857957Y-52002303D01*
X122857957Y-52002300D01*
X122800585Y-51825729D01*
X122716299Y-51660307D01*
X122607172Y-51510107D01*
X122475893Y-51378828D01*
X122325693Y-51269701D01*
X122160271Y-51185415D01*
X122081835Y-51159929D01*
X122024160Y-51120492D01*
X121996962Y-51056134D01*
X122008877Y-50987287D01*
X122056121Y-50935812D01*
X122120153Y-50917999D01*
X122434372Y-50917999D01*
X122493983Y-50911591D01*
X122628831Y-50861296D01*
X122744046Y-50775046D01*
X122830296Y-50659831D01*
X122880591Y-50524983D01*
X122887000Y-50465373D01*
X122886999Y-49011628D01*
X122880591Y-48952017D01*
X122838374Y-48838828D01*
X122830297Y-48817171D01*
X122830293Y-48817164D01*
X122744047Y-48701955D01*
X122744044Y-48701952D01*
X122628835Y-48615706D01*
X122628828Y-48615702D01*
X122493982Y-48565408D01*
X122493983Y-48565408D01*
X122434383Y-48559001D01*
X122434381Y-48559000D01*
X122434373Y-48559000D01*
X122434364Y-48559000D01*
X120980629Y-48559000D01*
X120980623Y-48559001D01*
X120921016Y-48565408D01*
X120786171Y-48615702D01*
X120786164Y-48615706D01*
X120670955Y-48701952D01*
X120670952Y-48701955D01*
X120584706Y-48817164D01*
X120584702Y-48817171D01*
X120534408Y-48952017D01*
X120528001Y-49011616D01*
X120528001Y-49011623D01*
X120528000Y-49011635D01*
X107397344Y-49011635D01*
X107367172Y-48970107D01*
X107235893Y-48838828D01*
X107085693Y-48729701D01*
X106920271Y-48645415D01*
X106743700Y-48588043D01*
X106743698Y-48588042D01*
X106743696Y-48588042D01*
X106560334Y-48559000D01*
X106560329Y-48559000D01*
X106374671Y-48559000D01*
X106374666Y-48559000D01*
X106191303Y-48588042D01*
X106014726Y-48645416D01*
X105849306Y-48729701D01*
X105763611Y-48791962D01*
X105699107Y-48838828D01*
X105699105Y-48838830D01*
X105699104Y-48838830D01*
X105567830Y-48970104D01*
X105567830Y-48970105D01*
X105567828Y-48970107D01*
X105537656Y-49011635D01*
X105458701Y-49120306D01*
X105374416Y-49285726D01*
X105317042Y-49462303D01*
X105288000Y-49645665D01*
X88210500Y-49645665D01*
X88210500Y-38540097D01*
X88230185Y-38473058D01*
X88246819Y-38452416D01*
X93473689Y-33225546D01*
X99284662Y-27414572D01*
X99345983Y-27381089D01*
X99348150Y-27380638D01*
X99406085Y-27369113D01*
X99503497Y-27349737D01*
X99649179Y-27289394D01*
X99780289Y-27201789D01*
X99891789Y-27090289D01*
X99979394Y-26959179D01*
X100039737Y-26813497D01*
X100070500Y-26658842D01*
X100070500Y-26501158D01*
X100070500Y-26501155D01*
X100070499Y-26501153D01*
X100053865Y-26417528D01*
X100039737Y-26346503D01*
X100039735Y-26346498D01*
X99979397Y-26200827D01*
X99979390Y-26200814D01*
X99891789Y-26069711D01*
X99891786Y-26069707D01*
X99780292Y-25958213D01*
X99780288Y-25958210D01*
X99649185Y-25870609D01*
X99649172Y-25870602D01*
X99503501Y-25810264D01*
X99503489Y-25810261D01*
X99348845Y-25779500D01*
X99348842Y-25779500D01*
X99191158Y-25779500D01*
X99191155Y-25779500D01*
X99036510Y-25810261D01*
X99036498Y-25810264D01*
X98890827Y-25870602D01*
X98890814Y-25870609D01*
X98759711Y-25958210D01*
X98759707Y-25958213D01*
X98648213Y-26069707D01*
X98648210Y-26069711D01*
X98560609Y-26200814D01*
X98560602Y-26200827D01*
X98500264Y-26346498D01*
X98500261Y-26346508D01*
X98469361Y-26501850D01*
X98436976Y-26563761D01*
X98435425Y-26565339D01*
X87129481Y-37871282D01*
X87129479Y-37871285D01*
X87079361Y-37958094D01*
X87079359Y-37958096D01*
X87050425Y-38008209D01*
X87050424Y-38008210D01*
X87050423Y-38008215D01*
X87009499Y-38160943D01*
X87009499Y-38160945D01*
X87009499Y-38329046D01*
X87009500Y-38329059D01*
X87009500Y-66940234D01*
X86989815Y-67007273D01*
X86988602Y-67009125D01*
X86900609Y-67140814D01*
X86900602Y-67140827D01*
X86840264Y-67286498D01*
X86840261Y-67286510D01*
X86809500Y-67441153D01*
X85930500Y-67441153D01*
X85930500Y-59190945D01*
X85930500Y-59190943D01*
X85889577Y-59038216D01*
X85866837Y-58998828D01*
X85810524Y-58901290D01*
X85810521Y-58901286D01*
X85810520Y-58901284D01*
X85698716Y-58789480D01*
X85698715Y-58789479D01*
X85694385Y-58785149D01*
X85694374Y-58785139D01*
X81357590Y-54448355D01*
X81357588Y-54448352D01*
X81238717Y-54329481D01*
X81238716Y-54329480D01*
X81151904Y-54279360D01*
X81151904Y-54279359D01*
X81151900Y-54279358D01*
X81101785Y-54250423D01*
X80949057Y-54209499D01*
X80790943Y-54209499D01*
X80783347Y-54209499D01*
X80783331Y-54209500D01*
X80226670Y-54209500D01*
X80226654Y-54209499D01*
X80219058Y-54209499D01*
X80060943Y-54209499D01*
X79984579Y-54229961D01*
X79908214Y-54250423D01*
X79908209Y-54250426D01*
X79771290Y-54329475D01*
X79771286Y-54329478D01*
X79715337Y-54385427D01*
X79654013Y-54418911D01*
X79651848Y-54419362D01*
X79496508Y-54450261D01*
X79496498Y-54450264D01*
X79350827Y-54510602D01*
X79350814Y-54510609D01*
X79219711Y-54598210D01*
X79219707Y-54598213D01*
X79108213Y-54709707D01*
X79108210Y-54709711D01*
X79020609Y-54840814D01*
X79020602Y-54840827D01*
X78960264Y-54986498D01*
X78960261Y-54986510D01*
X78929500Y-55141153D01*
X74754913Y-55141153D01*
X74790876Y-54569537D01*
X74791175Y-54565731D01*
X74906204Y-53348856D01*
X74906630Y-53345011D01*
X74917303Y-53260532D01*
X75059811Y-52132455D01*
X75060359Y-52128610D01*
X75209747Y-51185416D01*
X75251550Y-50921478D01*
X75252218Y-50917648D01*
X75481245Y-49717039D01*
X75482018Y-49713309D01*
X75748660Y-48520420D01*
X75749538Y-48516765D01*
X76053505Y-47332893D01*
X76054529Y-47329154D01*
X76395519Y-46155455D01*
X76396635Y-46151827D01*
X76774346Y-44989354D01*
X76775588Y-44985727D01*
X77189615Y-43835721D01*
X77190958Y-43832167D01*
X77640912Y-42695715D01*
X77642354Y-42692232D01*
X78127784Y-41570469D01*
X78129379Y-41566938D01*
X78649799Y-40460987D01*
X78651457Y-40457603D01*
X79206383Y-39368500D01*
X79208147Y-39365170D01*
X79797001Y-38294047D01*
X79798855Y-38290796D01*
X80421046Y-37238731D01*
X80423080Y-37235412D01*
X81077969Y-36203471D01*
X81080108Y-36200215D01*
X81767083Y-35189362D01*
X81769323Y-35186175D01*
X82487761Y-34197329D01*
X82489978Y-34194376D01*
X83239172Y-33228522D01*
X83241529Y-33225579D01*
X84020680Y-32283746D01*
X84023120Y-32280889D01*
X84831451Y-31364018D01*
X84834016Y-31361200D01*
X85670727Y-30470194D01*
X85673375Y-30467462D01*
X86537646Y-29603191D01*
X86540378Y-29600543D01*
X87431384Y-28763832D01*
X87434202Y-28761267D01*
X88351073Y-27952936D01*
X88353930Y-27950496D01*
X89295763Y-27171345D01*
X89298706Y-27168988D01*
X90264560Y-26419794D01*
X90267513Y-26417577D01*
X91256367Y-25699132D01*
X91259546Y-25696899D01*
X92270409Y-25009917D01*
X92273655Y-25007785D01*
X92291843Y-24996243D01*
X92957643Y-24573713D01*
X108209500Y-24573713D01*
X108209500Y-24786287D01*
X108242754Y-24996243D01*
X108247199Y-25009924D01*
X108308444Y-25198414D01*
X108404951Y-25387820D01*
X108529890Y-25559786D01*
X108680213Y-25710109D01*
X108852179Y-25835048D01*
X108852181Y-25835049D01*
X108852184Y-25835051D01*
X109041588Y-25931557D01*
X109243757Y-25997246D01*
X109453713Y-26030500D01*
X109453714Y-26030500D01*
X109666286Y-26030500D01*
X109666287Y-26030500D01*
X109876243Y-25997246D01*
X110078412Y-25931557D01*
X110267816Y-25835051D01*
X110344276Y-25779500D01*
X110439786Y-25710109D01*
X110439788Y-25710106D01*
X110439792Y-25710104D01*
X110590104Y-25559792D01*
X110590106Y-25559788D01*
X110590109Y-25559786D01*
X110715048Y-25387820D01*
X110715047Y-25387820D01*
X110715051Y-25387816D01*
X110811557Y-25198412D01*
X110877246Y-24996243D01*
X110910500Y-24786287D01*
X110910500Y-24573713D01*
X110877246Y-24363757D01*
X110811557Y-24161588D01*
X110715051Y-23972184D01*
X110715049Y-23972181D01*
X110715048Y-23972179D01*
X110590109Y-23800213D01*
X110439786Y-23649890D01*
X110267820Y-23524951D01*
X110078414Y-23428444D01*
X110078413Y-23428443D01*
X110078412Y-23428443D01*
X109876243Y-23362754D01*
X109876241Y-23362753D01*
X109876240Y-23362753D01*
X109714957Y-23337208D01*
X109666287Y-23329500D01*
X109453713Y-23329500D01*
X109405042Y-23337208D01*
X109243760Y-23362753D01*
X109041585Y-23428444D01*
X108852179Y-23524951D01*
X108680213Y-23649890D01*
X108529890Y-23800213D01*
X108404951Y-23972179D01*
X108308444Y-24161585D01*
X108242753Y-24363760D01*
X108226854Y-24464144D01*
X108209500Y-24573713D01*
X92957643Y-24573713D01*
X93305598Y-24352894D01*
X93308917Y-24350861D01*
X94360980Y-23728671D01*
X94364231Y-23726817D01*
X95435354Y-23137963D01*
X95438684Y-23136199D01*
X96527787Y-22581273D01*
X96531171Y-22579615D01*
X97637141Y-22059186D01*
X97640653Y-22057600D01*
X98762416Y-21572170D01*
X98765899Y-21570728D01*
X99902351Y-21120774D01*
X99905905Y-21119431D01*
X101055911Y-20705404D01*
X101059538Y-20704162D01*
X102222011Y-20326451D01*
X102225639Y-20325335D01*
X103399356Y-19984339D01*
X103403077Y-19983321D01*
X104586949Y-19679354D01*
X104590604Y-19678476D01*
X105783493Y-19411834D01*
X105787223Y-19411061D01*
X106987838Y-19182032D01*
X106991662Y-19181366D01*
X108198806Y-18990173D01*
X108202639Y-18989627D01*
X109415216Y-18836443D01*
X109419040Y-18836020D01*
X110635915Y-18720991D01*
X110639721Y-18720692D01*
X111859530Y-18643948D01*
X111863375Y-18643767D01*
X113085013Y-18605376D01*
X113088908Y-18605315D01*
X114311092Y-18605315D01*
X114314987Y-18605376D01*
G37*
%TD.AperFunction*%
M02*
