%TF.GenerationSoftware,KiCad,Pcbnew,10.0.0*%
%TF.CreationDate,2026-07-02T21:12:40+08:00*%
%TF.ProjectId,carrrrdddd,63617272-7272-4646-9464-642e6b696361,rev?*%
%TF.SameCoordinates,Original*%
%TF.FileFunction,Copper,L1,Top*%
%TF.FilePolarity,Positive*%
%FSLAX46Y46*%
G04 Gerber Fmt 4.6, Leading zero omitted, Abs format (unit mm)*
G04 Created by KiCad (PCBNEW 10.0.0) date 2026-07-02 21:12:40*
%MOMM*%
%LPD*%
G01*
G04 APERTURE LIST*
G04 Aperture macros list*
%AMRoundRect*
0 Rectangle with rounded corners*
0 $1 Rounding radius*
0 $2 $3 $4 $5 $6 $7 $8 $9 X,Y pos of 4 corners*
0 Add a 4 corners polygon primitive as box body*
4,1,4,$2,$3,$4,$5,$6,$7,$8,$9,$2,$3,0*
0 Add four circle primitives for the rounded corners*
1,1,$1+$1,$2,$3*
1,1,$1+$1,$4,$5*
1,1,$1+$1,$6,$7*
1,1,$1+$1,$8,$9*
0 Add four rect primitives between the rounded corners*
20,1,$1+$1,$2,$3,$4,$5,0*
20,1,$1+$1,$4,$5,$6,$7,0*
20,1,$1+$1,$6,$7,$8,$9,0*
20,1,$1+$1,$8,$9,$2,$3,0*%
G04 Aperture macros list end*
%TA.AperFunction,SMDPad,CuDef*%
%ADD10RoundRect,0.218750X-0.300161X-0.153032X0.104036X-0.320456X0.300161X0.153032X-0.104036X0.320456X0*%
%TD*%
%TA.AperFunction,SMDPad,CuDef*%
%ADD11RoundRect,0.218750X-0.218750X-0.256250X0.218750X-0.256250X0.218750X0.256250X-0.218750X0.256250X0*%
%TD*%
%TA.AperFunction,SMDPad,CuDef*%
%ADD12RoundRect,0.200000X0.053033X-0.335876X0.335876X-0.053033X-0.053033X0.335876X-0.335876X0.053033X0*%
%TD*%
%TA.AperFunction,SMDPad,CuDef*%
%ADD13RoundRect,0.218750X-0.026517X0.335876X-0.335876X0.026517X0.026517X-0.335876X0.335876X-0.026517X0*%
%TD*%
%TA.AperFunction,SMDPad,CuDef*%
%ADD14RoundRect,0.200000X-0.079538X-0.330604X0.290014X-0.177530X0.079538X0.330604X-0.290014X0.177530X0*%
%TD*%
%TA.AperFunction,SMDPad,CuDef*%
%ADD15RoundRect,0.200000X-0.177530X0.290014X-0.330604X-0.079538X0.177530X-0.290014X0.330604X0.079538X0*%
%TD*%
%TA.AperFunction,SMDPad,CuDef*%
%ADD16RoundRect,0.218750X0.335876X0.026517X0.026517X0.335876X-0.335876X-0.026517X-0.026517X-0.335876X0*%
%TD*%
%TA.AperFunction,SMDPad,CuDef*%
%ADD17RoundRect,0.218750X-0.335876X-0.026517X-0.026517X-0.335876X0.335876X0.026517X0.026517X0.335876X0*%
%TD*%
%TA.AperFunction,SMDPad,CuDef*%
%ADD18RoundRect,0.218750X0.104036X0.320456X-0.300161X0.153032X-0.104036X-0.320456X0.300161X-0.153032X0*%
%TD*%
%TA.AperFunction,SMDPad,CuDef*%
%ADD19RoundRect,0.218750X0.300161X0.153032X-0.104036X0.320456X-0.300161X-0.153032X0.104036X-0.320456X0*%
%TD*%
%TA.AperFunction,SMDPad,CuDef*%
%ADD20RoundRect,0.218750X-0.153032X0.300161X-0.320456X-0.104036X0.153032X-0.300161X0.320456X0.104036X0*%
%TD*%
%TA.AperFunction,SMDPad,CuDef*%
%ADD21RoundRect,0.218750X-0.320456X0.104036X-0.153032X-0.300161X0.320456X-0.104036X0.153032X0.300161X0*%
%TD*%
%TA.AperFunction,SMDPad,CuDef*%
%ADD22RoundRect,0.200000X-0.275000X0.200000X-0.275000X-0.200000X0.275000X-0.200000X0.275000X0.200000X0*%
%TD*%
%TA.AperFunction,SMDPad,CuDef*%
%ADD23RoundRect,0.200000X0.275000X-0.200000X0.275000X0.200000X-0.275000X0.200000X-0.275000X-0.200000X0*%
%TD*%
%TA.AperFunction,SMDPad,CuDef*%
%ADD24RoundRect,0.218750X-0.104036X-0.320456X0.300161X-0.153032X0.104036X0.320456X-0.300161X0.153032X0*%
%TD*%
%TA.AperFunction,SMDPad,CuDef*%
%ADD25RoundRect,0.218750X0.026517X-0.335876X0.335876X-0.026517X-0.026517X0.335876X-0.335876X0.026517X0*%
%TD*%
%TA.AperFunction,SMDPad,CuDef*%
%ADD26RoundRect,0.200000X-0.200000X-0.275000X0.200000X-0.275000X0.200000X0.275000X-0.200000X0.275000X0*%
%TD*%
%TA.AperFunction,SMDPad,CuDef*%
%ADD27RoundRect,0.218750X-0.256250X0.218750X-0.256250X-0.218750X0.256250X-0.218750X0.256250X0.218750X0*%
%TD*%
%TA.AperFunction,SMDPad,CuDef*%
%ADD28RoundRect,0.200000X-0.290014X-0.177530X0.079538X-0.330604X0.290014X0.177530X-0.079538X0.330604X0*%
%TD*%
%TA.AperFunction,SMDPad,CuDef*%
%ADD29RoundRect,0.200000X0.335876X0.053033X0.053033X0.335876X-0.335876X-0.053033X-0.053033X-0.335876X0*%
%TD*%
%TA.AperFunction,SMDPad,CuDef*%
%ADD30RoundRect,0.200000X0.290014X0.177530X-0.079538X0.330604X-0.290014X-0.177530X0.079538X-0.330604X0*%
%TD*%
%TA.AperFunction,SMDPad,CuDef*%
%ADD31RoundRect,0.218750X0.256250X-0.218750X0.256250X0.218750X-0.256250X0.218750X-0.256250X-0.218750X0*%
%TD*%
%TA.AperFunction,SMDPad,CuDef*%
%ADD32RoundRect,0.218750X0.320456X-0.104036X0.153032X0.300161X-0.320456X0.104036X-0.153032X-0.300161X0*%
%TD*%
%TA.AperFunction,SMDPad,CuDef*%
%ADD33RoundRect,0.200000X-0.053033X0.335876X-0.335876X0.053033X0.053033X-0.335876X0.335876X-0.053033X0*%
%TD*%
%TA.AperFunction,SMDPad,CuDef*%
%ADD34RoundRect,0.200000X0.330604X-0.079538X0.177530X0.290014X-0.330604X0.079538X-0.177530X-0.290014X0*%
%TD*%
%TA.AperFunction,SMDPad,CuDef*%
%ADD35RoundRect,0.218750X0.153032X-0.300161X0.320456X0.104036X-0.153032X0.300161X-0.320456X-0.104036X0*%
%TD*%
%TA.AperFunction,SMDPad,CuDef*%
%ADD36RoundRect,0.200000X-0.330604X0.079538X-0.177530X-0.290014X0.330604X-0.079538X0.177530X0.290014X0*%
%TD*%
%TA.AperFunction,SMDPad,CuDef*%
%ADD37RoundRect,0.200000X0.177530X-0.290014X0.330604X0.079538X-0.177530X0.290014X-0.330604X-0.079538X0*%
%TD*%
%TA.AperFunction,SMDPad,CuDef*%
%ADD38RoundRect,0.200000X-0.335876X-0.053033X-0.053033X-0.335876X0.335876X0.053033X0.053033X0.335876X0*%
%TD*%
%TA.AperFunction,SMDPad,CuDef*%
%ADD39RoundRect,0.200000X0.079538X0.330604X-0.290014X0.177530X-0.079538X-0.330604X0.290014X-0.177530X0*%
%TD*%
%TA.AperFunction,SMDPad,CuDef*%
%ADD40RoundRect,0.218750X0.218750X0.256250X-0.218750X0.256250X-0.218750X-0.256250X0.218750X-0.256250X0*%
%TD*%
%TA.AperFunction,SMDPad,CuDef*%
%ADD41RoundRect,0.200000X0.200000X0.275000X-0.200000X0.275000X-0.200000X-0.275000X0.200000X-0.275000X0*%
%TD*%
%TA.AperFunction,ComponentPad*%
%ADD42RoundRect,0.250000X0.350000X0.625000X-0.350000X0.625000X-0.350000X-0.625000X0.350000X-0.625000X0*%
%TD*%
%TA.AperFunction,ComponentPad*%
%ADD43O,1.200000X1.750000*%
%TD*%
%TA.AperFunction,ComponentPad*%
%ADD44R,1.358000X1.358000*%
%TD*%
%TA.AperFunction,ComponentPad*%
%ADD45C,1.358000*%
%TD*%
%TA.AperFunction,ViaPad*%
%ADD46C,0.600000*%
%TD*%
%TA.AperFunction,Conductor*%
%ADD47C,0.500000*%
%TD*%
%TA.AperFunction,Conductor*%
%ADD48C,0.200000*%
%TD*%
G04 APERTURE END LIST*
D10*
%TO.P,D11,1,K_1*%
%TO.N,GND*%
X127197474Y-23720034D03*
%TO.P,D11,2,A_2*%
%TO.N,Net-(D11-A)*%
X128652584Y-24322760D03*
%TD*%
D11*
%TO.P,D10,1,K_1*%
%TO.N,GND*%
X113428661Y-21294534D03*
%TO.P,D10,2,A_2*%
%TO.N,Net-(D10-A)*%
X115003661Y-21294534D03*
%TD*%
D12*
%TO.P,R12,1*%
%TO.N,Net-(D12-A)*%
X96146637Y-40043363D03*
%TO.P,R12,2*%
%TO.N,GPIO3*%
X97313363Y-38876637D03*
%TD*%
D13*
%TO.P,D16,1,K_1*%
%TO.N,GND*%
X140103694Y-81891373D03*
%TO.P,D16,2,A_2*%
%TO.N,Net-(D16-A)*%
X138990000Y-83005067D03*
%TD*%
D14*
%TO.P,R13,1*%
%TO.N,Net-(D13-A)*%
X104345383Y-34177991D03*
%TO.P,R13,2*%
%TO.N,GPIO4*%
X105869785Y-33546563D03*
%TD*%
D15*
%TO.P,R3,1*%
%TO.N,Net-(D3-A)*%
X139162674Y-66839452D03*
%TO.P,R3,2*%
%TO.N,GPIO1*%
X138531246Y-68363854D03*
%TD*%
D16*
%TO.P,D4,1,K_1*%
%TO.N,GND*%
X89442321Y-83005067D03*
%TO.P,D4,2,A_2*%
%TO.N,Net-(D4-A)*%
X88328627Y-81891373D03*
%TD*%
D17*
%TO.P,D12,1,K_1*%
%TO.N,GND*%
X138990000Y-31230000D03*
%TO.P,D12,2,A_2*%
%TO.N,Net-(D12-A)*%
X140103694Y-32343694D03*
%TD*%
D18*
%TO.P,D1,1,K_1*%
%TO.N,GND*%
X128652584Y-89912307D03*
%TO.P,D1,2,A_2*%
%TO.N,Net-(D1-A)*%
X127197474Y-90515033D03*
%TD*%
D19*
%TO.P,D3,1,K_1*%
%TO.N,GND*%
X101234847Y-90515033D03*
%TO.P,D3,2,A_2*%
%TO.N,Net-(D3-A)*%
X99779737Y-89912307D03*
%TD*%
D20*
%TO.P,D15,1,K_1*%
%TO.N,GND*%
X147613660Y-70098847D03*
%TO.P,D15,2,A_2*%
%TO.N,Net-(D15-A)*%
X147010934Y-71553957D03*
%TD*%
D21*
%TO.P,D13,1,K_1*%
%TO.N,GND*%
X147010934Y-42681110D03*
%TO.P,D13,2,A_2*%
%TO.N,Net-(D13-A)*%
X147613660Y-44136220D03*
%TD*%
D22*
%TO.P,R2,1*%
%TO.N,Net-(D2-A)*%
X140812619Y-56894619D03*
%TO.P,R2,2*%
%TO.N,GPIO1*%
X140812619Y-58544619D03*
%TD*%
D23*
%TO.P,R10,1*%
%TO.N,Net-(D10-A)*%
X89166619Y-58544619D03*
%TO.P,R10,2*%
%TO.N,GPIO3*%
X89166619Y-56894619D03*
%TD*%
D24*
%TO.P,D9,1,K_1*%
%TO.N,GND*%
X99779737Y-24322760D03*
%TO.P,D9,2,A_2*%
%TO.N,Net-(D9-A)*%
X101234847Y-23720034D03*
%TD*%
D25*
%TO.P,D8,1,K_1*%
%TO.N,GND*%
X88328627Y-32343694D03*
%TO.P,D8,2,A_2*%
%TO.N,Net-(D8-A)*%
X89442321Y-31230000D03*
%TD*%
D26*
%TO.P,R14,1*%
%TO.N,Net-(D14-A)*%
X114164619Y-31896619D03*
%TO.P,R14,2*%
%TO.N,GPIO4*%
X115814619Y-31896619D03*
%TD*%
D27*
%TO.P,D14,1,K_1*%
%TO.N,GND*%
X150039161Y-56330034D03*
%TO.P,D14,2,A_2*%
%TO.N,Net-(D14-A)*%
X150039161Y-57905034D03*
%TD*%
D28*
%TO.P,R15,1*%
%TO.N,Net-(D15-A)*%
X124109452Y-33546563D03*
%TO.P,R15,2*%
%TO.N,GPIO4*%
X125633854Y-34177991D03*
%TD*%
D29*
%TO.P,R8,1*%
%TO.N,Net-(D8-A)*%
X97313363Y-76562600D03*
%TO.P,R8,2*%
%TO.N,GPIO2*%
X96146637Y-75395874D03*
%TD*%
D30*
%TO.P,R7,1*%
%TO.N,Net-(D7-A)*%
X105869785Y-81892674D03*
%TO.P,R7,2*%
%TO.N,GPIO2*%
X104345383Y-81261246D03*
%TD*%
D31*
%TO.P,D6,1,K_1*%
%TO.N,GND*%
X78393161Y-57905034D03*
%TO.P,D6,2,A_2*%
%TO.N,Net-(D6-A)*%
X78393161Y-56330034D03*
%TD*%
D32*
%TO.P,D5,1,K_1*%
%TO.N,GND*%
X81421387Y-71553957D03*
%TO.P,D5,2,A_2*%
%TO.N,Net-(D5-A)*%
X80818661Y-70098847D03*
%TD*%
D33*
%TO.P,R4,1*%
%TO.N,Net-(D4-A)*%
X133832600Y-75395874D03*
%TO.P,R4,2*%
%TO.N,GPIO1*%
X132665874Y-76562600D03*
%TD*%
D34*
%TO.P,R9,1*%
%TO.N,Net-(D9-A)*%
X91447991Y-68363854D03*
%TO.P,R9,2*%
%TO.N,GPIO3*%
X90816563Y-66839452D03*
%TD*%
D35*
%TO.P,D7,1,K_1*%
%TO.N,GND*%
X80818661Y-44136220D03*
%TO.P,D7,2,A_2*%
%TO.N,Net-(D7-A)*%
X81421387Y-42681110D03*
%TD*%
D36*
%TO.P,R1,1*%
%TO.N,Net-(D1-A)*%
X138531246Y-47075383D03*
%TO.P,R1,2*%
%TO.N,GPIO1*%
X139162674Y-48599785D03*
%TD*%
D37*
%TO.P,R11,1*%
%TO.N,Net-(D11-A)*%
X90816563Y-48599785D03*
%TO.P,R11,2*%
%TO.N,GPIO3*%
X91447991Y-47075383D03*
%TD*%
D38*
%TO.P,R16,1*%
%TO.N,Net-(D16-A)*%
X132665874Y-38876637D03*
%TO.P,R16,2*%
%TO.N,GPIO4*%
X133832600Y-40043363D03*
%TD*%
D39*
%TO.P,R5,1*%
%TO.N,Net-(D5-A)*%
X125633854Y-81261246D03*
%TO.P,R5,2*%
%TO.N,GPIO2*%
X124109452Y-81892674D03*
%TD*%
D40*
%TO.P,D2,1,K_1*%
%TO.N,GND*%
X115003661Y-92940534D03*
%TO.P,D2,2,A_2*%
%TO.N,Net-(D2-A)*%
X113428661Y-92940534D03*
%TD*%
D41*
%TO.P,R6,1*%
%TO.N,Net-(D6-A)*%
X115814619Y-83542619D03*
%TO.P,R6,2*%
%TO.N,GPIO2*%
X114164619Y-83542619D03*
%TD*%
D42*
%TO.P,BT1,1,+_1*%
%TO.N,battery_positive*%
X114880000Y-74030000D03*
D43*
%TO.P,BT1,2,-_2*%
%TO.N,GND*%
X112880000Y-74030000D03*
%TD*%
D44*
%TO.P,U2,1,D0_1*%
%TO.N,GPIO4*%
X121707500Y-49738500D03*
D45*
%TO.P,U2,2,D1_2*%
%TO.N,GPIO3*%
X121707500Y-52278500D03*
%TO.P,U2,3,D2_3*%
%TO.N,GPIO2*%
X121707500Y-54818500D03*
%TO.P,U2,4,D3_4*%
%TO.N,GPIO1*%
X121707500Y-57358500D03*
%TO.P,U2,5,D4_5*%
%TO.N,unconnected-(U2-D4-Pad5)*%
X121707500Y-59898500D03*
%TO.P,U2,6,D5_6*%
%TO.N,unconnected-(U2-D5-Pad6)*%
X121707500Y-62438500D03*
%TO.P,U2,7,TX_D6_7*%
%TO.N,unconnected-(U2-TX_D6-Pad7)*%
X121707500Y-64978500D03*
%TO.P,U2,8,RX_D7_8*%
%TO.N,unconnected-(U2-RX_D7-Pad8)*%
X106467500Y-64978500D03*
%TO.P,U2,9,D8_9*%
%TO.N,unconnected-(U2-D8-Pad9)*%
X106467500Y-62438500D03*
%TO.P,U2,10,D9_10*%
%TO.N,unconnected-(U2-D9-Pad10)*%
X106467500Y-59898500D03*
%TO.P,U2,11,D10_11*%
%TO.N,unconnected-(U2-D10-Pad11)*%
X106467500Y-57358500D03*
%TO.P,U2,12,VCC_3V3_12*%
%TO.N,3.3v*%
X106467500Y-54818500D03*
%TO.P,U2,13,GND_13*%
%TO.N,GND*%
X106467500Y-52278500D03*
%TO.P,U2,14,VUSB_14*%
%TO.N,unconnected-(U2-VUSB-Pad14)*%
X106467500Y-49738500D03*
%TD*%
D46*
%TO.N,battery_positive*%
X130940000Y-70050000D03*
%TO.N,GND*%
X131760000Y-77610000D03*
X132230000Y-79310000D03*
X131730000Y-71410000D03*
%TO.N,Net-(D1-A)*%
X140030000Y-46900000D03*
X127410000Y-88900000D03*
%TO.N,Net-(D2-A)*%
X139762674Y-55450000D03*
X139590000Y-61060000D03*
X139830000Y-70350000D03*
X131970000Y-81900000D03*
%TO.N,Net-(D3-A)*%
X100100000Y-87950000D03*
X139830000Y-68620000D03*
%TO.N,Net-(D5-A)*%
X89320000Y-72050000D03*
X124290000Y-80260000D03*
%TO.N,Net-(D6-A)*%
X79730000Y-55220000D03*
X115120000Y-82180000D03*
%TO.N,Net-(D9-A)*%
X99270000Y-26580000D03*
X87610000Y-67520000D03*
%TO.N,Net-(D14-A)*%
X147160000Y-57370000D03*
X114800000Y-30080000D03*
%TD*%
%TO.N,battery_positive*%
D47*
X116260000Y-70050000D02*
X130940000Y-70050000D01*
X114880000Y-74030000D02*
X114880000Y-71430000D01*
X114880000Y-71430000D02*
X116260000Y-70050000D01*
%TO.N,GND*%
D48*
X87890000Y-30640000D02*
X87890000Y-31905067D01*
X114203661Y-20519534D02*
X113428661Y-21294534D01*
X140103694Y-82987389D02*
X139227105Y-83863978D01*
X150814161Y-57105034D02*
X150039161Y-56330034D01*
X104435348Y-93715534D02*
X114228661Y-93715534D01*
X113428661Y-21294534D02*
X102075466Y-21294534D01*
X131760000Y-77610000D02*
X131760000Y-71440000D01*
X99779737Y-23590263D02*
X99779737Y-24322760D01*
X136783978Y-83863978D02*
X132230000Y-79310000D01*
X87890000Y-31905067D02*
X88328627Y-32343694D01*
X147551110Y-42681110D02*
X147010934Y-42681110D01*
X127197474Y-23720034D02*
X123996974Y-20519534D01*
X88328627Y-32343694D02*
X80455112Y-40217209D01*
X150039161Y-45169161D02*
X147551110Y-42681110D01*
X101234847Y-90515033D02*
X104435348Y-93715534D01*
X127561023Y-23356485D02*
X127197474Y-23720034D01*
X80455112Y-40217209D02*
X80455112Y-43772671D01*
X88346305Y-83005067D02*
X89442321Y-83005067D01*
X80455112Y-43772671D02*
X80818661Y-44136220D01*
X140100000Y-31230000D02*
X138990000Y-31230000D01*
X139227105Y-83863978D02*
X136783978Y-83863978D01*
X81080894Y-71553957D02*
X81421387Y-71553957D01*
X140103694Y-82987388D02*
X140103694Y-81891373D01*
X78393161Y-68866224D02*
X81080894Y-71553957D01*
X128652584Y-90252800D02*
X128652584Y-89912307D01*
D47*
X112880000Y-58691000D02*
X106467500Y-52278500D01*
D48*
X150814161Y-66898346D02*
X150814161Y-57105034D01*
D47*
X112880000Y-74030000D02*
X112880000Y-58691000D01*
D48*
X147010934Y-42681110D02*
X147010934Y-38140934D01*
X128652584Y-89912307D02*
X133178775Y-89912307D01*
X131116485Y-23356485D02*
X127561023Y-23356485D01*
X140103694Y-81891373D02*
X147977209Y-74017858D01*
X140103694Y-81891373D02*
X140103694Y-82987389D01*
X115003661Y-92940534D02*
X125964850Y-92940534D01*
X102075466Y-21294534D02*
X99779737Y-23590263D01*
X80818661Y-55479534D02*
X78393161Y-57905034D01*
X78393161Y-57905034D02*
X78393161Y-68866224D01*
X123996974Y-20519534D02*
X114203661Y-20519534D01*
X147977209Y-74017858D02*
X147977209Y-70462396D01*
X81421387Y-76080149D02*
X88346305Y-83005067D01*
X89442321Y-83005067D02*
X97315836Y-90878582D01*
X80818661Y-44136220D02*
X80818661Y-55479534D01*
X138990000Y-31230000D02*
X131116485Y-23356485D01*
X147613660Y-70098847D02*
X150814161Y-66898346D01*
X81421387Y-71553957D02*
X81421387Y-76080149D01*
X150039161Y-56330034D02*
X150039161Y-45169161D01*
X100871298Y-90878582D02*
X101234847Y-90515033D01*
X147010934Y-38140934D02*
X140100000Y-31230000D01*
X125964850Y-92940534D02*
X128652584Y-90252800D01*
X147977209Y-70462396D02*
X147613660Y-70098847D01*
X131760000Y-71440000D02*
X131730000Y-71410000D01*
X114228661Y-93715534D02*
X115003661Y-92940534D01*
X133178775Y-89912307D02*
X140103694Y-82987388D01*
X97315836Y-90878582D02*
X100871298Y-90878582D01*
X94207240Y-24322760D02*
X87890000Y-30640000D01*
X99779737Y-24322760D02*
X94207240Y-24322760D01*
%TO.N,Net-(D1-A)*%
X138706629Y-46900000D02*
X138531246Y-47075383D01*
X127197474Y-90515033D02*
X127197474Y-89112526D01*
X127197474Y-89112526D02*
X127410000Y-88900000D01*
X140030000Y-46900000D02*
X138706629Y-46900000D01*
%TO.N,Net-(D2-A)*%
X128752381Y-85117619D02*
X131970000Y-81900000D01*
X140430000Y-61900000D02*
X139590000Y-61060000D01*
X121251576Y-85117619D02*
X128752381Y-85117619D01*
X139830000Y-70350000D02*
X140430000Y-69750000D01*
X113428661Y-92940534D02*
X121251576Y-85117619D01*
X139762674Y-55844674D02*
X140812619Y-56894619D01*
X139762674Y-55450000D02*
X139762674Y-55844674D01*
X140430000Y-69750000D02*
X140430000Y-61900000D01*
%TO.N,Net-(D3-A)*%
X139830000Y-67506778D02*
X139162674Y-66839452D01*
X99779737Y-88270263D02*
X100100000Y-87950000D01*
X139830000Y-68620000D02*
X139830000Y-67506778D01*
X99779737Y-89912307D02*
X99779737Y-88270263D01*
%TO.N,Net-(D4-A)*%
X97300000Y-79340000D02*
X90750000Y-79340000D01*
X125606873Y-84717619D02*
X102677619Y-84717619D01*
X133832600Y-75395874D02*
X133832600Y-76491892D01*
X90750000Y-79340000D02*
X88770000Y-81320000D01*
X133832600Y-76491892D02*
X125606873Y-84717619D01*
X88770000Y-81450000D02*
X88328627Y-81891373D01*
X102677619Y-84717619D02*
X97300000Y-79340000D01*
X88770000Y-81320000D02*
X88770000Y-81450000D01*
%TO.N,Net-(D5-A)*%
X124290000Y-80260000D02*
X124632608Y-80260000D01*
X80818661Y-70098847D02*
X87368847Y-70098847D01*
X87368847Y-70098847D02*
X89320000Y-72050000D01*
X124632608Y-80260000D02*
X125633854Y-81261246D01*
%TO.N,Net-(D6-A)*%
X78393161Y-56330034D02*
X78619966Y-56330034D01*
X78619966Y-56330034D02*
X79730000Y-55220000D01*
X115120000Y-82180000D02*
X115120000Y-82848000D01*
X115120000Y-82848000D02*
X115814619Y-83542619D01*
%TO.N,Net-(D7-A)*%
X103444840Y-84317619D02*
X102993405Y-84317619D01*
X102993405Y-84317619D02*
X86610000Y-67934214D01*
X86610000Y-47869723D02*
X81421387Y-42681110D01*
X86610000Y-67934214D02*
X86610000Y-47869723D01*
X105869785Y-81892674D02*
X103444840Y-84317619D01*
%TO.N,Net-(D8-A)*%
X89442321Y-37582321D02*
X89442321Y-31230000D01*
X97313363Y-76562600D02*
X95804071Y-76562600D01*
X87010000Y-67768529D02*
X87010000Y-46150000D01*
X92510000Y-40650000D02*
X89442321Y-37582321D01*
X95804071Y-76562600D02*
X87010000Y-67768529D01*
X87010000Y-46150000D02*
X92510000Y-40650000D01*
%TO.N,Net-(D9-A)*%
X87610000Y-67520000D02*
X88453854Y-68363854D01*
X101234847Y-23720034D02*
X101234847Y-24615153D01*
X88453854Y-68363854D02*
X91447991Y-68363854D01*
X101234847Y-24615153D02*
X99270000Y-26580000D01*
%TO.N,Net-(D10-A)*%
X105942612Y-28020000D02*
X112200000Y-28020000D01*
X88391619Y-57769619D02*
X88391619Y-45570993D01*
X112200000Y-28020000D02*
X115003661Y-25216339D01*
X115003661Y-25216339D02*
X115003661Y-21294534D01*
X88391619Y-45570993D02*
X105942612Y-28020000D01*
X89166619Y-58544619D02*
X88391619Y-57769619D01*
%TO.N,Net-(D11-A)*%
X90453014Y-44075283D02*
X105928297Y-28600000D01*
X128100000Y-25500000D02*
X128100000Y-24875344D01*
X90816563Y-48599785D02*
X90453014Y-48236236D01*
X124940000Y-28600000D02*
X128040000Y-25500000D01*
X128100000Y-24875344D02*
X128652584Y-24322760D01*
X128040000Y-25500000D02*
X128100000Y-25500000D01*
X105928297Y-28600000D02*
X124940000Y-28600000D01*
X90453014Y-48236236D02*
X90453014Y-44075283D01*
%TO.N,Net-(D12-A)*%
X136680000Y-33500000D02*
X138910000Y-33500000D01*
X96146637Y-40043363D02*
X96146637Y-38947345D01*
X139660000Y-32750000D02*
X139697388Y-32750000D01*
X106013982Y-29080000D02*
X132260000Y-29080000D01*
X139697388Y-32750000D02*
X140103694Y-32343694D01*
X96146637Y-38947345D02*
X106013982Y-29080000D01*
X132260000Y-29080000D02*
X136680000Y-33500000D01*
X138910000Y-33500000D02*
X139660000Y-32750000D01*
%TO.N,Net-(D13-A)*%
X143153780Y-44136220D02*
X147613660Y-44136220D01*
X108529237Y-29480000D02*
X128470000Y-29480000D01*
X104345383Y-33663854D02*
X108529237Y-29480000D01*
X104345383Y-34177991D02*
X104345383Y-33663854D01*
X128470000Y-29480000D02*
X143140000Y-44150000D01*
X143140000Y-44150000D02*
X143153780Y-44136220D01*
%TO.N,Net-(D14-A)*%
X150039161Y-57905034D02*
X147695034Y-57905034D01*
X147695034Y-57905034D02*
X147160000Y-57370000D01*
X114164619Y-30715381D02*
X114164619Y-31896619D01*
X114800000Y-30080000D02*
X114164619Y-30715381D01*
%TO.N,Net-(D15-A)*%
X144090000Y-68650000D02*
X144106977Y-68650000D01*
X124109452Y-33546563D02*
X124473001Y-33183014D01*
X124473001Y-33183014D02*
X128633954Y-33183014D01*
X128633954Y-33183014D02*
X144090000Y-48639060D01*
X144106977Y-68650000D02*
X147010934Y-71553957D01*
X144090000Y-48639060D02*
X144090000Y-68650000D01*
%TO.N,Net-(D16-A)*%
X141587619Y-78202381D02*
X138510000Y-81280000D01*
X138510000Y-81280000D02*
X138510000Y-82525067D01*
X141587619Y-46702364D02*
X141587619Y-78202381D01*
X133761892Y-38876637D02*
X141587619Y-46702364D01*
X138510000Y-82525067D02*
X138990000Y-83005067D01*
X132665874Y-38876637D02*
X133761892Y-38876637D01*
%TO.N,GPIO1*%
X130403959Y-57358500D02*
X139162674Y-48599785D01*
X132665874Y-74229226D02*
X132665874Y-76562600D01*
X138531246Y-68363854D02*
X138167697Y-68000305D01*
X139162674Y-56894674D02*
X140812619Y-58544619D01*
X121707500Y-57358500D02*
X130403959Y-57358500D01*
X139036146Y-68363854D02*
X138531246Y-68363854D01*
X138167697Y-61189541D02*
X140812619Y-58544619D01*
X138167697Y-68000305D02*
X138167697Y-61189541D01*
X138531246Y-68363854D02*
X132665874Y-74229226D01*
X139162674Y-48599785D02*
X139162674Y-56894674D01*
%TO.N,GPIO2*%
X114164619Y-82564619D02*
X114164619Y-83542619D01*
X114164619Y-81635381D02*
X114164619Y-83542619D01*
X111810000Y-80210000D02*
X114164619Y-82564619D01*
X98480011Y-75395874D02*
X104345383Y-81261246D01*
X124109452Y-81892674D02*
X123546778Y-81330000D01*
X114470000Y-81330000D02*
X114164619Y-81635381D01*
X104345383Y-81261246D02*
X105396629Y-80210000D01*
X103130000Y-48010000D02*
X96146637Y-54993363D01*
X96146637Y-75395874D02*
X98480011Y-75395874D01*
X105396629Y-80210000D02*
X111810000Y-80210000D01*
X96146637Y-54993363D02*
X96146637Y-75395874D01*
X121707500Y-54818500D02*
X114899000Y-48010000D01*
X123546778Y-81330000D02*
X114470000Y-81330000D01*
X114899000Y-48010000D02*
X103130000Y-48010000D01*
%TO.N,GPIO3*%
X90014619Y-56894619D02*
X89166619Y-56894619D01*
X90816563Y-66839452D02*
X91450000Y-66206015D01*
X97313363Y-41210011D02*
X97313363Y-38876637D01*
X92490000Y-48117392D02*
X91447991Y-47075383D01*
X91450000Y-58330000D02*
X90014619Y-56894619D01*
X91447991Y-47075383D02*
X97313363Y-41210011D01*
X91450000Y-66206015D02*
X91450000Y-58330000D01*
X92490000Y-53571238D02*
X92490000Y-48117392D01*
X97313363Y-38876637D02*
X108305637Y-38876637D01*
X89166619Y-56894619D02*
X92490000Y-53571238D01*
X108305637Y-38876637D02*
X121707500Y-52278500D01*
%TO.N,GPIO4*%
X121707500Y-49738500D02*
X124137463Y-49738500D01*
X133832600Y-40043363D02*
X131499226Y-40043363D01*
X114164675Y-33546563D02*
X115814619Y-31896619D01*
X125633854Y-34177991D02*
X125270305Y-34541540D01*
X124137463Y-49738500D02*
X133832600Y-40043363D01*
X105869785Y-33546563D02*
X114164675Y-33546563D01*
X118459540Y-34541540D02*
X115814619Y-31896619D01*
X125270305Y-34541540D02*
X118459540Y-34541540D01*
X131499226Y-40043363D02*
X125633854Y-34177991D01*
%TD*%
%TA.AperFunction,NonConductor*%
G36*
X124901880Y-20246172D02*
G01*
X125174342Y-20325330D01*
X125178006Y-20326457D01*
X126340441Y-20704156D01*
X126344107Y-20705411D01*
X127494073Y-21119424D01*
X127497669Y-21120783D01*
X128634077Y-21570719D01*
X128637605Y-21572179D01*
X129519794Y-21953937D01*
X129759326Y-22057592D01*
X129762877Y-22059195D01*
X130741684Y-22519786D01*
X130793961Y-22566142D01*
X130812879Y-22633401D01*
X130792430Y-22700212D01*
X130739107Y-22745360D01*
X130688887Y-22755985D01*
X127640084Y-22755985D01*
X127640080Y-22755984D01*
X127481966Y-22755984D01*
X127469820Y-22759238D01*
X127454645Y-22759514D01*
X127434990Y-22754128D01*
X127414621Y-22753641D01*
X127404940Y-22750095D01*
X127324405Y-22716737D01*
X127229550Y-22688338D01*
X127229544Y-22688337D01*
X127229543Y-22688337D01*
X127182642Y-22684920D01*
X127061845Y-22676120D01*
X127059768Y-22676211D01*
X127058377Y-22675867D01*
X127054647Y-22675596D01*
X127054693Y-22674958D01*
X126991934Y-22659465D01*
X126966686Y-22640010D01*
X124779605Y-20452930D01*
X124746120Y-20391607D01*
X124751104Y-20321915D01*
X124792976Y-20265982D01*
X124858440Y-20241565D01*
X124901880Y-20246172D01*
G37*
%TD.AperFunction*%
%TA.AperFunction,NonConductor*%
G36*
X114314987Y-18605376D02*
G01*
X115536621Y-18643766D01*
X115540472Y-18643949D01*
X116760273Y-18720692D01*
X116764089Y-18720992D01*
X117980952Y-18836020D01*
X117984790Y-18836444D01*
X119197348Y-18989626D01*
X119201201Y-18990174D01*
X119751987Y-19077410D01*
X120408330Y-19181365D01*
X120412172Y-19182034D01*
X121612763Y-19411059D01*
X121616518Y-19411836D01*
X122684610Y-19650584D01*
X122789457Y-19674020D01*
X122850588Y-19707855D01*
X122883722Y-19769369D01*
X122878339Y-19839031D01*
X122836149Y-19894724D01*
X122770546Y-19918767D01*
X122762407Y-19919034D01*
X114290331Y-19919034D01*
X114290315Y-19919033D01*
X114282719Y-19919033D01*
X114124604Y-19919033D01*
X114048240Y-19939495D01*
X113971875Y-19959957D01*
X113971870Y-19959960D01*
X113834951Y-20039009D01*
X113834943Y-20039015D01*
X113591244Y-20282715D01*
X113529921Y-20316200D01*
X113503563Y-20319034D01*
X113161979Y-20319034D01*
X113063477Y-20329097D01*
X113063476Y-20329098D01*
X112984380Y-20355307D01*
X112903876Y-20381984D01*
X112903865Y-20381989D01*
X112760773Y-20470250D01*
X112760769Y-20470253D01*
X112641881Y-20589141D01*
X112641880Y-20589143D01*
X112613512Y-20635132D01*
X112561567Y-20681855D01*
X112507976Y-20694034D01*
X102154523Y-20694034D01*
X101996409Y-20694034D01*
X101843681Y-20734957D01*
X101843680Y-20734957D01*
X101843678Y-20734958D01*
X101843675Y-20734959D01*
X101793562Y-20763893D01*
X101793561Y-20763894D01*
X101750155Y-20788954D01*
X101706751Y-20814013D01*
X101706748Y-20814015D01*
X99299218Y-23221545D01*
X99299216Y-23221548D01*
X99270464Y-23271348D01*
X99270462Y-23271351D01*
X99266135Y-23278847D01*
X99220160Y-23358478D01*
X99190483Y-23469230D01*
X99187637Y-23476273D01*
X99170473Y-23497950D01*
X99156082Y-23521560D01*
X99146288Y-23528494D01*
X99144265Y-23531051D01*
X99141194Y-23532102D01*
X99131523Y-23538951D01*
X99072894Y-23570563D01*
X98945684Y-23680497D01*
X98944280Y-23682031D01*
X98943052Y-23682772D01*
X98940216Y-23685224D01*
X98939797Y-23684739D01*
X98884477Y-23718160D01*
X98852855Y-23722260D01*
X94855470Y-23722260D01*
X94788431Y-23702575D01*
X94742676Y-23649771D01*
X94732732Y-23580613D01*
X94761757Y-23517057D01*
X94795730Y-23489599D01*
X95435379Y-23137949D01*
X95438684Y-23136199D01*
X96527787Y-22581273D01*
X96531171Y-22579615D01*
X97637141Y-22059186D01*
X97640653Y-22057600D01*
X98762416Y-21572170D01*
X98765899Y-21570728D01*
X99902351Y-21120774D01*
X99905905Y-21119431D01*
X101055911Y-20705404D01*
X101059538Y-20704162D01*
X102222011Y-20326451D01*
X102225639Y-20325335D01*
X103399356Y-19984339D01*
X103403077Y-19983321D01*
X104586949Y-19679354D01*
X104590604Y-19678476D01*
X105783493Y-19411834D01*
X105787223Y-19411061D01*
X106987838Y-19182032D01*
X106991662Y-19181366D01*
X108198806Y-18990173D01*
X108202639Y-18989627D01*
X109415216Y-18836443D01*
X109419040Y-18836020D01*
X110635915Y-18720991D01*
X110639721Y-18720692D01*
X111859530Y-18643948D01*
X111863375Y-18643767D01*
X113085013Y-18605376D01*
X113088908Y-18605315D01*
X114311092Y-18605315D01*
X114314987Y-18605376D01*
G37*
%TD.AperFunction*%
%TA.AperFunction,NonConductor*%
G36*
X123763916Y-21139719D02*
G01*
X123784558Y-21156353D01*
X126174998Y-23546794D01*
X126208483Y-23608117D01*
X126206108Y-23670037D01*
X126196367Y-23702575D01*
X126186072Y-23736961D01*
X126186072Y-23736963D01*
X126173855Y-23904651D01*
X126173856Y-23904655D01*
X126200641Y-24070640D01*
X126200642Y-24070643D01*
X126228601Y-24138142D01*
X126264984Y-24225980D01*
X126363417Y-24362292D01*
X126490631Y-24472230D01*
X126577792Y-24519227D01*
X127070541Y-24723330D01*
X127116739Y-24737161D01*
X127165397Y-24751729D01*
X127165398Y-24751729D01*
X127165405Y-24751731D01*
X127314176Y-24762568D01*
X127333095Y-24763947D01*
X127333095Y-24763946D01*
X127333097Y-24763947D01*
X127355744Y-24760292D01*
X127425061Y-24769043D01*
X127478645Y-24813882D01*
X127499481Y-24880573D01*
X127499499Y-24882706D01*
X127499499Y-24954401D01*
X127499499Y-24954403D01*
X127499500Y-24964401D01*
X127499500Y-25139903D01*
X127479815Y-25206942D01*
X127463181Y-25227584D01*
X124727584Y-27963181D01*
X124666261Y-27996666D01*
X124639903Y-27999500D01*
X113369097Y-27999500D01*
X113302058Y-27979815D01*
X113256303Y-27927011D01*
X113246359Y-27857853D01*
X113275384Y-27794297D01*
X113281416Y-27787819D01*
X113779845Y-27289390D01*
X115362167Y-25707066D01*
X115362172Y-25707063D01*
X115372375Y-25696859D01*
X115372377Y-25696859D01*
X115484181Y-25585055D01*
X115563238Y-25448123D01*
X115604161Y-25295396D01*
X115604161Y-22229589D01*
X115623846Y-22162550D01*
X115663064Y-22124051D01*
X115667735Y-22121169D01*
X115671552Y-22118815D01*
X115790442Y-21999925D01*
X115878710Y-21856821D01*
X115931597Y-21697219D01*
X115941661Y-21598708D01*
X115941661Y-21244034D01*
X115961346Y-21176995D01*
X116014150Y-21131240D01*
X116065661Y-21120034D01*
X123696877Y-21120034D01*
X123763916Y-21139719D01*
G37*
%TD.AperFunction*%
%TA.AperFunction,NonConductor*%
G36*
X130883427Y-23976670D02*
G01*
X130904069Y-23993304D01*
X137914358Y-31003594D01*
X137947843Y-31064917D01*
X137947335Y-31119868D01*
X137934875Y-31172447D01*
X137934875Y-31172449D01*
X137934875Y-31340584D01*
X137971336Y-31494426D01*
X137973651Y-31504192D01*
X138049105Y-31654435D01*
X138049109Y-31654442D01*
X138111650Y-31731216D01*
X138488784Y-32108350D01*
X138565558Y-32170891D01*
X138715811Y-32246350D01*
X138879416Y-32285125D01*
X138879418Y-32285125D01*
X138924569Y-32285125D01*
X138991608Y-32304810D01*
X139037363Y-32357614D01*
X139048569Y-32409125D01*
X139048569Y-32460833D01*
X139028884Y-32527872D01*
X139012250Y-32548514D01*
X138697584Y-32863181D01*
X138636261Y-32896666D01*
X138609903Y-32899500D01*
X136980097Y-32899500D01*
X136913058Y-32879815D01*
X136892416Y-32863181D01*
X132747590Y-28718355D01*
X132747588Y-28718352D01*
X132628717Y-28599481D01*
X132628716Y-28599480D01*
X132541904Y-28549360D01*
X132541904Y-28549359D01*
X132541900Y-28549358D01*
X132491785Y-28520423D01*
X132339057Y-28479499D01*
X132180943Y-28479499D01*
X132173347Y-28479499D01*
X132173331Y-28479500D01*
X126209097Y-28479500D01*
X126142058Y-28459815D01*
X126096303Y-28407011D01*
X126086359Y-28337853D01*
X126115384Y-28274297D01*
X126121416Y-28267819D01*
X126601416Y-27787819D01*
X128315210Y-26074023D01*
X128340883Y-26054323D01*
X128468716Y-25980520D01*
X128580520Y-25868716D01*
X128659577Y-25731784D01*
X128700500Y-25579057D01*
X128700500Y-25486420D01*
X128720185Y-25419381D01*
X128772989Y-25373626D01*
X128804746Y-25364004D01*
X128954190Y-25339888D01*
X128954190Y-25339887D01*
X128954196Y-25339887D01*
X128954197Y-25339886D01*
X128954199Y-25339886D01*
X128999696Y-25321040D01*
X129109533Y-25275544D01*
X129245846Y-25177112D01*
X129355784Y-25049898D01*
X129402781Y-24962737D01*
X129635585Y-24400697D01*
X129663986Y-24305833D01*
X129676202Y-24138141D01*
X129674803Y-24129474D01*
X129670167Y-24100739D01*
X129678920Y-24031420D01*
X129723760Y-23977837D01*
X129790451Y-23957003D01*
X129792583Y-23956985D01*
X130816388Y-23956985D01*
X130883427Y-23976670D01*
G37*
%TD.AperFunction*%
%TA.AperFunction,NonConductor*%
G36*
X113664781Y-30084575D02*
G01*
X113679226Y-30083778D01*
X113697636Y-30094223D01*
X113717941Y-30100185D01*
X113727412Y-30111115D01*
X113739997Y-30118255D01*
X113749838Y-30136996D01*
X113763696Y-30152989D01*
X113765754Y-30167305D01*
X113772481Y-30180115D01*
X113770627Y-30201199D01*
X113773640Y-30222147D01*
X113767630Y-30235306D01*
X113766364Y-30249716D01*
X113752398Y-30275736D01*
X113746206Y-30284557D01*
X113684099Y-30346665D01*
X113648563Y-30408216D01*
X113605042Y-30483596D01*
X113604136Y-30486973D01*
X113604136Y-30486975D01*
X113584317Y-30560943D01*
X113564118Y-30636324D01*
X113564118Y-30636326D01*
X113564118Y-30804427D01*
X113564119Y-30804440D01*
X113564119Y-30980099D01*
X113544434Y-31047138D01*
X113527800Y-31067780D01*
X113409150Y-31186429D01*
X113409149Y-31186430D01*
X113321141Y-31332012D01*
X113270532Y-31494426D01*
X113264119Y-31565005D01*
X113264119Y-32228232D01*
X113270532Y-32298811D01*
X113270532Y-32298813D01*
X113270533Y-32298815D01*
X113321141Y-32461225D01*
X113405838Y-32601331D01*
X113409149Y-32606807D01*
X113534737Y-32732395D01*
X113532991Y-32734140D01*
X113566699Y-32781297D01*
X113570149Y-32851081D01*
X113535322Y-32911653D01*
X113473277Y-32943780D01*
X113449592Y-32946063D01*
X106676289Y-32946063D01*
X106609250Y-32926378D01*
X106566493Y-32879689D01*
X106541900Y-32832831D01*
X106432992Y-32702150D01*
X106432989Y-32702148D01*
X106389827Y-32670389D01*
X106347498Y-32614804D01*
X106341939Y-32545156D01*
X106374917Y-32483559D01*
X106375511Y-32482959D01*
X108741653Y-30116819D01*
X108802976Y-30083334D01*
X108829334Y-30080500D01*
X113650902Y-30080500D01*
X113664781Y-30084575D01*
G37*
%TD.AperFunction*%
%TA.AperFunction,NonConductor*%
G36*
X132244879Y-23292023D02*
G01*
X133035740Y-23726802D01*
X133039046Y-23728687D01*
X133668150Y-24100739D01*
X134091082Y-24350861D01*
X134094403Y-24352896D01*
X135126344Y-25007785D01*
X135129600Y-25009924D01*
X136140453Y-25696899D01*
X136143640Y-25699139D01*
X136379649Y-25870609D01*
X137132455Y-26417555D01*
X137135469Y-26419817D01*
X138101262Y-27168963D01*
X138104266Y-27171370D01*
X139046037Y-27950470D01*
X139048957Y-27952964D01*
X139782287Y-28599481D01*
X139965765Y-28761239D01*
X139968646Y-28763861D01*
X140859588Y-29600512D01*
X140862385Y-29603223D01*
X141726592Y-30467430D01*
X141729303Y-30470227D01*
X142565954Y-31361169D01*
X142568576Y-31364050D01*
X143346428Y-32246350D01*
X143376833Y-32280837D01*
X143379350Y-32283784D01*
X143872430Y-32879815D01*
X144158443Y-33225546D01*
X144160858Y-33228561D01*
X144909990Y-34194336D01*
X144912268Y-34197371D01*
X145165571Y-34546012D01*
X145630676Y-35186175D01*
X145632916Y-35189362D01*
X146319891Y-36200215D01*
X146322029Y-36203470D01*
X146413776Y-36348039D01*
X146433078Y-36415190D01*
X146413011Y-36482116D01*
X146359947Y-36527569D01*
X146290733Y-36537117D01*
X146227344Y-36507730D01*
X146221399Y-36502163D01*
X140587590Y-30868355D01*
X140587588Y-30868352D01*
X140468717Y-30749481D01*
X140468709Y-30749475D01*
X140358052Y-30685588D01*
X140358051Y-30685587D01*
X140339588Y-30674928D01*
X140331785Y-30670423D01*
X140179057Y-30629499D01*
X140020943Y-30629499D01*
X140013347Y-30629499D01*
X140013331Y-30629500D01*
X139820428Y-30629500D01*
X139753389Y-30609815D01*
X139732747Y-30593181D01*
X139491222Y-30351656D01*
X139491216Y-30351650D01*
X139414442Y-30289109D01*
X139414437Y-30289106D01*
X139414435Y-30289105D01*
X139264192Y-30213651D01*
X139264190Y-30213650D01*
X139264189Y-30213650D01*
X139100584Y-30174875D01*
X138932449Y-30174875D01*
X138932448Y-30174875D01*
X138879868Y-30187335D01*
X138810096Y-30183640D01*
X138763594Y-30154358D01*
X135568408Y-26959172D01*
X132097770Y-23488535D01*
X132064286Y-23427213D01*
X132069270Y-23357521D01*
X132111142Y-23301588D01*
X132176606Y-23277171D01*
X132244879Y-23292023D01*
G37*
%TD.AperFunction*%
%TA.AperFunction,NonConductor*%
G36*
X128400896Y-33803199D02*
G01*
X128421538Y-33819833D01*
X132358698Y-37756993D01*
X132392183Y-37818316D01*
X132387199Y-37888008D01*
X132345327Y-37943941D01*
X132328649Y-37954466D01*
X132318868Y-37959600D01*
X132318053Y-37960028D01*
X132263616Y-38005395D01*
X132263601Y-38005409D01*
X131794646Y-38474364D01*
X131794632Y-38474379D01*
X131749265Y-38528816D01*
X131670207Y-38679445D01*
X131629498Y-38844614D01*
X131629498Y-39022227D01*
X131627030Y-39022227D01*
X131617516Y-39079412D01*
X131570608Y-39131194D01*
X131503150Y-39149395D01*
X131436561Y-39128236D01*
X131418205Y-39113106D01*
X126628755Y-34323657D01*
X126595270Y-34262334D01*
X126598050Y-34199088D01*
X126613796Y-34148562D01*
X126629191Y-33979148D01*
X126629191Y-33979146D01*
X126621129Y-33926171D01*
X126630502Y-33856933D01*
X126675821Y-33803754D01*
X126742696Y-33783518D01*
X126743717Y-33783514D01*
X128333857Y-33783514D01*
X128400896Y-33803199D01*
G37*
%TD.AperFunction*%
%TA.AperFunction,NonConductor*%
G36*
X112575015Y-21914719D02*
G01*
X112613512Y-21953934D01*
X112641161Y-21998759D01*
X112641881Y-21999926D01*
X112760769Y-22118814D01*
X112760773Y-22118817D01*
X112903865Y-22207078D01*
X112903868Y-22207079D01*
X112903874Y-22207083D01*
X113063476Y-22259970D01*
X113161987Y-22270034D01*
X113161992Y-22270034D01*
X113695330Y-22270034D01*
X113695335Y-22270034D01*
X113793846Y-22259970D01*
X113953448Y-22207083D01*
X114096552Y-22118815D01*
X114128480Y-22086887D01*
X114189803Y-22053402D01*
X114259495Y-22058386D01*
X114297728Y-22081172D01*
X114300878Y-22083923D01*
X114335770Y-22118815D01*
X114352995Y-22129439D01*
X114360728Y-22136193D01*
X114374207Y-22157348D01*
X114390983Y-22175999D01*
X114393694Y-22187932D01*
X114398273Y-22195118D01*
X114398223Y-22207860D01*
X114403161Y-22229589D01*
X114403161Y-24916242D01*
X114383476Y-24983281D01*
X114366842Y-25003923D01*
X111987584Y-27383181D01*
X111926261Y-27416666D01*
X111899903Y-27419500D01*
X105863552Y-27419500D01*
X105822631Y-27430464D01*
X105822631Y-27430465D01*
X105785363Y-27440451D01*
X105710826Y-27460423D01*
X105710821Y-27460426D01*
X105573902Y-27539475D01*
X105573894Y-27539481D01*
X105462090Y-27651286D01*
X92998986Y-40114389D01*
X92937663Y-40147874D01*
X92867971Y-40142890D01*
X92823624Y-40114389D01*
X90079140Y-37369905D01*
X90045655Y-37308582D01*
X90042821Y-37282224D01*
X90042821Y-32060428D01*
X90062506Y-31993389D01*
X90079140Y-31972747D01*
X90155365Y-31896522D01*
X90320671Y-31731216D01*
X90383212Y-31654442D01*
X90458671Y-31504189D01*
X90497446Y-31340584D01*
X90497446Y-31172449D01*
X90458671Y-31008844D01*
X90383212Y-30858591D01*
X90320671Y-30781817D01*
X89890504Y-30351650D01*
X89813730Y-30289109D01*
X89813725Y-30289106D01*
X89813723Y-30289105D01*
X89663480Y-30213651D01*
X89663478Y-30213650D01*
X89663477Y-30213650D01*
X89522796Y-30180308D01*
X89499864Y-30174873D01*
X89492698Y-30174036D01*
X89492968Y-30171717D01*
X89436682Y-30155190D01*
X89390927Y-30102386D01*
X89380983Y-30033228D01*
X89410008Y-29969672D01*
X89416040Y-29963194D01*
X91839754Y-27539481D01*
X94419656Y-24959579D01*
X94480979Y-24926094D01*
X94507337Y-24923260D01*
X98934238Y-24923260D01*
X99001277Y-24942945D01*
X99043383Y-24988410D01*
X99076536Y-25049898D01*
X99186473Y-25177110D01*
X99186476Y-25177113D01*
X99322786Y-25275543D01*
X99435898Y-25322396D01*
X99490302Y-25366237D01*
X99512366Y-25432532D01*
X99495086Y-25500231D01*
X99476126Y-25524638D01*
X99255339Y-25745425D01*
X99194016Y-25778910D01*
X99191850Y-25779361D01*
X99036508Y-25810261D01*
X99036498Y-25810264D01*
X98890827Y-25870602D01*
X98890814Y-25870609D01*
X98759711Y-25958210D01*
X98759707Y-25958213D01*
X98648213Y-26069707D01*
X98648210Y-26069711D01*
X98560609Y-26200814D01*
X98560602Y-26200827D01*
X98500264Y-26346498D01*
X98500261Y-26346510D01*
X98469500Y-26501153D01*
X98469500Y-26658846D01*
X98500261Y-26813489D01*
X98500264Y-26813501D01*
X98560602Y-26959172D01*
X98560609Y-26959185D01*
X98648210Y-27090288D01*
X98648213Y-27090292D01*
X98759707Y-27201786D01*
X98759711Y-27201789D01*
X98890814Y-27289390D01*
X98890827Y-27289397D01*
X99036498Y-27349735D01*
X99036503Y-27349737D01*
X99191153Y-27380499D01*
X99191156Y-27380500D01*
X99191158Y-27380500D01*
X99348844Y-27380500D01*
X99348845Y-27380499D01*
X99503497Y-27349737D01*
X99649179Y-27289394D01*
X99780289Y-27201789D01*
X99891789Y-27090289D01*
X99979394Y-26959179D01*
X100039737Y-26813497D01*
X100059113Y-26716085D01*
X100070638Y-26658150D01*
X100103023Y-26596239D01*
X100104519Y-26594715D01*
X101593353Y-25105880D01*
X101593358Y-25105877D01*
X101603561Y-25095673D01*
X101603563Y-25095673D01*
X101715367Y-24983869D01*
X101778232Y-24874983D01*
X101794424Y-24846938D01*
X101835347Y-24694211D01*
X101835347Y-24603586D01*
X101844119Y-24573713D01*
X108209500Y-24573713D01*
X108209500Y-24786286D01*
X108238576Y-24969869D01*
X108242754Y-24996243D01*
X108301522Y-25177112D01*
X108308444Y-25198414D01*
X108404951Y-25387820D01*
X108529890Y-25559786D01*
X108680213Y-25710109D01*
X108852179Y-25835048D01*
X108852181Y-25835049D01*
X108852184Y-25835051D01*
X109041588Y-25931557D01*
X109243757Y-25997246D01*
X109453713Y-26030500D01*
X109453714Y-26030500D01*
X109666286Y-26030500D01*
X109666287Y-26030500D01*
X109876243Y-25997246D01*
X110078412Y-25931557D01*
X110267816Y-25835051D01*
X110344276Y-25779500D01*
X110439786Y-25710109D01*
X110439788Y-25710106D01*
X110439792Y-25710104D01*
X110590104Y-25559792D01*
X110590106Y-25559788D01*
X110590109Y-25559786D01*
X110715048Y-25387820D01*
X110715047Y-25387820D01*
X110715051Y-25387816D01*
X110811557Y-25198412D01*
X110877246Y-24996243D01*
X110910500Y-24786287D01*
X110910500Y-24573713D01*
X110877246Y-24363757D01*
X110811557Y-24161588D01*
X110715051Y-23972184D01*
X110715049Y-23972181D01*
X110715048Y-23972179D01*
X110590109Y-23800213D01*
X110439786Y-23649890D01*
X110267820Y-23524951D01*
X110078414Y-23428444D01*
X110078413Y-23428443D01*
X110078412Y-23428443D01*
X109876243Y-23362754D01*
X109876241Y-23362753D01*
X109876240Y-23362753D01*
X109714957Y-23337208D01*
X109666287Y-23329500D01*
X109453713Y-23329500D01*
X109405042Y-23337208D01*
X109243760Y-23362753D01*
X109041585Y-23428444D01*
X108852179Y-23524951D01*
X108680213Y-23649890D01*
X108529890Y-23800213D01*
X108404951Y-23972179D01*
X108308444Y-24161585D01*
X108242753Y-24363760D01*
X108209500Y-24573713D01*
X101844119Y-24573713D01*
X101855032Y-24536547D01*
X101897357Y-24496193D01*
X101898900Y-24495301D01*
X101941690Y-24472230D01*
X102068904Y-24362292D01*
X102167337Y-24225980D01*
X102231679Y-24070642D01*
X102258465Y-23904653D01*
X102246249Y-23736961D01*
X102217848Y-23642097D01*
X101985044Y-23080057D01*
X101938047Y-22992896D01*
X101828109Y-22865682D01*
X101828107Y-22865680D01*
X101691793Y-22767248D01*
X101685493Y-22763732D01*
X101686375Y-22762149D01*
X101639263Y-22724175D01*
X101617206Y-22657878D01*
X101634494Y-22590181D01*
X101653442Y-22565791D01*
X102287882Y-21931353D01*
X102349205Y-21897868D01*
X102375563Y-21895034D01*
X112507976Y-21895034D01*
X112575015Y-21914719D01*
G37*
%TD.AperFunction*%
%TA.AperFunction,NonConductor*%
G36*
X132026942Y-29700185D02*
G01*
X132047584Y-29716819D01*
X136195139Y-33864374D01*
X136195149Y-33864385D01*
X136199479Y-33868715D01*
X136199480Y-33868716D01*
X136311284Y-33980520D01*
X136391934Y-34027083D01*
X136448215Y-34059577D01*
X136600943Y-34100501D01*
X136600946Y-34100501D01*
X136766653Y-34100501D01*
X136766669Y-34100500D01*
X138823331Y-34100500D01*
X138823347Y-34100501D01*
X138830943Y-34100501D01*
X138989054Y-34100501D01*
X138989057Y-34100501D01*
X139141785Y-34059577D01*
X139198066Y-34027083D01*
X139278716Y-33980520D01*
X139390520Y-33868716D01*
X139390520Y-33868714D01*
X139400724Y-33858511D01*
X139400728Y-33858506D01*
X139836904Y-33422329D01*
X139898225Y-33388846D01*
X139953178Y-33389354D01*
X139993110Y-33398819D01*
X140161243Y-33398819D01*
X140161245Y-33398819D01*
X140324850Y-33360044D01*
X140475103Y-33284585D01*
X140551877Y-33222044D01*
X140809661Y-32964258D01*
X140870984Y-32930774D01*
X140940675Y-32935758D01*
X140985023Y-32964259D01*
X146374115Y-38353350D01*
X146407600Y-38414673D01*
X146410434Y-38441031D01*
X146410434Y-41835610D01*
X146390749Y-41902649D01*
X146345285Y-41944755D01*
X146283794Y-41977910D01*
X146156583Y-42087846D01*
X146156580Y-42087849D01*
X146058150Y-42224159D01*
X145993807Y-42379494D01*
X145993805Y-42379502D01*
X145967021Y-42545484D01*
X145967020Y-42545488D01*
X145979237Y-42713176D01*
X145979238Y-42713186D01*
X146007636Y-42808037D01*
X146007638Y-42808043D01*
X146037965Y-42881258D01*
X146211742Y-43300794D01*
X146239821Y-43352870D01*
X146254312Y-43421220D01*
X146229549Y-43486555D01*
X146173394Y-43528129D01*
X146130676Y-43535720D01*
X143426317Y-43535720D01*
X143359278Y-43516035D01*
X143338636Y-43499401D01*
X129731416Y-29892181D01*
X129697931Y-29830858D01*
X129702915Y-29761166D01*
X129744787Y-29705233D01*
X129810251Y-29680816D01*
X129819097Y-29680500D01*
X131959903Y-29680500D01*
X132026942Y-29700185D01*
G37*
%TD.AperFunction*%
%TA.AperFunction,NonConductor*%
G36*
X147816637Y-38698626D02*
G01*
X147844094Y-38732600D01*
X148089997Y-39179895D01*
X148191822Y-39365114D01*
X148193642Y-39368550D01*
X148734286Y-40429625D01*
X148748513Y-40457546D01*
X148750227Y-40461044D01*
X149270620Y-41566938D01*
X149272223Y-41570489D01*
X149757621Y-42692175D01*
X149759109Y-42695770D01*
X149766005Y-42713186D01*
X150209023Y-43832122D01*
X150210400Y-43835766D01*
X150391185Y-44337916D01*
X150395373Y-44407660D01*
X150361190Y-44468596D01*
X150299488Y-44501378D01*
X150229858Y-44495598D01*
X150186835Y-44467600D01*
X148041262Y-42322027D01*
X148031631Y-42312396D01*
X148031630Y-42312394D01*
X147919826Y-42200590D01*
X147876897Y-42175805D01*
X147867440Y-42167392D01*
X147855370Y-42148061D01*
X147839644Y-42131568D01*
X147835308Y-42122221D01*
X147810127Y-42061428D01*
X147763130Y-41974267D01*
X147653192Y-41847053D01*
X147653191Y-41847052D01*
X147653190Y-41847051D01*
X147651656Y-41845645D01*
X147650914Y-41844418D01*
X147648470Y-41841589D01*
X147648953Y-41841171D01*
X147615531Y-41785839D01*
X147611434Y-41754227D01*
X147611434Y-38792339D01*
X147631119Y-38725300D01*
X147683923Y-38679545D01*
X147753081Y-38669601D01*
X147816637Y-38698626D01*
G37*
%TD.AperFunction*%
%TA.AperFunction,NonConductor*%
G36*
X95115653Y-40319008D02*
G01*
X95143020Y-40317503D01*
X95149999Y-40321464D01*
X95158007Y-40322037D01*
X95179948Y-40338462D01*
X95203784Y-40351991D01*
X95211325Y-40361952D01*
X95213940Y-40363909D01*
X95219612Y-40372896D01*
X95221838Y-40375836D01*
X95223207Y-40378188D01*
X95230027Y-40391182D01*
X95275399Y-40445625D01*
X95744375Y-40914601D01*
X95798818Y-40959973D01*
X95949445Y-41039029D01*
X96114614Y-41079739D01*
X96292227Y-41079739D01*
X96292227Y-41082212D01*
X96349378Y-41091703D01*
X96401174Y-41138596D01*
X96419396Y-41206048D01*
X96398257Y-41272643D01*
X96383106Y-41291031D01*
X91593656Y-46080481D01*
X91532333Y-46113966D01*
X91469084Y-46111185D01*
X91437473Y-46101334D01*
X91418563Y-46095441D01*
X91418559Y-46095440D01*
X91249146Y-46080045D01*
X91196171Y-46088108D01*
X91126933Y-46078735D01*
X91073754Y-46033416D01*
X91053518Y-45966541D01*
X91053514Y-45965520D01*
X91053514Y-44375379D01*
X91073199Y-44308340D01*
X91089828Y-44287703D01*
X95026994Y-40350536D01*
X95051043Y-40337404D01*
X95073256Y-40321340D01*
X95081271Y-40320899D01*
X95088315Y-40317053D01*
X95115653Y-40319008D01*
G37*
%TD.AperFunction*%
%TA.AperFunction,NonConductor*%
G36*
X88795499Y-33344392D02*
G01*
X88835424Y-33401731D01*
X88841821Y-33441046D01*
X88841821Y-37495651D01*
X88841820Y-37495669D01*
X88841820Y-37661375D01*
X88841819Y-37661375D01*
X88841820Y-37661378D01*
X88882744Y-37814106D01*
X88897844Y-37840260D01*
X88897845Y-37840262D01*
X88897846Y-37840262D01*
X88961800Y-37951035D01*
X88961802Y-37951038D01*
X89080670Y-38069906D01*
X89080676Y-38069911D01*
X91573083Y-40562318D01*
X91606568Y-40623641D01*
X91601584Y-40693333D01*
X91573082Y-40737680D01*
X86641286Y-45669478D01*
X86641284Y-45669480D01*
X86608190Y-45702574D01*
X86529478Y-45781285D01*
X86529478Y-45781286D01*
X86517073Y-45802774D01*
X86517071Y-45802778D01*
X86450423Y-45918215D01*
X86409499Y-46070943D01*
X86409499Y-46070945D01*
X86409499Y-46239046D01*
X86409500Y-46239059D01*
X86409500Y-46520626D01*
X86389815Y-46587665D01*
X86337011Y-46633420D01*
X86267853Y-46643364D01*
X86204297Y-46614339D01*
X86197819Y-46608307D01*
X82470770Y-42881258D01*
X82437285Y-42819935D01*
X82439660Y-42758014D01*
X82453084Y-42713179D01*
X82465300Y-42545487D01*
X82438514Y-42379498D01*
X82438513Y-42379494D01*
X82374170Y-42224159D01*
X82275740Y-42087849D01*
X82275737Y-42087846D01*
X82148524Y-41977909D01*
X82061366Y-41930914D01*
X82061364Y-41930913D01*
X81499324Y-41698109D01*
X81499319Y-41698107D01*
X81499318Y-41698107D01*
X81404467Y-41669709D01*
X81404461Y-41669708D01*
X81404460Y-41669708D01*
X81376078Y-41667640D01*
X81236769Y-41657491D01*
X81236763Y-41657492D01*
X81199366Y-41663527D01*
X81130047Y-41654774D01*
X81076464Y-41609934D01*
X81055630Y-41543243D01*
X81055612Y-41541111D01*
X81055612Y-40517306D01*
X81075297Y-40450267D01*
X81091931Y-40429625D01*
X84286144Y-37235412D01*
X88102223Y-33419332D01*
X88163544Y-33385849D01*
X88218499Y-33386358D01*
X88271075Y-33398819D01*
X88271076Y-33398819D01*
X88439209Y-33398819D01*
X88439211Y-33398819D01*
X88602816Y-33360044D01*
X88640527Y-33341105D01*
X88662170Y-33330236D01*
X88730913Y-33317739D01*
X88795499Y-33344392D01*
G37*
%TD.AperFunction*%
%TA.AperFunction,NonConductor*%
G36*
X107247179Y-29700185D02*
G01*
X107292934Y-29752989D01*
X107302878Y-29822147D01*
X107273853Y-29885703D01*
X107267821Y-29892181D01*
X103977504Y-33182496D01*
X103977478Y-33182522D01*
X103976669Y-33183332D01*
X103976667Y-33183334D01*
X103864863Y-33295138D01*
X103858601Y-33305982D01*
X103848103Y-33316886D01*
X103830364Y-33327012D01*
X103815578Y-33341105D01*
X103806236Y-33345438D01*
X103734986Y-33374952D01*
X103734980Y-33374955D01*
X103672240Y-33407884D01*
X103541558Y-33516793D01*
X103440740Y-33653810D01*
X103375641Y-33810974D01*
X103375640Y-33810978D01*
X103350045Y-33979146D01*
X103365440Y-34148559D01*
X103365442Y-34148566D01*
X103386522Y-34216214D01*
X103386530Y-34216234D01*
X103640330Y-34828966D01*
X103640333Y-34828971D01*
X103673269Y-34891724D01*
X103782176Y-35022404D01*
X103919194Y-35123223D01*
X104076356Y-35188322D01*
X104076361Y-35188322D01*
X104076362Y-35188323D01*
X104083189Y-35189362D01*
X104244532Y-35213918D01*
X104413946Y-35198522D01*
X104481608Y-35177438D01*
X104955773Y-34981033D01*
X105018526Y-34948097D01*
X105149206Y-34839190D01*
X105250025Y-34702172D01*
X105305300Y-34568726D01*
X105349139Y-34514324D01*
X105415434Y-34492259D01*
X105467313Y-34501619D01*
X105600758Y-34556894D01*
X105600763Y-34556894D01*
X105600764Y-34556895D01*
X105619423Y-34559734D01*
X105768934Y-34582490D01*
X105938348Y-34567094D01*
X106006010Y-34546010D01*
X106480175Y-34349605D01*
X106542928Y-34316669D01*
X106673608Y-34207762D01*
X106681105Y-34197573D01*
X106736691Y-34155243D01*
X106780981Y-34147063D01*
X114078006Y-34147063D01*
X114078022Y-34147064D01*
X114085618Y-34147064D01*
X114243729Y-34147064D01*
X114243732Y-34147064D01*
X114396460Y-34106140D01*
X114457767Y-34070744D01*
X114533391Y-34027083D01*
X114645195Y-33915279D01*
X114645195Y-33915277D01*
X114655399Y-33905074D01*
X114655402Y-33905069D01*
X115652035Y-32908438D01*
X115713358Y-32874953D01*
X115739716Y-32872119D01*
X115889522Y-32872119D01*
X115956561Y-32891804D01*
X115977203Y-32908438D01*
X117974679Y-34905914D01*
X117974689Y-34905925D01*
X117979019Y-34910255D01*
X117979020Y-34910256D01*
X118090824Y-35022060D01*
X118177635Y-35072179D01*
X118177637Y-35072181D01*
X118215691Y-35094151D01*
X118227755Y-35101117D01*
X118380483Y-35142040D01*
X125191244Y-35142040D01*
X125191248Y-35142041D01*
X125349362Y-35142041D01*
X125361509Y-35138785D01*
X125376682Y-35138510D01*
X125396319Y-35143890D01*
X125416670Y-35144371D01*
X125426381Y-35147926D01*
X125497629Y-35177438D01*
X125565291Y-35198522D01*
X125734705Y-35213918D01*
X125747204Y-35212015D01*
X125816441Y-35221384D01*
X125853548Y-35246920D01*
X131130510Y-40523883D01*
X131130512Y-40523884D01*
X131130516Y-40523887D01*
X131267435Y-40602936D01*
X131267442Y-40602940D01*
X131420169Y-40643864D01*
X131420171Y-40643864D01*
X131585880Y-40643864D01*
X131585896Y-40643863D01*
X132083503Y-40643863D01*
X132150542Y-40663548D01*
X132196297Y-40716352D01*
X132206241Y-40785510D01*
X132177216Y-40849066D01*
X132171184Y-40855544D01*
X123925047Y-49101681D01*
X123863724Y-49135166D01*
X123837366Y-49138000D01*
X123010999Y-49138000D01*
X122943960Y-49118315D01*
X122898205Y-49065511D01*
X122887202Y-49014934D01*
X122887176Y-49014936D01*
X122887167Y-49014773D01*
X122886999Y-49014000D01*
X122886999Y-49011629D01*
X122886998Y-49011623D01*
X122886997Y-49011616D01*
X122880591Y-48952017D01*
X122849556Y-48868809D01*
X122830297Y-48817171D01*
X122830293Y-48817164D01*
X122744047Y-48701955D01*
X122744044Y-48701952D01*
X122628835Y-48615706D01*
X122628828Y-48615702D01*
X122493982Y-48565408D01*
X122493983Y-48565408D01*
X122434383Y-48559001D01*
X122434381Y-48559000D01*
X122434373Y-48559000D01*
X122434364Y-48559000D01*
X120980629Y-48559000D01*
X120980623Y-48559001D01*
X120921016Y-48565408D01*
X120786171Y-48615702D01*
X120786164Y-48615706D01*
X120670955Y-48701952D01*
X120670952Y-48701955D01*
X120584706Y-48817164D01*
X120584702Y-48817171D01*
X120534408Y-48952017D01*
X120528001Y-49011616D01*
X120528001Y-49011623D01*
X120528000Y-49011635D01*
X120528000Y-49950403D01*
X120508315Y-50017442D01*
X120455511Y-50063197D01*
X120386353Y-50073141D01*
X120322797Y-50044116D01*
X120316319Y-50038084D01*
X108793227Y-38514992D01*
X108793225Y-38514989D01*
X108674354Y-38396118D01*
X108674353Y-38396117D01*
X108587541Y-38345997D01*
X108587541Y-38345996D01*
X108587537Y-38345995D01*
X108537422Y-38317060D01*
X108384694Y-38276136D01*
X108226580Y-38276136D01*
X108218984Y-38276136D01*
X108218968Y-38276137D01*
X98037725Y-38276137D01*
X97970686Y-38256452D01*
X97950044Y-38239818D01*
X97914402Y-38204176D01*
X97880917Y-38142853D01*
X97885901Y-38073161D01*
X97914402Y-38028814D01*
X106226398Y-29716819D01*
X106287721Y-29683334D01*
X106314079Y-29680500D01*
X107180140Y-29680500D01*
X107247179Y-29700185D01*
G37*
%TD.AperFunction*%
%TA.AperFunction,NonConductor*%
G36*
X140926392Y-47197866D02*
G01*
X140974002Y-47249003D01*
X140987119Y-47304508D01*
X140987119Y-55870119D01*
X140967434Y-55937158D01*
X140914630Y-55982913D01*
X140863119Y-55994119D01*
X140812716Y-55994119D01*
X140745677Y-55974434D01*
X140699922Y-55921630D01*
X140696731Y-55899442D01*
X140578398Y-55809550D01*
X140536922Y-55753323D01*
X140531790Y-55686618D01*
X140563174Y-55528844D01*
X140563174Y-55371155D01*
X140563173Y-55371153D01*
X140547719Y-55293460D01*
X140532411Y-55216503D01*
X140501489Y-55141849D01*
X140472071Y-55070827D01*
X140472064Y-55070814D01*
X140384463Y-54939711D01*
X140384460Y-54939707D01*
X140272966Y-54828213D01*
X140272962Y-54828210D01*
X140141859Y-54740609D01*
X140141846Y-54740602D01*
X139996175Y-54680264D01*
X139996165Y-54680261D01*
X139862982Y-54653769D01*
X139801071Y-54621384D01*
X139766497Y-54560668D01*
X139763174Y-54532152D01*
X139763174Y-49406289D01*
X139782859Y-49339250D01*
X139829548Y-49296493D01*
X139876405Y-49271900D01*
X139876404Y-49271900D01*
X139876407Y-49271899D01*
X140007087Y-49162992D01*
X140107906Y-49025974D01*
X140173005Y-48868812D01*
X140195940Y-48718120D01*
X140198601Y-48700637D01*
X140196281Y-48675112D01*
X140183205Y-48531222D01*
X140162121Y-48463560D01*
X139965716Y-47989395D01*
X139932780Y-47926642D01*
X139913814Y-47903884D01*
X139886018Y-47839784D01*
X139897289Y-47770830D01*
X139944050Y-47718915D01*
X140009072Y-47700500D01*
X140108844Y-47700500D01*
X140108845Y-47700499D01*
X140263497Y-47669737D01*
X140409179Y-47609394D01*
X140540289Y-47521789D01*
X140651789Y-47410289D01*
X140739394Y-47279179D01*
X140739395Y-47279176D01*
X140739397Y-47279173D01*
X140748558Y-47257056D01*
X140792398Y-47202652D01*
X140858692Y-47180587D01*
X140926392Y-47197866D01*
G37*
%TD.AperFunction*%
%TA.AperFunction,NonConductor*%
G36*
X89771848Y-45142513D02*
G01*
X89827781Y-45184385D01*
X89852198Y-45249849D01*
X89852514Y-45258695D01*
X89852514Y-48149566D01*
X89852513Y-48149584D01*
X89852513Y-48315291D01*
X89853574Y-48323349D01*
X89835441Y-48325736D01*
X89824858Y-48431097D01*
X89818073Y-48460915D01*
X89817119Y-48463548D01*
X89817114Y-48463565D01*
X89799378Y-48520486D01*
X89796032Y-48531223D01*
X89780635Y-48700637D01*
X89806230Y-48868805D01*
X89806231Y-48868809D01*
X89871330Y-49025973D01*
X89972148Y-49162990D01*
X89972147Y-49162990D01*
X89994935Y-49181981D01*
X90102830Y-49271899D01*
X90102832Y-49271900D01*
X90165587Y-49304837D01*
X90410516Y-49406289D01*
X90778330Y-49558642D01*
X90778336Y-49558644D01*
X90778339Y-49558645D01*
X90799080Y-49565108D01*
X90845992Y-49579727D01*
X91015406Y-49595122D01*
X91015406Y-49595121D01*
X91015407Y-49595122D01*
X91183575Y-49569527D01*
X91183574Y-49569527D01*
X91183582Y-49569526D01*
X91340744Y-49504427D01*
X91477762Y-49403608D01*
X91586669Y-49272928D01*
X91619605Y-49210175D01*
X91650939Y-49134529D01*
X91694780Y-49080125D01*
X91761074Y-49058060D01*
X91828773Y-49075339D01*
X91876384Y-49126476D01*
X91889500Y-49181981D01*
X91889500Y-53271141D01*
X91869815Y-53338180D01*
X91853181Y-53358822D01*
X89254203Y-55957800D01*
X89192880Y-55991285D01*
X89166522Y-55994119D01*
X89116119Y-55994119D01*
X89049080Y-55974434D01*
X89003325Y-55921630D01*
X88992119Y-55870119D01*
X88992119Y-45871090D01*
X89011804Y-45804051D01*
X89028438Y-45783409D01*
X89640833Y-45171014D01*
X89702156Y-45137529D01*
X89771848Y-45142513D01*
G37*
%TD.AperFunction*%
%TA.AperFunction,NonConductor*%
G36*
X134636074Y-40615901D02*
G01*
X134680422Y-40644402D01*
X139940892Y-45904872D01*
X139974377Y-45966195D01*
X139969393Y-46035887D01*
X139927521Y-46091820D01*
X139877403Y-46114170D01*
X139796508Y-46130261D01*
X139796498Y-46130264D01*
X139650827Y-46190602D01*
X139650814Y-46190609D01*
X139519125Y-46278602D01*
X139452447Y-46299480D01*
X139450234Y-46299500D01*
X139271121Y-46299500D01*
X139204082Y-46279815D01*
X139197632Y-46275376D01*
X139055426Y-46170740D01*
X138944295Y-46124708D01*
X138898265Y-46105642D01*
X138898264Y-46105641D01*
X138898262Y-46105641D01*
X138898258Y-46105640D01*
X138730089Y-46080045D01*
X138560677Y-46095440D01*
X138560670Y-46095442D01*
X138493022Y-46116522D01*
X138493002Y-46116530D01*
X137880270Y-46370330D01*
X137817515Y-46403267D01*
X137686831Y-46512177D01*
X137586013Y-46649194D01*
X137520914Y-46806358D01*
X137520913Y-46806362D01*
X137495318Y-46974530D01*
X137503594Y-47065591D01*
X137510715Y-47143946D01*
X137512819Y-47150697D01*
X137531796Y-47211602D01*
X137728203Y-47685771D01*
X137745598Y-47718915D01*
X137761140Y-47748526D01*
X137809119Y-47806097D01*
X137870048Y-47879207D01*
X138007065Y-47980025D01*
X138140508Y-48035299D01*
X138194912Y-48079140D01*
X138216977Y-48145434D01*
X138207617Y-48197312D01*
X138152343Y-48330756D01*
X138152341Y-48330764D01*
X138126746Y-48498932D01*
X138142142Y-48668345D01*
X138144251Y-48675112D01*
X138145398Y-48744973D01*
X138113544Y-48799677D01*
X130191543Y-56721681D01*
X130130220Y-56755166D01*
X130103862Y-56758000D01*
X122792335Y-56758000D01*
X122725296Y-56738315D01*
X122692017Y-56706886D01*
X122607172Y-56590107D01*
X122475893Y-56458828D01*
X122325693Y-56349701D01*
X122160271Y-56265415D01*
X121983700Y-56208043D01*
X121983697Y-56208042D01*
X121979067Y-56206538D01*
X121979777Y-56204352D01*
X121927414Y-56174297D01*
X121895240Y-56112276D01*
X121901705Y-56042706D01*
X121944756Y-55987676D01*
X121979504Y-55971807D01*
X121979067Y-55970462D01*
X121983697Y-55968957D01*
X121983700Y-55968957D01*
X122160271Y-55911585D01*
X122325693Y-55827299D01*
X122475893Y-55718172D01*
X122607172Y-55586893D01*
X122716299Y-55436693D01*
X122800585Y-55271271D01*
X122857957Y-55094700D01*
X122875094Y-54986503D01*
X122887000Y-54911334D01*
X122887000Y-54725665D01*
X122866812Y-54598210D01*
X122857957Y-54542300D01*
X122800585Y-54365729D01*
X122716299Y-54200307D01*
X122607172Y-54050107D01*
X122475893Y-53918828D01*
X122325693Y-53809701D01*
X122160271Y-53725415D01*
X121983700Y-53668043D01*
X121983697Y-53668042D01*
X121979067Y-53666538D01*
X121979777Y-53664352D01*
X121927414Y-53634297D01*
X121895240Y-53572276D01*
X121901705Y-53502706D01*
X121944756Y-53447676D01*
X121979504Y-53431807D01*
X121979067Y-53430462D01*
X121983697Y-53428957D01*
X121983700Y-53428957D01*
X122160271Y-53371585D01*
X122325693Y-53287299D01*
X122475893Y-53178172D01*
X122607172Y-53046893D01*
X122716299Y-52896693D01*
X122800585Y-52731271D01*
X122857957Y-52554700D01*
X122877240Y-52432951D01*
X122887000Y-52371334D01*
X122887000Y-52185665D01*
X122857957Y-52002303D01*
X122857957Y-52002300D01*
X122800585Y-51825729D01*
X122716299Y-51660307D01*
X122607172Y-51510107D01*
X122475893Y-51378828D01*
X122325693Y-51269701D01*
X122160271Y-51185415D01*
X122081835Y-51159929D01*
X122024160Y-51120492D01*
X121996962Y-51056134D01*
X122008877Y-50987287D01*
X122056121Y-50935812D01*
X122120154Y-50917999D01*
X122434371Y-50917999D01*
X122434372Y-50917999D01*
X122493983Y-50911591D01*
X122628831Y-50861296D01*
X122744046Y-50775046D01*
X122830296Y-50659831D01*
X122880591Y-50524983D01*
X122887000Y-50465373D01*
X122887000Y-50463000D01*
X122887155Y-50462471D01*
X122887178Y-50462048D01*
X122887277Y-50462053D01*
X122906685Y-50395961D01*
X122959489Y-50350206D01*
X123011000Y-50339000D01*
X124050794Y-50339000D01*
X124050810Y-50339001D01*
X124058406Y-50339001D01*
X124216517Y-50339001D01*
X124216520Y-50339001D01*
X124369248Y-50298077D01*
X124419367Y-50269139D01*
X124506179Y-50219020D01*
X124617983Y-50107216D01*
X124617983Y-50107214D01*
X124628191Y-50097007D01*
X124628193Y-50097004D01*
X133609139Y-41116058D01*
X133670462Y-41082573D01*
X133696820Y-41079739D01*
X133864623Y-41079739D01*
X134029792Y-41039029D01*
X134180419Y-40959973D01*
X134234862Y-40914601D01*
X134505060Y-40644401D01*
X134566383Y-40610917D01*
X134636074Y-40615901D01*
G37*
%TD.AperFunction*%
%TA.AperFunction,NonConductor*%
G36*
X140930158Y-59464804D02*
G01*
X140975913Y-59517608D01*
X140987119Y-59569119D01*
X140987119Y-61308522D01*
X140967434Y-61375561D01*
X140914630Y-61421316D01*
X140845472Y-61431260D01*
X140781916Y-61402235D01*
X140775438Y-61396203D01*
X140424574Y-61045339D01*
X140391089Y-60984016D01*
X140390638Y-60981849D01*
X140359738Y-60826510D01*
X140359737Y-60826503D01*
X140304829Y-60693942D01*
X140299397Y-60680827D01*
X140299390Y-60680814D01*
X140211789Y-60549711D01*
X140211786Y-60549707D01*
X140100292Y-60438213D01*
X140100288Y-60438210D01*
X140026883Y-60389162D01*
X139982078Y-60335550D01*
X139973371Y-60266225D01*
X140003526Y-60203197D01*
X140008072Y-60198400D01*
X140725036Y-59481438D01*
X140786359Y-59447953D01*
X140812717Y-59445119D01*
X140863119Y-59445119D01*
X140930158Y-59464804D01*
G37*
%TD.AperFunction*%
%TA.AperFunction,NonConductor*%
G36*
X138973400Y-61575925D02*
G01*
X138979878Y-61581957D01*
X139079707Y-61681786D01*
X139079711Y-61681789D01*
X139210814Y-61769390D01*
X139210827Y-61769397D01*
X139356498Y-61829735D01*
X139356503Y-61829737D01*
X139421147Y-61842595D01*
X139511849Y-61860638D01*
X139573760Y-61893023D01*
X139575339Y-61894574D01*
X139793181Y-62112416D01*
X139826666Y-62173739D01*
X139829500Y-62200097D01*
X139829500Y-65955386D01*
X139809815Y-66022425D01*
X139757011Y-66068180D01*
X139687853Y-66078124D01*
X139658048Y-66069947D01*
X139200917Y-65880599D01*
X139200897Y-65880591D01*
X139133249Y-65859511D01*
X139133242Y-65859509D01*
X138963829Y-65844114D01*
X138910854Y-65852177D01*
X138841616Y-65842804D01*
X138788437Y-65797485D01*
X138768201Y-65730610D01*
X138768197Y-65729589D01*
X138768197Y-61669638D01*
X138787882Y-61602599D01*
X138840686Y-61556844D01*
X138909844Y-61546900D01*
X138973400Y-61575925D01*
G37*
%TD.AperFunction*%
%TA.AperFunction,NonConductor*%
G36*
X150844864Y-45721655D02*
G01*
X150881591Y-45777049D01*
X150943049Y-45966195D01*
X151003349Y-46151780D01*
X151004494Y-46155503D01*
X151345470Y-47329154D01*
X151346498Y-47332911D01*
X151650444Y-48516698D01*
X151651352Y-48520480D01*
X151672108Y-48613334D01*
X151917972Y-49713267D01*
X151918762Y-49717082D01*
X152147781Y-50917648D01*
X152148450Y-50921485D01*
X152339640Y-52128610D01*
X152340189Y-52132467D01*
X152493369Y-53345011D01*
X152493797Y-53348882D01*
X152608820Y-54565689D01*
X152609125Y-54569573D01*
X152685865Y-55789322D01*
X152686049Y-55793213D01*
X152724440Y-57014828D01*
X152724501Y-57018723D01*
X152724501Y-58240908D01*
X152724440Y-58244803D01*
X152686049Y-59466418D01*
X152685865Y-59470309D01*
X152609125Y-60690058D01*
X152608820Y-60693942D01*
X152493797Y-61910749D01*
X152493369Y-61914620D01*
X152340189Y-63127164D01*
X152339640Y-63131021D01*
X152148450Y-64338146D01*
X152147781Y-64341983D01*
X151918762Y-65542549D01*
X151917972Y-65546364D01*
X151659675Y-66701919D01*
X151625840Y-66763050D01*
X151564327Y-66796184D01*
X151494665Y-66790801D01*
X151438971Y-66748611D01*
X151414928Y-66683008D01*
X151414661Y-66674869D01*
X151414661Y-57194094D01*
X151414662Y-57194081D01*
X151414662Y-57025978D01*
X151412195Y-57016770D01*
X151373738Y-56873250D01*
X151301549Y-56748213D01*
X151294685Y-56736324D01*
X151294679Y-56736316D01*
X151050980Y-56492617D01*
X151017495Y-56431294D01*
X151014661Y-56404936D01*
X151014661Y-56063365D01*
X151014660Y-56063352D01*
X151005149Y-55970258D01*
X151004597Y-55964849D01*
X150951710Y-55805247D01*
X150951706Y-55805241D01*
X150951705Y-55805238D01*
X150863444Y-55662146D01*
X150863441Y-55662142D01*
X150744551Y-55543252D01*
X150698563Y-55514886D01*
X150651839Y-55462937D01*
X150639661Y-55409348D01*
X150639661Y-45815368D01*
X150659346Y-45748329D01*
X150712150Y-45702574D01*
X150781308Y-45692630D01*
X150844864Y-45721655D01*
G37*
%TD.AperFunction*%
%TA.AperFunction,NonConductor*%
G36*
X87815703Y-57986743D02*
G01*
X87841887Y-58018456D01*
X87846194Y-58025916D01*
X87911096Y-58138331D01*
X87911100Y-58138336D01*
X88029968Y-58257204D01*
X88029974Y-58257209D01*
X88154800Y-58382035D01*
X88188285Y-58443358D01*
X88191119Y-58469716D01*
X88191119Y-58801232D01*
X88197532Y-58871811D01*
X88197532Y-58871813D01*
X88197533Y-58871815D01*
X88211153Y-58915523D01*
X88248141Y-59034225D01*
X88336149Y-59179807D01*
X88456430Y-59300088D01*
X88456432Y-59300089D01*
X88456434Y-59300091D01*
X88602013Y-59388097D01*
X88764423Y-59438705D01*
X88835003Y-59445119D01*
X88835006Y-59445119D01*
X89498232Y-59445119D01*
X89498235Y-59445119D01*
X89568815Y-59438705D01*
X89731225Y-59388097D01*
X89876804Y-59300091D01*
X89997091Y-59179804D01*
X90085097Y-59034225D01*
X90135705Y-58871815D01*
X90142119Y-58801235D01*
X90142119Y-58288003D01*
X90135705Y-58217423D01*
X90125815Y-58185687D01*
X90124664Y-58115828D01*
X90161465Y-58056436D01*
X90224534Y-58026368D01*
X90293847Y-58035170D01*
X90331882Y-58061117D01*
X90813181Y-58542416D01*
X90846666Y-58603739D01*
X90849500Y-58630097D01*
X90849500Y-65768261D01*
X90829815Y-65835300D01*
X90777011Y-65881055D01*
X90772953Y-65882822D01*
X90165584Y-66134401D01*
X90102832Y-66167336D01*
X89972148Y-66276246D01*
X89871330Y-66413263D01*
X89806231Y-66570427D01*
X89806230Y-66570431D01*
X89780635Y-66738599D01*
X89793233Y-66877221D01*
X89796032Y-66908015D01*
X89803524Y-66932058D01*
X89817113Y-66975671D01*
X90013520Y-67449840D01*
X90046455Y-67512593D01*
X90085937Y-67559968D01*
X90113735Y-67624071D01*
X90102463Y-67693025D01*
X90055701Y-67744939D01*
X89990680Y-67763354D01*
X88753952Y-67763354D01*
X88686913Y-67743669D01*
X88666271Y-67727035D01*
X88444573Y-67505337D01*
X88411088Y-67444014D01*
X88410637Y-67441847D01*
X88398109Y-67378866D01*
X88379737Y-67286503D01*
X88361272Y-67241923D01*
X88319397Y-67140827D01*
X88319390Y-67140814D01*
X88231789Y-67009711D01*
X88231786Y-67009707D01*
X88120292Y-66898213D01*
X88120288Y-66898210D01*
X87989185Y-66810609D01*
X87989172Y-66810602D01*
X87843501Y-66750264D01*
X87843491Y-66750261D01*
X87710308Y-66723769D01*
X87648397Y-66691384D01*
X87613823Y-66630668D01*
X87610500Y-66602152D01*
X87610500Y-58080456D01*
X87630185Y-58013417D01*
X87682989Y-57967662D01*
X87752147Y-57957718D01*
X87815703Y-57986743D01*
G37*
%TD.AperFunction*%
%TA.AperFunction,NonConductor*%
G36*
X82009822Y-44129515D02*
G01*
X82045397Y-44154355D01*
X85973181Y-48082139D01*
X86006666Y-48143462D01*
X86009500Y-48169820D01*
X86009500Y-67847544D01*
X86009499Y-67847562D01*
X86009499Y-68013268D01*
X86009498Y-68013268D01*
X86050423Y-68165999D01*
X86053022Y-68170500D01*
X86053025Y-68170506D01*
X86129477Y-68302926D01*
X86129481Y-68302931D01*
X86248349Y-68421799D01*
X86248355Y-68421804D01*
X87113217Y-69286666D01*
X87146702Y-69347989D01*
X87141718Y-69417681D01*
X87099846Y-69473614D01*
X87034382Y-69498031D01*
X87025536Y-69498347D01*
X81702213Y-69498347D01*
X81635174Y-69478662D01*
X81593068Y-69433197D01*
X81570857Y-69392004D01*
X81570856Y-69392002D01*
X81460919Y-69264790D01*
X81324607Y-69166357D01*
X81169270Y-69102015D01*
X81169267Y-69102014D01*
X81003282Y-69075229D01*
X81003278Y-69075228D01*
X80854508Y-69086066D01*
X80835588Y-69087445D01*
X80835586Y-69087445D01*
X80835580Y-69087446D01*
X80740729Y-69115844D01*
X80740724Y-69115845D01*
X80740724Y-69115846D01*
X80343790Y-69280261D01*
X80178684Y-69348650D01*
X80091523Y-69395646D01*
X80007258Y-69468467D01*
X79943664Y-69497407D01*
X79874519Y-69487372D01*
X79838499Y-69462327D01*
X79029980Y-68653808D01*
X78996495Y-68592485D01*
X78993661Y-68566127D01*
X78993661Y-58825719D01*
X79013346Y-58758680D01*
X79052562Y-58720181D01*
X79098552Y-58691815D01*
X79217442Y-58572925D01*
X79305710Y-58429821D01*
X79358597Y-58270219D01*
X79368661Y-58171708D01*
X79368661Y-57830130D01*
X79388346Y-57763091D01*
X79404975Y-57742454D01*
X81177167Y-55970261D01*
X81177172Y-55970258D01*
X81187375Y-55960054D01*
X81187377Y-55960054D01*
X81299181Y-55848250D01*
X81359429Y-55743897D01*
X81378238Y-55711319D01*
X81419162Y-55558591D01*
X81419162Y-55400477D01*
X81419162Y-55392882D01*
X81419161Y-55392864D01*
X81419161Y-45063102D01*
X81438846Y-44996063D01*
X81459390Y-44971677D01*
X81460912Y-44970281D01*
X81460919Y-44970277D01*
X81570857Y-44843063D01*
X81617854Y-44755902D01*
X81821957Y-44263153D01*
X81838927Y-44206469D01*
X81877009Y-44147896D01*
X81940717Y-44119207D01*
X82009822Y-44129515D01*
G37*
%TD.AperFunction*%
%TA.AperFunction,NonConductor*%
G36*
X128236942Y-30100185D02*
G01*
X128257584Y-30116819D01*
X142659481Y-44518716D01*
X142771284Y-44630519D01*
X142908215Y-44709577D01*
X143060943Y-44750501D01*
X143060946Y-44750501D01*
X143219055Y-44750501D01*
X143219057Y-44750501D01*
X143240583Y-44744732D01*
X143254722Y-44740945D01*
X143286814Y-44736720D01*
X146730108Y-44736720D01*
X146797147Y-44756405D01*
X146839252Y-44801869D01*
X146851191Y-44824011D01*
X146861464Y-44843064D01*
X146942970Y-44937377D01*
X146971402Y-44970277D01*
X147107714Y-45068710D01*
X147263052Y-45133052D01*
X147429041Y-45159838D01*
X147429041Y-45159837D01*
X147429042Y-45159838D01*
X147438501Y-45159148D01*
X147596733Y-45147622D01*
X147691597Y-45119221D01*
X148253637Y-44886417D01*
X148340798Y-44839420D01*
X148468012Y-44729482D01*
X148501111Y-44683643D01*
X148556313Y-44640818D01*
X148625909Y-44634635D01*
X148687799Y-44667060D01*
X148689321Y-44668556D01*
X149402342Y-45381577D01*
X149435827Y-45442900D01*
X149438661Y-45469258D01*
X149438661Y-55409348D01*
X149418976Y-55476387D01*
X149379759Y-55514886D01*
X149333770Y-55543252D01*
X149214880Y-55662142D01*
X149214877Y-55662146D01*
X149126616Y-55805238D01*
X149126611Y-55805249D01*
X149112362Y-55848250D01*
X149073725Y-55964849D01*
X149073725Y-55964850D01*
X149073724Y-55964850D01*
X149063661Y-56063352D01*
X149063661Y-56596715D01*
X149073724Y-56695217D01*
X149126611Y-56854818D01*
X149126616Y-56854829D01*
X149214877Y-56997921D01*
X149214880Y-56997925D01*
X149246808Y-57029853D01*
X149280293Y-57091176D01*
X149275309Y-57160868D01*
X149252523Y-57199101D01*
X149249771Y-57202251D01*
X149214880Y-57237143D01*
X149204255Y-57254368D01*
X149197502Y-57262101D01*
X149176346Y-57275580D01*
X149157696Y-57292356D01*
X149145762Y-57295067D01*
X149138577Y-57299646D01*
X149125834Y-57299596D01*
X149104106Y-57304534D01*
X148064925Y-57304534D01*
X147997886Y-57284849D01*
X147952131Y-57232045D01*
X147943308Y-57204726D01*
X147929738Y-57136508D01*
X147929737Y-57136507D01*
X147929737Y-57136503D01*
X147907286Y-57082300D01*
X147869397Y-56990827D01*
X147869390Y-56990814D01*
X147781789Y-56859711D01*
X147781786Y-56859707D01*
X147670292Y-56748213D01*
X147670288Y-56748210D01*
X147539185Y-56660609D01*
X147539172Y-56660602D01*
X147393501Y-56600264D01*
X147393489Y-56600261D01*
X147238845Y-56569500D01*
X147238842Y-56569500D01*
X147081158Y-56569500D01*
X147081155Y-56569500D01*
X146926510Y-56600261D01*
X146926498Y-56600264D01*
X146780827Y-56660602D01*
X146780814Y-56660609D01*
X146649711Y-56748210D01*
X146649707Y-56748213D01*
X146538213Y-56859707D01*
X146538210Y-56859711D01*
X146450609Y-56990814D01*
X146450602Y-56990827D01*
X146390264Y-57136498D01*
X146390261Y-57136510D01*
X146359500Y-57291153D01*
X146359500Y-57448846D01*
X146390261Y-57603489D01*
X146390264Y-57603501D01*
X146450602Y-57749172D01*
X146450609Y-57749185D01*
X146538210Y-57880288D01*
X146538213Y-57880292D01*
X146649707Y-57991786D01*
X146649711Y-57991789D01*
X146780814Y-58079390D01*
X146780827Y-58079397D01*
X146926498Y-58139735D01*
X146926503Y-58139737D01*
X146991147Y-58152595D01*
X147081849Y-58170638D01*
X147143760Y-58203023D01*
X147145339Y-58204574D01*
X147210173Y-58269408D01*
X147210183Y-58269419D01*
X147214513Y-58273749D01*
X147214514Y-58273750D01*
X147326318Y-58385554D01*
X147326320Y-58385555D01*
X147326324Y-58385558D01*
X147440688Y-58451585D01*
X147463250Y-58464611D01*
X147575053Y-58494568D01*
X147615976Y-58505534D01*
X147615977Y-58505534D01*
X149104106Y-58505534D01*
X149171145Y-58525219D01*
X149209644Y-58564437D01*
X149214877Y-58572921D01*
X149214880Y-58572925D01*
X149333769Y-58691814D01*
X149333773Y-58691817D01*
X149476865Y-58780078D01*
X149476868Y-58780079D01*
X149476874Y-58780083D01*
X149636476Y-58832970D01*
X149734987Y-58843034D01*
X150089661Y-58843034D01*
X150156700Y-58862719D01*
X150202455Y-58915523D01*
X150213661Y-58967034D01*
X150213661Y-66598248D01*
X150193976Y-66665287D01*
X150177342Y-66685929D01*
X147786899Y-69076371D01*
X147725576Y-69109856D01*
X147663653Y-69107480D01*
X147596738Y-69087446D01*
X147596735Y-69087445D01*
X147596733Y-69087445D01*
X147568351Y-69085377D01*
X147429042Y-69075228D01*
X147429038Y-69075229D01*
X147263053Y-69102014D01*
X147263050Y-69102015D01*
X147107713Y-69166357D01*
X146971401Y-69264790D01*
X146861463Y-69392004D01*
X146814468Y-69479162D01*
X146610363Y-69971916D01*
X146593394Y-70028595D01*
X146555309Y-70087172D01*
X146491600Y-70115860D01*
X146422495Y-70105550D01*
X146386923Y-70080711D01*
X144726819Y-68420607D01*
X144693334Y-68359284D01*
X144690500Y-68332926D01*
X144690500Y-48728119D01*
X144690501Y-48728106D01*
X144690501Y-48560005D01*
X144690501Y-48560003D01*
X144649577Y-48407275D01*
X144616033Y-48349176D01*
X144616033Y-48349175D01*
X144570522Y-48270347D01*
X144570521Y-48270346D01*
X144570520Y-48270344D01*
X144458716Y-48158540D01*
X144458715Y-48158539D01*
X144454385Y-48154209D01*
X144454374Y-48154199D01*
X129121544Y-32821369D01*
X129121542Y-32821366D01*
X129002671Y-32702495D01*
X129002670Y-32702494D01*
X128915858Y-32652374D01*
X128915858Y-32652373D01*
X128915854Y-32652372D01*
X128865739Y-32623437D01*
X128713011Y-32582513D01*
X128554897Y-32582513D01*
X128547301Y-32582513D01*
X128547285Y-32582514D01*
X124552062Y-32582514D01*
X124552058Y-32582513D01*
X124393944Y-32582513D01*
X124381798Y-32585767D01*
X124366623Y-32586043D01*
X124346968Y-32580657D01*
X124326599Y-32580170D01*
X124316918Y-32576624D01*
X124245683Y-32547118D01*
X124245677Y-32547116D01*
X124178015Y-32526032D01*
X124147221Y-32523233D01*
X124008599Y-32510635D01*
X123840431Y-32536230D01*
X123840427Y-32536231D01*
X123683263Y-32601330D01*
X123546246Y-32702148D01*
X123437336Y-32832832D01*
X123404399Y-32895587D01*
X123150599Y-33508319D01*
X123150591Y-33508339D01*
X123129511Y-33575987D01*
X123129509Y-33575994D01*
X123114114Y-33745407D01*
X123122177Y-33798383D01*
X123112804Y-33867621D01*
X123067485Y-33920800D01*
X123000610Y-33941036D01*
X122999589Y-33941040D01*
X118759637Y-33941040D01*
X118692598Y-33921355D01*
X118671956Y-33904721D01*
X116751438Y-31984203D01*
X116717953Y-31922880D01*
X116715119Y-31896522D01*
X116715119Y-31565005D01*
X116708705Y-31494426D01*
X116708705Y-31494423D01*
X116658097Y-31332013D01*
X116570091Y-31186434D01*
X116570089Y-31186432D01*
X116570088Y-31186430D01*
X116449807Y-31066149D01*
X116304225Y-30978141D01*
X116259216Y-30964116D01*
X116141815Y-30927533D01*
X116141813Y-30927532D01*
X116141811Y-30927532D01*
X116092397Y-30923042D01*
X116071235Y-30921119D01*
X115558003Y-30921119D01*
X115487423Y-30927533D01*
X115455963Y-30937335D01*
X115353151Y-30969372D01*
X115353146Y-30969374D01*
X115325013Y-30978141D01*
X115229088Y-31036129D01*
X115229086Y-31036131D01*
X115179430Y-31066149D01*
X115179429Y-31066150D01*
X115077300Y-31168280D01*
X115015977Y-31201765D01*
X114946285Y-31196781D01*
X114901938Y-31168280D01*
X114822112Y-31088454D01*
X114788627Y-31027131D01*
X114793611Y-30957439D01*
X114835483Y-30901506D01*
X114885602Y-30879156D01*
X114963419Y-30863676D01*
X115033497Y-30849737D01*
X115179179Y-30789394D01*
X115310289Y-30701789D01*
X115421789Y-30590289D01*
X115509394Y-30459179D01*
X115569737Y-30313497D01*
X115582424Y-30249716D01*
X115596231Y-30180308D01*
X115628616Y-30118397D01*
X115689332Y-30083823D01*
X115717848Y-30080500D01*
X128169903Y-30080500D01*
X128236942Y-30100185D01*
G37*
%TD.AperFunction*%
%TA.AperFunction,NonConductor*%
G36*
X114665942Y-48630185D02*
G01*
X114686584Y-48646819D01*
X120515788Y-54476023D01*
X120549273Y-54537346D01*
X120550580Y-54583102D01*
X120528000Y-54725665D01*
X120528000Y-54911334D01*
X120555096Y-55082409D01*
X120557043Y-55094700D01*
X120614415Y-55271271D01*
X120698701Y-55436693D01*
X120807828Y-55586893D01*
X120939107Y-55718172D01*
X121089307Y-55827299D01*
X121254729Y-55911585D01*
X121431300Y-55968957D01*
X121431302Y-55968957D01*
X121435933Y-55970462D01*
X121435226Y-55972635D01*
X121487629Y-56002748D01*
X121519771Y-56064786D01*
X121513271Y-56134352D01*
X121470192Y-56189361D01*
X121435499Y-56205204D01*
X121435933Y-56206538D01*
X121431302Y-56208042D01*
X121431300Y-56208043D01*
X121254729Y-56265415D01*
X121254726Y-56265416D01*
X121089306Y-56349701D01*
X121013283Y-56404936D01*
X120939107Y-56458828D01*
X120939105Y-56458830D01*
X120939104Y-56458830D01*
X120807830Y-56590104D01*
X120807830Y-56590105D01*
X120807828Y-56590107D01*
X120760962Y-56654611D01*
X120698701Y-56740306D01*
X120614416Y-56905726D01*
X120557042Y-57082303D01*
X120528000Y-57265665D01*
X120528000Y-57451334D01*
X120555992Y-57628065D01*
X120557043Y-57634700D01*
X120614415Y-57811271D01*
X120698701Y-57976693D01*
X120807828Y-58126893D01*
X120939107Y-58258172D01*
X121089307Y-58367299D01*
X121254729Y-58451585D01*
X121431300Y-58508957D01*
X121431302Y-58508957D01*
X121435933Y-58510462D01*
X121435226Y-58512635D01*
X121487629Y-58542748D01*
X121519771Y-58604786D01*
X121513271Y-58674352D01*
X121470192Y-58729361D01*
X121435499Y-58745204D01*
X121435933Y-58746538D01*
X121431302Y-58748042D01*
X121431300Y-58748043D01*
X121267603Y-58801232D01*
X121254726Y-58805416D01*
X121089306Y-58889701D01*
X121053766Y-58915523D01*
X120939107Y-58998828D01*
X120939105Y-58998830D01*
X120939104Y-58998830D01*
X120807830Y-59130104D01*
X120807830Y-59130105D01*
X120807828Y-59130107D01*
X120771721Y-59179804D01*
X120698701Y-59280306D01*
X120614416Y-59445726D01*
X120557042Y-59622303D01*
X120528000Y-59805665D01*
X120528000Y-59991334D01*
X120557042Y-60174696D01*
X120557043Y-60174700D01*
X120614415Y-60351271D01*
X120698701Y-60516693D01*
X120807828Y-60666893D01*
X120939107Y-60798172D01*
X121089307Y-60907299D01*
X121254729Y-60991585D01*
X121431300Y-61048957D01*
X121431302Y-61048957D01*
X121435933Y-61050462D01*
X121435226Y-61052635D01*
X121487629Y-61082748D01*
X121519771Y-61144786D01*
X121513271Y-61214352D01*
X121470192Y-61269361D01*
X121435499Y-61285204D01*
X121435933Y-61286538D01*
X121431302Y-61288042D01*
X121431300Y-61288043D01*
X121254729Y-61345415D01*
X121254726Y-61345416D01*
X121089306Y-61429701D01*
X121003611Y-61491962D01*
X120939107Y-61538828D01*
X120939105Y-61538830D01*
X120939104Y-61538830D01*
X120807830Y-61670104D01*
X120807830Y-61670105D01*
X120807828Y-61670107D01*
X120799343Y-61681786D01*
X120698701Y-61820306D01*
X120614416Y-61985726D01*
X120557042Y-62162303D01*
X120528000Y-62345665D01*
X120528000Y-62531334D01*
X120557042Y-62714696D01*
X120557043Y-62714700D01*
X120614415Y-62891271D01*
X120698701Y-63056693D01*
X120807828Y-63206893D01*
X120939107Y-63338172D01*
X121089307Y-63447299D01*
X121254729Y-63531585D01*
X121431300Y-63588957D01*
X121431302Y-63588957D01*
X121435933Y-63590462D01*
X121435226Y-63592635D01*
X121487629Y-63622748D01*
X121519771Y-63684786D01*
X121513271Y-63754352D01*
X121470192Y-63809361D01*
X121435499Y-63825204D01*
X121435933Y-63826538D01*
X121431302Y-63828042D01*
X121431300Y-63828043D01*
X121254729Y-63885415D01*
X121254726Y-63885416D01*
X121089306Y-63969701D01*
X121003611Y-64031962D01*
X120939107Y-64078828D01*
X120939105Y-64078830D01*
X120939104Y-64078830D01*
X120807830Y-64210104D01*
X120807830Y-64210105D01*
X120807828Y-64210107D01*
X120760962Y-64274611D01*
X120698701Y-64360306D01*
X120614416Y-64525726D01*
X120557042Y-64702303D01*
X120528000Y-64885665D01*
X120528000Y-65071334D01*
X120557042Y-65254696D01*
X120557043Y-65254700D01*
X120614415Y-65431271D01*
X120698701Y-65596693D01*
X120807828Y-65746893D01*
X120939107Y-65878172D01*
X121089307Y-65987299D01*
X121254729Y-66071585D01*
X121431300Y-66128957D01*
X121500064Y-66139848D01*
X121614666Y-66158000D01*
X121614671Y-66158000D01*
X121800334Y-66158000D01*
X121902201Y-66141865D01*
X121983700Y-66128957D01*
X122160271Y-66071585D01*
X122325693Y-65987299D01*
X122475893Y-65878172D01*
X122607172Y-65746893D01*
X122716299Y-65596693D01*
X122800585Y-65431271D01*
X122857957Y-65254700D01*
X122870865Y-65173201D01*
X122887000Y-65071334D01*
X122887000Y-64885665D01*
X122857957Y-64702303D01*
X122857957Y-64702300D01*
X122800585Y-64525729D01*
X122716299Y-64360307D01*
X122607172Y-64210107D01*
X122475893Y-64078828D01*
X122325693Y-63969701D01*
X122160271Y-63885415D01*
X121983700Y-63828043D01*
X121983697Y-63828042D01*
X121979067Y-63826538D01*
X121979777Y-63824352D01*
X121927414Y-63794297D01*
X121895240Y-63732276D01*
X121901705Y-63662706D01*
X121944756Y-63607676D01*
X121979504Y-63591807D01*
X121979067Y-63590462D01*
X121983697Y-63588957D01*
X121983700Y-63588957D01*
X122160271Y-63531585D01*
X122325693Y-63447299D01*
X122475893Y-63338172D01*
X122607172Y-63206893D01*
X122716299Y-63056693D01*
X122800585Y-62891271D01*
X122857957Y-62714700D01*
X122870865Y-62633201D01*
X122887000Y-62531334D01*
X122887000Y-62345665D01*
X122863943Y-62200097D01*
X122857957Y-62162300D01*
X122800585Y-61985729D01*
X122716299Y-61820307D01*
X122607172Y-61670107D01*
X122475893Y-61538828D01*
X122325693Y-61429701D01*
X122160271Y-61345415D01*
X121983700Y-61288043D01*
X121983697Y-61288042D01*
X121979067Y-61286538D01*
X121979777Y-61284352D01*
X121927414Y-61254297D01*
X121895240Y-61192276D01*
X121901705Y-61122706D01*
X121944756Y-61067676D01*
X121979504Y-61051807D01*
X121979067Y-61050462D01*
X121983697Y-61048957D01*
X121983700Y-61048957D01*
X122160271Y-60991585D01*
X122325693Y-60907299D01*
X122475893Y-60798172D01*
X122607172Y-60666893D01*
X122716299Y-60516693D01*
X122800585Y-60351271D01*
X122857957Y-60174700D01*
X122870865Y-60093201D01*
X122887000Y-59991334D01*
X122887000Y-59805665D01*
X122857957Y-59622303D01*
X122857957Y-59622300D01*
X122800585Y-59445729D01*
X122716299Y-59280307D01*
X122607172Y-59130107D01*
X122475893Y-58998828D01*
X122325693Y-58889701D01*
X122160271Y-58805415D01*
X121983700Y-58748043D01*
X121983697Y-58748042D01*
X121979067Y-58746538D01*
X121979777Y-58744352D01*
X121927414Y-58714297D01*
X121895240Y-58652276D01*
X121901705Y-58582706D01*
X121944756Y-58527676D01*
X121979504Y-58511807D01*
X121979067Y-58510462D01*
X121983697Y-58508957D01*
X121983700Y-58508957D01*
X122160271Y-58451585D01*
X122325693Y-58367299D01*
X122475893Y-58258172D01*
X122607172Y-58126893D01*
X122692017Y-58010113D01*
X122747347Y-57967449D01*
X122792335Y-57959000D01*
X130317290Y-57959000D01*
X130317306Y-57959001D01*
X130324902Y-57959001D01*
X130483013Y-57959001D01*
X130483016Y-57959001D01*
X130635744Y-57918077D01*
X130709877Y-57875276D01*
X130772675Y-57839020D01*
X130884479Y-57727216D01*
X130884479Y-57727214D01*
X130894683Y-57717011D01*
X130894686Y-57717006D01*
X138350495Y-50261198D01*
X138411816Y-50227715D01*
X138481508Y-50232699D01*
X138537441Y-50274571D01*
X138561858Y-50340035D01*
X138562174Y-50348881D01*
X138562174Y-56808004D01*
X138562173Y-56808022D01*
X138562173Y-56973728D01*
X138562172Y-56973728D01*
X138603097Y-57126459D01*
X138632032Y-57176574D01*
X138632033Y-57176578D01*
X138632034Y-57176578D01*
X138682153Y-57263388D01*
X138682155Y-57263391D01*
X138801023Y-57382259D01*
X138801029Y-57382264D01*
X139800800Y-58382035D01*
X139834285Y-58443358D01*
X139837119Y-58469716D01*
X139837119Y-58619521D01*
X139817434Y-58686560D01*
X139800800Y-58707202D01*
X137687178Y-60820823D01*
X137687172Y-60820831D01*
X137637252Y-60907297D01*
X137637252Y-60907298D01*
X137608120Y-60957755D01*
X137608120Y-60957756D01*
X137567196Y-61110484D01*
X137567196Y-61110486D01*
X137567196Y-61278587D01*
X137567197Y-61278600D01*
X137567197Y-67921244D01*
X137567196Y-67921248D01*
X137567196Y-68079362D01*
X137570450Y-68091507D01*
X137570726Y-68106682D01*
X137565342Y-68126329D01*
X137564857Y-68146695D01*
X137561307Y-68156387D01*
X137531801Y-68227622D01*
X137510715Y-68295292D01*
X137495318Y-68464706D01*
X137497222Y-68477215D01*
X137487846Y-68546453D01*
X137462314Y-68583548D01*
X132572181Y-73473682D01*
X132510858Y-73507167D01*
X132441166Y-73502183D01*
X132385233Y-73460311D01*
X132360816Y-73394847D01*
X132360500Y-73386001D01*
X132360500Y-71944867D01*
X132380185Y-71877828D01*
X132381398Y-71875976D01*
X132381995Y-71875081D01*
X132439394Y-71789179D01*
X132499737Y-71643497D01*
X132530500Y-71488842D01*
X132530500Y-71331158D01*
X132530500Y-71331155D01*
X132530499Y-71331153D01*
X132499738Y-71176510D01*
X132499737Y-71176503D01*
X132488966Y-71150499D01*
X132439397Y-71030827D01*
X132439390Y-71030814D01*
X132351789Y-70899711D01*
X132351786Y-70899707D01*
X132240292Y-70788213D01*
X132240288Y-70788210D01*
X132109185Y-70700609D01*
X132109172Y-70700602D01*
X131963501Y-70640264D01*
X131963489Y-70640261D01*
X131808845Y-70609500D01*
X131808842Y-70609500D01*
X131759892Y-70609500D01*
X131692853Y-70589815D01*
X131647098Y-70537011D01*
X131637154Y-70467853D01*
X131647878Y-70435145D01*
X131647063Y-70434808D01*
X131709735Y-70283501D01*
X131709737Y-70283497D01*
X131740500Y-70128842D01*
X131740500Y-69971158D01*
X131740500Y-69971155D01*
X131740499Y-69971153D01*
X131714353Y-69839711D01*
X131709737Y-69816503D01*
X131709735Y-69816498D01*
X131649397Y-69670827D01*
X131649390Y-69670814D01*
X131561789Y-69539711D01*
X131561786Y-69539707D01*
X131450292Y-69428213D01*
X131450288Y-69428210D01*
X131319185Y-69340609D01*
X131319172Y-69340602D01*
X131173501Y-69280264D01*
X131173489Y-69280261D01*
X131018845Y-69249500D01*
X131018842Y-69249500D01*
X130861158Y-69249500D01*
X130861155Y-69249500D01*
X130706511Y-69280260D01*
X130706506Y-69280262D01*
X130706504Y-69280262D01*
X130706503Y-69280263D01*
X130682844Y-69290062D01*
X130635396Y-69299500D01*
X116186076Y-69299500D01*
X116157242Y-69305234D01*
X116157243Y-69305235D01*
X116041092Y-69328339D01*
X116041086Y-69328341D01*
X115992058Y-69348650D01*
X115904506Y-69384915D01*
X115904504Y-69384916D01*
X115879243Y-69401794D01*
X115879244Y-69401795D01*
X115781579Y-69467051D01*
X115781578Y-69467052D01*
X114297047Y-70951584D01*
X114297045Y-70951586D01*
X114276153Y-70982855D01*
X114267818Y-70995331D01*
X114241276Y-71035053D01*
X114214914Y-71074507D01*
X114158343Y-71211082D01*
X114158340Y-71211092D01*
X114129500Y-71356079D01*
X114129500Y-72701042D01*
X114109815Y-72768081D01*
X114070598Y-72806580D01*
X114061344Y-72812287D01*
X113937287Y-72936344D01*
X113897688Y-73000544D01*
X113845739Y-73047268D01*
X113776777Y-73058489D01*
X113712695Y-73030645D01*
X113704469Y-73023127D01*
X113666819Y-72985477D01*
X113633334Y-72924154D01*
X113630500Y-72897796D01*
X113630500Y-58617079D01*
X113601659Y-58472092D01*
X113601658Y-58472091D01*
X113601658Y-58472087D01*
X113565817Y-58385558D01*
X113545087Y-58335511D01*
X113545080Y-58335498D01*
X113462952Y-58212585D01*
X113420867Y-58170500D01*
X113358416Y-58108049D01*
X107683319Y-52432951D01*
X107649834Y-52371628D01*
X107647000Y-52345270D01*
X107647000Y-52185665D01*
X107617957Y-52002303D01*
X107617957Y-52002300D01*
X107560585Y-51825729D01*
X107476299Y-51660307D01*
X107367172Y-51510107D01*
X107235893Y-51378828D01*
X107085693Y-51269701D01*
X106920271Y-51185415D01*
X106743700Y-51128043D01*
X106743697Y-51128042D01*
X106739067Y-51126538D01*
X106739777Y-51124352D01*
X106687414Y-51094297D01*
X106655240Y-51032276D01*
X106661705Y-50962706D01*
X106704756Y-50907676D01*
X106739504Y-50891807D01*
X106739067Y-50890462D01*
X106743697Y-50888957D01*
X106743700Y-50888957D01*
X106920271Y-50831585D01*
X107085693Y-50747299D01*
X107235893Y-50638172D01*
X107367172Y-50506893D01*
X107476299Y-50356693D01*
X107560585Y-50191271D01*
X107617957Y-50014700D01*
X107630865Y-49933201D01*
X107647000Y-49831334D01*
X107647000Y-49645665D01*
X107617957Y-49462303D01*
X107617957Y-49462300D01*
X107560585Y-49285729D01*
X107476299Y-49120307D01*
X107367172Y-48970107D01*
X107235893Y-48838828D01*
X107230371Y-48834816D01*
X107187707Y-48779487D01*
X107181729Y-48709873D01*
X107214336Y-48648079D01*
X107275175Y-48613722D01*
X107303259Y-48610500D01*
X114598903Y-48610500D01*
X114665942Y-48630185D01*
G37*
%TD.AperFunction*%
%TA.AperFunction,NonConductor*%
G36*
X108072579Y-39496822D02*
G01*
X108093221Y-39513456D01*
X120515788Y-51936023D01*
X120549273Y-51997346D01*
X120550580Y-52043102D01*
X120528000Y-52185665D01*
X120528000Y-52371335D01*
X120547044Y-52491577D01*
X120538089Y-52560870D01*
X120493093Y-52614322D01*
X120426341Y-52634961D01*
X120359028Y-52616236D01*
X120336890Y-52598655D01*
X115386590Y-47648355D01*
X115386588Y-47648352D01*
X115267717Y-47529481D01*
X115267716Y-47529480D01*
X115180904Y-47479360D01*
X115180904Y-47479359D01*
X115180900Y-47479358D01*
X115130785Y-47450423D01*
X114978057Y-47409499D01*
X114819943Y-47409499D01*
X114812347Y-47409499D01*
X114812331Y-47409500D01*
X103216670Y-47409500D01*
X103216654Y-47409499D01*
X103209058Y-47409499D01*
X103050943Y-47409499D01*
X102974579Y-47429961D01*
X102898214Y-47450423D01*
X102898209Y-47450426D01*
X102761290Y-47529475D01*
X102761282Y-47529481D01*
X95666118Y-54624645D01*
X95666114Y-54624650D01*
X95617006Y-54709710D01*
X95617005Y-54709709D01*
X95587061Y-54761574D01*
X95587060Y-54761578D01*
X95546136Y-54914306D01*
X95546136Y-54914308D01*
X95546136Y-55082409D01*
X95546137Y-55082422D01*
X95546137Y-74671512D01*
X95526452Y-74738551D01*
X95509818Y-74759193D01*
X95275409Y-74993601D01*
X95273504Y-74995688D01*
X95272976Y-74995206D01*
X95217403Y-75032434D01*
X95147546Y-75033763D01*
X95092530Y-75001824D01*
X89266741Y-69176035D01*
X89233256Y-69114712D01*
X89238240Y-69045020D01*
X89280112Y-68989087D01*
X89345576Y-68964670D01*
X89354422Y-68964354D01*
X90564798Y-68964354D01*
X90631837Y-68984039D01*
X90674593Y-69030725D01*
X90677884Y-69036996D01*
X90728732Y-69098009D01*
X90786792Y-69167677D01*
X90923810Y-69268496D01*
X91080972Y-69333595D01*
X91080977Y-69333595D01*
X91080978Y-69333596D01*
X91099637Y-69336435D01*
X91249148Y-69359191D01*
X91418562Y-69343796D01*
X91486224Y-69322711D01*
X92098971Y-69068904D01*
X92161724Y-69035968D01*
X92292404Y-68927061D01*
X92393223Y-68790043D01*
X92458322Y-68632881D01*
X92483918Y-68464705D01*
X92468522Y-68295291D01*
X92447438Y-68227629D01*
X92251033Y-67753464D01*
X92218097Y-67690711D01*
X92109190Y-67560031D01*
X92109189Y-67560030D01*
X92109188Y-67560029D01*
X91972171Y-67459211D01*
X91838727Y-67403937D01*
X91784324Y-67360096D01*
X91762259Y-67293802D01*
X91771619Y-67241923D01*
X91826894Y-67108479D01*
X91841927Y-67009707D01*
X91852490Y-66940304D01*
X91849556Y-66908015D01*
X91837094Y-66770889D01*
X91834985Y-66764123D01*
X91833837Y-66694265D01*
X91853854Y-66653266D01*
X91859265Y-66645985D01*
X91930520Y-66574731D01*
X91990561Y-66470736D01*
X92009577Y-66437800D01*
X92050500Y-66285073D01*
X92050500Y-66126958D01*
X92050500Y-58250943D01*
X92049828Y-58248433D01*
X92009577Y-58098215D01*
X91953683Y-58001404D01*
X91930520Y-57961284D01*
X91818716Y-57849480D01*
X91818713Y-57849478D01*
X90527534Y-56558299D01*
X90494049Y-56496976D01*
X90499033Y-56427284D01*
X90527532Y-56382939D01*
X92848506Y-54061966D01*
X92848511Y-54061962D01*
X92858714Y-54051758D01*
X92858716Y-54051758D01*
X92970520Y-53939954D01*
X93049577Y-53803022D01*
X93079534Y-53691219D01*
X93090500Y-53650296D01*
X93090500Y-53492181D01*
X93090500Y-48038335D01*
X93080037Y-47999284D01*
X93049577Y-47885607D01*
X92997820Y-47795962D01*
X92970520Y-47748676D01*
X92858716Y-47636872D01*
X92858713Y-47636870D01*
X92497119Y-47275276D01*
X92463634Y-47213953D01*
X92466416Y-47150701D01*
X92468522Y-47143946D01*
X92483918Y-46974532D01*
X92482015Y-46962029D01*
X92491385Y-46892792D01*
X92516918Y-46855689D01*
X97793883Y-41578727D01*
X97872940Y-41441795D01*
X97913864Y-41289068D01*
X97913864Y-41130953D01*
X97913864Y-41123358D01*
X97913863Y-41123340D01*
X97913863Y-39707065D01*
X97933548Y-39640026D01*
X97950182Y-39619384D01*
X98056110Y-39513456D01*
X98117433Y-39479971D01*
X98143791Y-39477137D01*
X108005540Y-39477137D01*
X108072579Y-39496822D01*
G37*
%TD.AperFunction*%
%TA.AperFunction,NonConductor*%
G36*
X142393322Y-47792063D02*
G01*
X142399800Y-47798095D01*
X143453181Y-48851476D01*
X143486666Y-48912799D01*
X143489500Y-48939157D01*
X143489500Y-68729057D01*
X143505071Y-68787167D01*
X143530423Y-68881783D01*
X143530426Y-68881790D01*
X143609475Y-69018709D01*
X143609481Y-69018717D01*
X143721284Y-69130520D01*
X143747316Y-69145549D01*
X143772998Y-69165256D01*
X145961550Y-71353808D01*
X145995035Y-71415131D01*
X145992660Y-71477052D01*
X145979237Y-71521885D01*
X145979237Y-71521890D01*
X145967020Y-71689578D01*
X145967021Y-71689582D01*
X145993805Y-71855564D01*
X145993807Y-71855572D01*
X146058150Y-72010907D01*
X146156580Y-72147217D01*
X146156582Y-72147219D01*
X146283796Y-72257157D01*
X146370957Y-72304154D01*
X146932997Y-72536958D01*
X146958209Y-72544506D01*
X147027853Y-72565357D01*
X147027854Y-72565357D01*
X147027861Y-72565359D01*
X147176632Y-72576196D01*
X147195551Y-72577575D01*
X147195551Y-72577574D01*
X147195553Y-72577575D01*
X147232954Y-72571539D01*
X147302271Y-72580291D01*
X147355855Y-72625130D01*
X147376691Y-72691821D01*
X147376709Y-72693955D01*
X147376709Y-73717759D01*
X147357024Y-73784798D01*
X147340390Y-73805440D01*
X140330098Y-80815731D01*
X140268775Y-80849216D01*
X140228516Y-80851268D01*
X140221082Y-80850429D01*
X140161245Y-80836248D01*
X140095379Y-80836248D01*
X140088447Y-80835466D01*
X140062409Y-80824520D01*
X140035309Y-80816563D01*
X140030627Y-80811160D01*
X140024037Y-80808390D01*
X140008048Y-80785102D01*
X139989554Y-80763759D01*
X139988536Y-80756684D01*
X139984490Y-80750790D01*
X139983629Y-80722557D01*
X139979610Y-80694601D01*
X139982579Y-80688098D01*
X139982362Y-80680953D01*
X139996901Y-80656738D01*
X140008635Y-80631045D01*
X140014667Y-80624567D01*
X140222403Y-80416831D01*
X142068139Y-78571097D01*
X142147196Y-78434165D01*
X142188120Y-78281438D01*
X142188120Y-78123323D01*
X142188120Y-78115728D01*
X142188119Y-78115710D01*
X142188119Y-47885776D01*
X142207804Y-47818737D01*
X142260608Y-47772982D01*
X142329766Y-47763038D01*
X142393322Y-47792063D01*
G37*
%TD.AperFunction*%
%TA.AperFunction,NonConductor*%
G36*
X87135789Y-70719032D02*
G01*
X87156431Y-70735666D01*
X88485425Y-72064660D01*
X88518910Y-72125983D01*
X88519361Y-72128149D01*
X88550261Y-72283491D01*
X88550264Y-72283501D01*
X88610602Y-72429172D01*
X88610609Y-72429185D01*
X88698210Y-72560288D01*
X88698213Y-72560292D01*
X88809707Y-72671786D01*
X88809711Y-72671789D01*
X88940814Y-72759390D01*
X88940827Y-72759397D01*
X89054739Y-72806580D01*
X89086503Y-72819737D01*
X89241153Y-72850499D01*
X89241156Y-72850500D01*
X89241158Y-72850500D01*
X89398844Y-72850500D01*
X89398845Y-72850499D01*
X89553497Y-72819737D01*
X89699179Y-72759394D01*
X89830289Y-72671789D01*
X89941789Y-72560289D01*
X90029394Y-72429179D01*
X90029395Y-72429176D01*
X90029414Y-72429142D01*
X90029430Y-72429124D01*
X90032779Y-72424114D01*
X90033728Y-72424748D01*
X90078373Y-72379294D01*
X90146510Y-72363829D01*
X90212191Y-72387657D01*
X90226457Y-72399907D01*
X96354369Y-78527819D01*
X96387854Y-78589142D01*
X96382870Y-78658834D01*
X96340998Y-78714767D01*
X96275534Y-78739184D01*
X96266688Y-78739500D01*
X90836669Y-78739500D01*
X90836653Y-78739499D01*
X90829057Y-78739499D01*
X90670943Y-78739499D01*
X90591010Y-78760917D01*
X90518216Y-78780422D01*
X90484806Y-78799712D01*
X90484805Y-78799711D01*
X90381287Y-78859477D01*
X90381282Y-78859481D01*
X90309950Y-78930814D01*
X90269480Y-78971284D01*
X90269478Y-78971286D01*
X89342410Y-79898355D01*
X88440836Y-80799929D01*
X88379513Y-80833414D01*
X88353155Y-80836248D01*
X88271076Y-80836248D01*
X88123488Y-80871227D01*
X88107467Y-80875024D01*
X87957224Y-80950478D01*
X87957219Y-80950481D01*
X87957218Y-80950482D01*
X87933897Y-80969480D01*
X87880443Y-81013024D01*
X87880437Y-81013029D01*
X87629651Y-81263816D01*
X87568328Y-81297301D01*
X87498636Y-81292317D01*
X87454289Y-81263816D01*
X82058206Y-75867733D01*
X82024721Y-75806410D01*
X82021887Y-75780052D01*
X82021887Y-72399456D01*
X82041572Y-72332417D01*
X82087037Y-72290311D01*
X82099675Y-72283497D01*
X82148525Y-72257157D01*
X82275739Y-72147219D01*
X82374171Y-72010906D01*
X82438514Y-71855569D01*
X82465300Y-71689580D01*
X82453084Y-71521888D01*
X82443190Y-71488842D01*
X82424684Y-71427029D01*
X82424683Y-71427024D01*
X82220580Y-70934275D01*
X82192500Y-70882197D01*
X82178009Y-70813847D01*
X82202772Y-70748512D01*
X82258927Y-70706938D01*
X82301645Y-70699347D01*
X87068750Y-70699347D01*
X87135789Y-70719032D01*
G37*
%TD.AperFunction*%
%TA.AperFunction,NonConductor*%
G36*
X139271052Y-69199832D02*
G01*
X139298409Y-69220487D01*
X139312860Y-69234938D01*
X139319712Y-69241790D01*
X139450814Y-69329390D01*
X139450827Y-69329397D01*
X139549912Y-69370439D01*
X139604316Y-69414280D01*
X139626381Y-69480574D01*
X139609102Y-69548273D01*
X139557965Y-69595884D01*
X139549912Y-69599561D01*
X139450827Y-69640602D01*
X139450814Y-69640609D01*
X139319711Y-69728210D01*
X139319707Y-69728213D01*
X139208213Y-69839707D01*
X139208210Y-69839711D01*
X139120609Y-69970814D01*
X139120602Y-69970827D01*
X139060264Y-70116498D01*
X139060261Y-70116510D01*
X139029500Y-70271153D01*
X139029500Y-70428846D01*
X139060261Y-70583489D01*
X139060264Y-70583501D01*
X139120602Y-70729172D01*
X139120609Y-70729185D01*
X139208210Y-70860288D01*
X139208213Y-70860292D01*
X139319707Y-70971786D01*
X139319711Y-70971789D01*
X139450814Y-71059390D01*
X139450827Y-71059397D01*
X139596498Y-71119735D01*
X139596503Y-71119737D01*
X139751153Y-71150499D01*
X139751156Y-71150500D01*
X139751158Y-71150500D01*
X139908844Y-71150500D01*
X139908845Y-71150499D01*
X140063497Y-71119737D01*
X140209179Y-71059394D01*
X140340289Y-70971789D01*
X140451789Y-70860289D01*
X140539394Y-70729179D01*
X140543238Y-70719900D01*
X140571922Y-70650648D01*
X140599737Y-70583497D01*
X140630500Y-70428842D01*
X140630500Y-70428839D01*
X140630637Y-70428151D01*
X140663021Y-70366240D01*
X140664473Y-70364761D01*
X140775438Y-70253795D01*
X140836761Y-70220312D01*
X140906453Y-70225296D01*
X140962386Y-70267168D01*
X140986803Y-70332632D01*
X140987119Y-70341478D01*
X140987119Y-77902283D01*
X140967434Y-77969322D01*
X140950800Y-77989964D01*
X138029481Y-80911282D01*
X138029479Y-80911284D01*
X138006852Y-80950478D01*
X137995881Y-80969480D01*
X137950423Y-81048215D01*
X137909499Y-81200943D01*
X137909499Y-81200945D01*
X137909499Y-81369046D01*
X137909500Y-81369059D01*
X137909500Y-82438397D01*
X137909499Y-82438415D01*
X137909499Y-82604123D01*
X137951380Y-82760425D01*
X137952263Y-82821112D01*
X137949581Y-82832430D01*
X137934875Y-82894483D01*
X137934875Y-83062618D01*
X137946314Y-83110882D01*
X137942620Y-83180654D01*
X137901791Y-83237353D01*
X137836789Y-83262977D01*
X137825656Y-83263478D01*
X137084075Y-83263478D01*
X137017036Y-83243793D01*
X136996394Y-83227159D01*
X133064574Y-79295339D01*
X133031089Y-79234016D01*
X133030638Y-79231849D01*
X132999738Y-79076510D01*
X132999737Y-79076503D01*
X132999735Y-79076498D01*
X132939397Y-78930827D01*
X132939390Y-78930814D01*
X132851789Y-78799711D01*
X132851786Y-78799707D01*
X132740291Y-78688212D01*
X132713194Y-78670107D01*
X132668388Y-78616495D01*
X132659681Y-78547170D01*
X132689835Y-78484142D01*
X132694383Y-78479343D01*
X134313120Y-76860608D01*
X134392177Y-76723676D01*
X134433101Y-76570949D01*
X134433101Y-76412834D01*
X134433101Y-76405239D01*
X134433100Y-76405221D01*
X134433100Y-76226302D01*
X134452785Y-76159263D01*
X134469419Y-76138621D01*
X134553768Y-76054272D01*
X134703838Y-75904202D01*
X134749210Y-75849759D01*
X134828266Y-75699132D01*
X134868976Y-75533963D01*
X134868976Y-75363851D01*
X134828266Y-75198682D01*
X134749210Y-75048055D01*
X134703838Y-74993612D01*
X134234862Y-74524636D01*
X134180419Y-74479264D01*
X134105105Y-74439736D01*
X134029791Y-74400207D01*
X133864623Y-74359498D01*
X133694511Y-74359498D01*
X133687010Y-74359498D01*
X133687010Y-74357032D01*
X133629814Y-74347512D01*
X133578036Y-74300600D01*
X133559840Y-74233141D01*
X133581004Y-74166554D01*
X133596124Y-74148210D01*
X138385580Y-69358753D01*
X138446901Y-69325270D01*
X138510148Y-69328050D01*
X138560675Y-69343796D01*
X138730089Y-69359191D01*
X138730089Y-69359190D01*
X138730090Y-69359191D01*
X138898258Y-69333596D01*
X138898257Y-69333596D01*
X138898265Y-69333595D01*
X139055427Y-69268496D01*
X139137245Y-69208293D01*
X139202904Y-69184418D01*
X139271052Y-69199832D01*
G37*
%TD.AperFunction*%
%TA.AperFunction,NonConductor*%
G36*
X98542651Y-76310983D02*
G01*
X98561031Y-76326129D01*
X103350481Y-81115579D01*
X103383966Y-81176902D01*
X103381185Y-81240151D01*
X103365442Y-81290670D01*
X103365440Y-81290677D01*
X103350045Y-81460090D01*
X103375640Y-81628258D01*
X103375641Y-81628262D01*
X103440740Y-81785426D01*
X103541558Y-81922443D01*
X103541557Y-81922443D01*
X103574554Y-81949942D01*
X103672240Y-82031352D01*
X103734993Y-82064288D01*
X104204689Y-82258842D01*
X104209163Y-82260695D01*
X104226215Y-82266008D01*
X104276820Y-82281777D01*
X104338234Y-82287358D01*
X104403216Y-82313029D01*
X104444005Y-82369757D01*
X104447648Y-82439532D01*
X104414692Y-82498530D01*
X103306803Y-83606419D01*
X103245480Y-83639904D01*
X103175788Y-83634920D01*
X103131441Y-83606419D01*
X97323237Y-77798215D01*
X97289752Y-77736892D01*
X97294736Y-77667200D01*
X97336608Y-77611267D01*
X97381240Y-77590138D01*
X97510555Y-77558266D01*
X97661182Y-77479210D01*
X97715625Y-77433838D01*
X98184601Y-76964862D01*
X98229973Y-76910419D01*
X98309029Y-76759792D01*
X98349739Y-76594623D01*
X98349739Y-76424511D01*
X98349739Y-76417010D01*
X98352210Y-76417010D01*
X98361707Y-76359849D01*
X98408604Y-76308056D01*
X98476057Y-76289840D01*
X98542651Y-76310983D01*
G37*
%TD.AperFunction*%
%TA.AperFunction,NonConductor*%
G36*
X105698780Y-48630185D02*
G01*
X105744535Y-48682989D01*
X105754479Y-48752147D01*
X105725454Y-48815703D01*
X105704628Y-48834817D01*
X105699107Y-48838827D01*
X105567830Y-48970104D01*
X105567830Y-48970105D01*
X105567828Y-48970107D01*
X105537656Y-49011635D01*
X105458701Y-49120306D01*
X105374416Y-49285726D01*
X105317042Y-49462303D01*
X105288000Y-49645665D01*
X105288000Y-49831334D01*
X105306859Y-49950403D01*
X105317043Y-50014700D01*
X105374415Y-50191271D01*
X105458701Y-50356693D01*
X105567828Y-50506893D01*
X105699107Y-50638172D01*
X105849307Y-50747299D01*
X106014729Y-50831585D01*
X106191300Y-50888957D01*
X106191302Y-50888957D01*
X106195933Y-50890462D01*
X106195226Y-50892635D01*
X106247629Y-50922748D01*
X106279771Y-50984786D01*
X106273271Y-51054352D01*
X106230192Y-51109361D01*
X106195499Y-51125204D01*
X106195933Y-51126538D01*
X106191302Y-51128042D01*
X106191300Y-51128043D01*
X106093163Y-51159930D01*
X106014726Y-51185416D01*
X105849306Y-51269701D01*
X105763611Y-51331962D01*
X105699107Y-51378828D01*
X105699105Y-51378830D01*
X105699104Y-51378830D01*
X105567830Y-51510104D01*
X105567830Y-51510105D01*
X105567828Y-51510107D01*
X105520962Y-51574611D01*
X105458701Y-51660306D01*
X105374416Y-51825726D01*
X105317042Y-52002303D01*
X105288000Y-52185665D01*
X105288000Y-52371334D01*
X105307045Y-52491577D01*
X105317043Y-52554700D01*
X105374415Y-52731271D01*
X105458701Y-52896693D01*
X105567828Y-53046893D01*
X105699107Y-53178172D01*
X105849307Y-53287299D01*
X106014729Y-53371585D01*
X106191300Y-53428957D01*
X106191302Y-53428957D01*
X106195933Y-53430462D01*
X106195226Y-53432635D01*
X106247629Y-53462748D01*
X106279771Y-53524786D01*
X106273271Y-53594352D01*
X106230192Y-53649361D01*
X106195499Y-53665204D01*
X106195933Y-53666538D01*
X106191302Y-53668042D01*
X106191300Y-53668043D01*
X106014729Y-53725415D01*
X106014726Y-53725416D01*
X105849306Y-53809701D01*
X105763611Y-53871962D01*
X105699107Y-53918828D01*
X105699105Y-53918830D01*
X105699104Y-53918830D01*
X105567830Y-54050104D01*
X105567830Y-54050105D01*
X105567828Y-54050107D01*
X105566628Y-54051759D01*
X105458701Y-54200306D01*
X105374416Y-54365726D01*
X105317042Y-54542303D01*
X105288000Y-54725665D01*
X105288000Y-54911334D01*
X105315096Y-55082409D01*
X105317043Y-55094700D01*
X105374415Y-55271271D01*
X105458701Y-55436693D01*
X105567828Y-55586893D01*
X105699107Y-55718172D01*
X105849307Y-55827299D01*
X106014729Y-55911585D01*
X106191300Y-55968957D01*
X106191302Y-55968957D01*
X106195933Y-55970462D01*
X106195226Y-55972635D01*
X106247629Y-56002748D01*
X106279771Y-56064786D01*
X106273271Y-56134352D01*
X106230192Y-56189361D01*
X106195499Y-56205204D01*
X106195933Y-56206538D01*
X106191302Y-56208042D01*
X106191300Y-56208043D01*
X106014729Y-56265415D01*
X106014726Y-56265416D01*
X105849306Y-56349701D01*
X105773283Y-56404936D01*
X105699107Y-56458828D01*
X105699105Y-56458830D01*
X105699104Y-56458830D01*
X105567830Y-56590104D01*
X105567830Y-56590105D01*
X105567828Y-56590107D01*
X105520962Y-56654611D01*
X105458701Y-56740306D01*
X105374416Y-56905726D01*
X105317042Y-57082303D01*
X105288000Y-57265665D01*
X105288000Y-57451334D01*
X105315992Y-57628065D01*
X105317043Y-57634700D01*
X105374415Y-57811271D01*
X105458701Y-57976693D01*
X105567828Y-58126893D01*
X105699107Y-58258172D01*
X105849307Y-58367299D01*
X106014729Y-58451585D01*
X106191300Y-58508957D01*
X106191302Y-58508957D01*
X106195933Y-58510462D01*
X106195226Y-58512635D01*
X106247629Y-58542748D01*
X106279771Y-58604786D01*
X106273271Y-58674352D01*
X106230192Y-58729361D01*
X106195499Y-58745204D01*
X106195933Y-58746538D01*
X106191302Y-58748042D01*
X106191300Y-58748043D01*
X106027603Y-58801232D01*
X106014726Y-58805416D01*
X105849306Y-58889701D01*
X105813766Y-58915523D01*
X105699107Y-58998828D01*
X105699105Y-58998830D01*
X105699104Y-58998830D01*
X105567830Y-59130104D01*
X105567830Y-59130105D01*
X105567828Y-59130107D01*
X105531721Y-59179804D01*
X105458701Y-59280306D01*
X105374416Y-59445726D01*
X105317042Y-59622303D01*
X105288000Y-59805665D01*
X105288000Y-59991334D01*
X105317042Y-60174696D01*
X105317043Y-60174700D01*
X105374415Y-60351271D01*
X105458701Y-60516693D01*
X105567828Y-60666893D01*
X105699107Y-60798172D01*
X105849307Y-60907299D01*
X106014729Y-60991585D01*
X106191300Y-61048957D01*
X106191302Y-61048957D01*
X106195933Y-61050462D01*
X106195226Y-61052635D01*
X106247629Y-61082748D01*
X106279771Y-61144786D01*
X106273271Y-61214352D01*
X106230192Y-61269361D01*
X106195499Y-61285204D01*
X106195933Y-61286538D01*
X106191302Y-61288042D01*
X106191300Y-61288043D01*
X106014729Y-61345415D01*
X106014726Y-61345416D01*
X105849306Y-61429701D01*
X105763611Y-61491962D01*
X105699107Y-61538828D01*
X105699105Y-61538830D01*
X105699104Y-61538830D01*
X105567830Y-61670104D01*
X105567830Y-61670105D01*
X105567828Y-61670107D01*
X105559343Y-61681786D01*
X105458701Y-61820306D01*
X105374416Y-61985726D01*
X105317042Y-62162303D01*
X105288000Y-62345665D01*
X105288000Y-62531334D01*
X105317042Y-62714696D01*
X105317043Y-62714700D01*
X105374415Y-62891271D01*
X105458701Y-63056693D01*
X105567828Y-63206893D01*
X105699107Y-63338172D01*
X105849307Y-63447299D01*
X106014729Y-63531585D01*
X106191300Y-63588957D01*
X106191302Y-63588957D01*
X106195933Y-63590462D01*
X106195226Y-63592635D01*
X106247629Y-63622748D01*
X106279771Y-63684786D01*
X106273271Y-63754352D01*
X106230192Y-63809361D01*
X106195499Y-63825204D01*
X106195933Y-63826538D01*
X106191302Y-63828042D01*
X106191300Y-63828043D01*
X106014729Y-63885415D01*
X106014726Y-63885416D01*
X105849306Y-63969701D01*
X105763611Y-64031962D01*
X105699107Y-64078828D01*
X105699105Y-64078830D01*
X105699104Y-64078830D01*
X105567830Y-64210104D01*
X105567830Y-64210105D01*
X105567828Y-64210107D01*
X105520962Y-64274611D01*
X105458701Y-64360306D01*
X105374416Y-64525726D01*
X105317042Y-64702303D01*
X105288000Y-64885665D01*
X105288000Y-65071334D01*
X105317042Y-65254696D01*
X105317043Y-65254700D01*
X105374415Y-65431271D01*
X105458701Y-65596693D01*
X105567828Y-65746893D01*
X105699107Y-65878172D01*
X105849307Y-65987299D01*
X106014729Y-66071585D01*
X106191300Y-66128957D01*
X106260064Y-66139848D01*
X106374666Y-66158000D01*
X106374671Y-66158000D01*
X106560334Y-66158000D01*
X106662201Y-66141865D01*
X106743700Y-66128957D01*
X106920271Y-66071585D01*
X107085693Y-65987299D01*
X107235893Y-65878172D01*
X107367172Y-65746893D01*
X107476299Y-65596693D01*
X107560585Y-65431271D01*
X107617957Y-65254700D01*
X107630865Y-65173201D01*
X107647000Y-65071334D01*
X107647000Y-64885665D01*
X107617957Y-64702303D01*
X107617957Y-64702300D01*
X107560585Y-64525729D01*
X107476299Y-64360307D01*
X107367172Y-64210107D01*
X107235893Y-64078828D01*
X107085693Y-63969701D01*
X106920271Y-63885415D01*
X106743700Y-63828043D01*
X106743697Y-63828042D01*
X106739067Y-63826538D01*
X106739777Y-63824352D01*
X106687414Y-63794297D01*
X106655240Y-63732276D01*
X106661705Y-63662706D01*
X106704756Y-63607676D01*
X106739504Y-63591807D01*
X106739067Y-63590462D01*
X106743697Y-63588957D01*
X106743700Y-63588957D01*
X106920271Y-63531585D01*
X107085693Y-63447299D01*
X107235893Y-63338172D01*
X107367172Y-63206893D01*
X107476299Y-63056693D01*
X107560585Y-62891271D01*
X107617957Y-62714700D01*
X107630865Y-62633201D01*
X107647000Y-62531334D01*
X107647000Y-62345665D01*
X107623943Y-62200097D01*
X107617957Y-62162300D01*
X107560585Y-61985729D01*
X107476299Y-61820307D01*
X107367172Y-61670107D01*
X107235893Y-61538828D01*
X107085693Y-61429701D01*
X106920271Y-61345415D01*
X106743700Y-61288043D01*
X106743697Y-61288042D01*
X106739067Y-61286538D01*
X106739777Y-61284352D01*
X106687414Y-61254297D01*
X106655240Y-61192276D01*
X106661705Y-61122706D01*
X106704756Y-61067676D01*
X106739504Y-61051807D01*
X106739067Y-61050462D01*
X106743697Y-61048957D01*
X106743700Y-61048957D01*
X106920271Y-60991585D01*
X107085693Y-60907299D01*
X107235893Y-60798172D01*
X107367172Y-60666893D01*
X107476299Y-60516693D01*
X107560585Y-60351271D01*
X107617957Y-60174700D01*
X107630865Y-60093201D01*
X107647000Y-59991334D01*
X107647000Y-59805665D01*
X107617957Y-59622303D01*
X107617957Y-59622300D01*
X107560585Y-59445729D01*
X107476299Y-59280307D01*
X107367172Y-59130107D01*
X107235893Y-58998828D01*
X107085693Y-58889701D01*
X106920271Y-58805415D01*
X106743700Y-58748043D01*
X106743697Y-58748042D01*
X106739067Y-58746538D01*
X106739777Y-58744352D01*
X106687414Y-58714297D01*
X106655240Y-58652276D01*
X106661705Y-58582706D01*
X106704756Y-58527676D01*
X106739504Y-58511807D01*
X106739067Y-58510462D01*
X106743697Y-58508957D01*
X106743700Y-58508957D01*
X106920271Y-58451585D01*
X107085693Y-58367299D01*
X107235893Y-58258172D01*
X107367172Y-58126893D01*
X107476299Y-57976693D01*
X107560585Y-57811271D01*
X107617957Y-57634700D01*
X107632980Y-57539849D01*
X107647000Y-57451334D01*
X107647000Y-57265665D01*
X107623537Y-57117534D01*
X107617957Y-57082300D01*
X107560585Y-56905729D01*
X107476299Y-56740307D01*
X107367172Y-56590107D01*
X107235893Y-56458828D01*
X107085693Y-56349701D01*
X106920271Y-56265415D01*
X106743700Y-56208043D01*
X106743697Y-56208042D01*
X106739067Y-56206538D01*
X106739777Y-56204352D01*
X106687414Y-56174297D01*
X106655240Y-56112276D01*
X106661705Y-56042706D01*
X106704756Y-55987676D01*
X106739504Y-55971807D01*
X106739067Y-55970462D01*
X106743697Y-55968957D01*
X106743700Y-55968957D01*
X106920271Y-55911585D01*
X107085693Y-55827299D01*
X107235893Y-55718172D01*
X107367172Y-55586893D01*
X107476299Y-55436693D01*
X107560585Y-55271271D01*
X107617957Y-55094700D01*
X107635094Y-54986503D01*
X107647000Y-54911334D01*
X107647000Y-54818729D01*
X107666685Y-54751690D01*
X107719489Y-54705935D01*
X107788647Y-54695991D01*
X107852203Y-54725016D01*
X107858667Y-54731035D01*
X109863949Y-56736316D01*
X112093181Y-58965548D01*
X112126666Y-59026871D01*
X112129500Y-59053229D01*
X112129500Y-72897796D01*
X112109815Y-72964835D01*
X112093181Y-72985477D01*
X112040588Y-73038069D01*
X112040588Y-73038070D01*
X112040586Y-73038072D01*
X112033905Y-73047268D01*
X111938768Y-73178211D01*
X111860128Y-73332552D01*
X111806597Y-73497302D01*
X111805824Y-73502183D01*
X111779500Y-73668389D01*
X111779500Y-74391611D01*
X111780862Y-74400208D01*
X111800570Y-74524646D01*
X111806598Y-74562701D01*
X111860127Y-74727445D01*
X111938768Y-74881788D01*
X112040586Y-75021928D01*
X112163072Y-75144414D01*
X112303212Y-75246232D01*
X112457555Y-75324873D01*
X112622299Y-75378402D01*
X112793389Y-75405500D01*
X112793390Y-75405500D01*
X112966610Y-75405500D01*
X112966611Y-75405500D01*
X113137701Y-75378402D01*
X113302445Y-75324873D01*
X113456788Y-75246232D01*
X113596928Y-75144414D01*
X113704472Y-75036869D01*
X113765791Y-75003387D01*
X113835483Y-75008371D01*
X113891417Y-75050242D01*
X113897688Y-75059456D01*
X113937285Y-75123652D01*
X113937288Y-75123656D01*
X114061344Y-75247712D01*
X114210666Y-75339814D01*
X114377203Y-75394999D01*
X114479991Y-75405500D01*
X115280008Y-75405499D01*
X115280016Y-75405498D01*
X115280019Y-75405498D01*
X115336302Y-75399748D01*
X115382797Y-75394999D01*
X115549334Y-75339814D01*
X115698656Y-75247712D01*
X115822712Y-75123656D01*
X115914814Y-74974334D01*
X115969999Y-74807797D01*
X115980500Y-74705009D01*
X115980499Y-73354992D01*
X115969999Y-73252203D01*
X115914814Y-73085666D01*
X115822712Y-72936344D01*
X115698656Y-72812288D01*
X115698655Y-72812287D01*
X115689402Y-72806580D01*
X115642678Y-72754632D01*
X115630500Y-72701042D01*
X115630500Y-71792230D01*
X115650185Y-71725191D01*
X115666819Y-71704549D01*
X116534549Y-70836819D01*
X116595872Y-70803334D01*
X116622230Y-70800500D01*
X130635396Y-70800500D01*
X130682844Y-70809937D01*
X130706503Y-70819737D01*
X130706508Y-70819738D01*
X130706511Y-70819739D01*
X130861153Y-70850499D01*
X130861156Y-70850500D01*
X130910108Y-70850500D01*
X130977147Y-70870185D01*
X131022902Y-70922989D01*
X131032846Y-70992147D01*
X131022121Y-71024854D01*
X131022937Y-71025192D01*
X130960264Y-71176498D01*
X130960261Y-71176510D01*
X130929500Y-71331153D01*
X130929500Y-71488846D01*
X130960261Y-71643489D01*
X130960264Y-71643501D01*
X131020602Y-71789172D01*
X131020609Y-71789185D01*
X131108209Y-71920287D01*
X131108210Y-71920288D01*
X131108211Y-71920289D01*
X131123180Y-71935258D01*
X131156666Y-71996579D01*
X131159500Y-72022940D01*
X131159500Y-77030234D01*
X131139815Y-77097273D01*
X131138602Y-77099125D01*
X131050609Y-77230814D01*
X131050602Y-77230827D01*
X130990264Y-77376498D01*
X130990261Y-77376510D01*
X130959500Y-77531153D01*
X130959500Y-77688846D01*
X130990261Y-77843489D01*
X130990264Y-77843501D01*
X131050602Y-77989172D01*
X131050609Y-77989185D01*
X131138210Y-78120288D01*
X131138213Y-78120292D01*
X131158907Y-78140986D01*
X131192392Y-78202309D01*
X131187408Y-78272001D01*
X131158907Y-78316348D01*
X125394457Y-84080800D01*
X125333134Y-84114285D01*
X125306776Y-84117119D01*
X116823533Y-84117119D01*
X116756494Y-84097434D01*
X116710739Y-84044630D01*
X116700795Y-83975472D01*
X116705145Y-83956238D01*
X116708705Y-83944815D01*
X116715119Y-83874235D01*
X116715119Y-83211003D01*
X116708705Y-83140423D01*
X116658097Y-82978013D01*
X116570091Y-82832434D01*
X116570089Y-82832432D01*
X116570088Y-82832430D01*
X116449807Y-82712149D01*
X116430537Y-82700500D01*
X116304225Y-82624141D01*
X116141815Y-82573533D01*
X116141813Y-82573532D01*
X116141811Y-82573532D01*
X116092397Y-82569042D01*
X116071235Y-82567119D01*
X116071232Y-82567119D01*
X116010274Y-82567119D01*
X115943235Y-82547434D01*
X115897480Y-82494630D01*
X115887536Y-82425472D01*
X115888657Y-82418927D01*
X115920500Y-82258844D01*
X115920500Y-82101158D01*
X115916031Y-82078690D01*
X115922260Y-82009099D01*
X115965123Y-81953922D01*
X116031013Y-81930678D01*
X116037649Y-81930500D01*
X123067572Y-81930500D01*
X123134611Y-81950185D01*
X123180366Y-82002989D01*
X123182133Y-82007047D01*
X123404401Y-82543652D01*
X123436139Y-82604124D01*
X123437338Y-82606407D01*
X123533506Y-82721801D01*
X123546246Y-82737088D01*
X123577962Y-82760425D01*
X123683263Y-82837906D01*
X123840425Y-82903005D01*
X123840430Y-82903005D01*
X123840431Y-82903006D01*
X123859090Y-82905845D01*
X124008601Y-82928601D01*
X124178015Y-82913205D01*
X124245677Y-82892121D01*
X124719842Y-82695716D01*
X124782595Y-82662780D01*
X124913275Y-82553873D01*
X125014094Y-82416855D01*
X125016813Y-82410292D01*
X125063668Y-82297173D01*
X125069369Y-82283409D01*
X125113208Y-82229007D01*
X125179503Y-82206942D01*
X125231382Y-82216302D01*
X125364827Y-82271577D01*
X125364832Y-82271577D01*
X125364833Y-82271578D01*
X125383492Y-82274417D01*
X125533003Y-82297173D01*
X125702417Y-82281777D01*
X125770079Y-82260693D01*
X126244244Y-82064288D01*
X126306997Y-82031352D01*
X126437677Y-81922445D01*
X126538496Y-81785427D01*
X126603595Y-81628265D01*
X126629191Y-81460089D01*
X126613796Y-81290675D01*
X126592711Y-81223013D01*
X126432508Y-80836248D01*
X126338906Y-80610270D01*
X126305969Y-80547515D01*
X126305968Y-80547513D01*
X126197061Y-80416833D01*
X126197060Y-80416832D01*
X126197059Y-80416831D01*
X126060042Y-80316013D01*
X125929157Y-80261799D01*
X125902881Y-80250915D01*
X125902880Y-80250914D01*
X125902878Y-80250914D01*
X125902874Y-80250913D01*
X125734705Y-80225318D01*
X125565293Y-80240714D01*
X125562675Y-80241529D01*
X125558525Y-80242823D01*
X125488667Y-80243972D01*
X125433960Y-80212117D01*
X125120198Y-79898355D01*
X125120196Y-79898352D01*
X125001325Y-79779481D01*
X125001317Y-79779475D01*
X124906389Y-79724669D01*
X124906388Y-79724669D01*
X124874050Y-79705998D01*
X124848371Y-79686293D01*
X124800292Y-79638213D01*
X124800288Y-79638210D01*
X124669185Y-79550609D01*
X124669172Y-79550602D01*
X124523501Y-79490264D01*
X124523489Y-79490261D01*
X124368845Y-79459500D01*
X124368842Y-79459500D01*
X124211158Y-79459500D01*
X124211155Y-79459500D01*
X124056510Y-79490261D01*
X124056498Y-79490264D01*
X123910827Y-79550602D01*
X123910814Y-79550609D01*
X123779711Y-79638210D01*
X123779707Y-79638213D01*
X123668213Y-79749707D01*
X123668210Y-79749711D01*
X123580609Y-79880814D01*
X123580602Y-79880827D01*
X123520264Y-80026498D01*
X123520261Y-80026510D01*
X123489500Y-80181153D01*
X123489500Y-80338846D01*
X123520261Y-80493489D01*
X123520264Y-80493501D01*
X123547000Y-80558048D01*
X123554469Y-80627518D01*
X123523193Y-80689997D01*
X123463104Y-80725648D01*
X123432439Y-80729500D01*
X114556669Y-80729500D01*
X114556653Y-80729499D01*
X114549057Y-80729499D01*
X114390943Y-80729499D01*
X114289489Y-80756684D01*
X114238210Y-80770424D01*
X114238209Y-80770425D01*
X114188096Y-80799359D01*
X114188095Y-80799360D01*
X114146082Y-80823616D01*
X114101285Y-80849479D01*
X114101282Y-80849481D01*
X113795905Y-81154859D01*
X113795893Y-81154871D01*
X113787669Y-81163093D01*
X113787666Y-81163094D01*
X113787663Y-81163098D01*
X113759457Y-81178493D01*
X113726341Y-81196570D01*
X113726338Y-81196569D01*
X113726334Y-81196572D01*
X113682750Y-81193446D01*
X113656650Y-81191577D01*
X113656647Y-81191575D01*
X113656643Y-81191575D01*
X113656619Y-81191557D01*
X113612317Y-81163082D01*
X112297590Y-79848355D01*
X112297588Y-79848352D01*
X112178717Y-79729481D01*
X112178709Y-79729475D01*
X112090789Y-79678715D01*
X112090788Y-79678715D01*
X112064750Y-79663682D01*
X112041785Y-79650423D01*
X111889057Y-79609499D01*
X111730943Y-79609499D01*
X111723347Y-79609499D01*
X111723331Y-79609500D01*
X105317569Y-79609500D01*
X105276648Y-79620464D01*
X105276648Y-79620465D01*
X105239380Y-79630451D01*
X105164843Y-79650423D01*
X105164838Y-79650426D01*
X105027919Y-79729475D01*
X105027911Y-79729481D01*
X104916107Y-79841286D01*
X104545275Y-80212117D01*
X104483952Y-80245602D01*
X104447572Y-80248030D01*
X104433850Y-80246917D01*
X104413946Y-80240715D01*
X104244532Y-80225319D01*
X104217749Y-80229394D01*
X104203346Y-80228227D01*
X104183668Y-80220673D01*
X104162781Y-80217845D01*
X104145736Y-80206113D01*
X104138117Y-80203189D01*
X104134677Y-80198501D01*
X104125687Y-80192314D01*
X98967601Y-75034229D01*
X98967599Y-75034226D01*
X98848728Y-74915355D01*
X98848727Y-74915354D01*
X98761915Y-74865234D01*
X98761915Y-74865233D01*
X98761911Y-74865232D01*
X98711796Y-74836297D01*
X98559068Y-74795373D01*
X98400954Y-74795373D01*
X98393358Y-74795373D01*
X98393342Y-74795374D01*
X96977065Y-74795374D01*
X96910026Y-74775689D01*
X96889384Y-74759055D01*
X96783456Y-74653127D01*
X96749971Y-74591804D01*
X96747137Y-74565446D01*
X96747137Y-55293460D01*
X96766822Y-55226421D01*
X96783456Y-55205779D01*
X103342417Y-48646819D01*
X103403740Y-48613334D01*
X103430098Y-48610500D01*
X105631741Y-48610500D01*
X105698780Y-48630185D01*
G37*
%TD.AperFunction*%
%TA.AperFunction,NonConductor*%
G36*
X111576942Y-80830185D02*
G01*
X111597584Y-80846819D01*
X113408491Y-82657726D01*
X113441976Y-82719049D01*
X113436992Y-82788741D01*
X113413068Y-82825970D01*
X113413776Y-82826525D01*
X113409149Y-82832430D01*
X113321141Y-82978012D01*
X113270532Y-83140426D01*
X113266877Y-83180654D01*
X113264119Y-83211003D01*
X113264119Y-83874235D01*
X113270533Y-83944815D01*
X113274090Y-83956230D01*
X113275242Y-84026087D01*
X113238442Y-84085480D01*
X113175374Y-84115549D01*
X113155705Y-84117119D01*
X104793937Y-84117119D01*
X104726898Y-84097434D01*
X104681143Y-84044630D01*
X104671199Y-83975472D01*
X104700224Y-83911916D01*
X104706256Y-83905438D01*
X104917593Y-83694101D01*
X105669892Y-82941800D01*
X105731213Y-82908317D01*
X105794459Y-82911097D01*
X105801222Y-82913205D01*
X105970636Y-82928601D01*
X105970636Y-82928600D01*
X105970637Y-82928601D01*
X106138805Y-82903006D01*
X106138804Y-82903006D01*
X106138812Y-82903005D01*
X106295974Y-82837906D01*
X106432992Y-82737087D01*
X106541899Y-82606407D01*
X106574835Y-82543654D01*
X106828642Y-81930907D01*
X106849727Y-81863245D01*
X106865122Y-81693831D01*
X106839526Y-81525655D01*
X106774427Y-81368493D01*
X106673609Y-81231476D01*
X106673610Y-81231476D01*
X106581675Y-81154859D01*
X106542928Y-81122568D01*
X106542926Y-81122567D01*
X106542925Y-81122566D01*
X106480170Y-81089629D01*
X106382229Y-81049061D01*
X106327825Y-81005220D01*
X106305760Y-80938926D01*
X106323039Y-80871227D01*
X106374176Y-80823616D01*
X106429681Y-80810500D01*
X111509903Y-80810500D01*
X111576942Y-80830185D01*
G37*
%TD.AperFunction*%
%TA.AperFunction,NonConductor*%
G36*
X131515810Y-79744863D02*
G01*
X131530338Y-79745902D01*
X131547204Y-79758528D01*
X131566522Y-79766937D01*
X131584390Y-79786366D01*
X131586271Y-79787774D01*
X131588227Y-79790537D01*
X131588459Y-79790790D01*
X131589301Y-79791988D01*
X131608211Y-79820289D01*
X131611497Y-79823575D01*
X131611500Y-79823579D01*
X131719707Y-79931786D01*
X131719711Y-79931789D01*
X131850814Y-80019390D01*
X131850827Y-80019397D01*
X131981339Y-80073456D01*
X131996503Y-80079737D01*
X132061147Y-80092595D01*
X132151849Y-80110638D01*
X132213760Y-80143023D01*
X132215339Y-80144574D01*
X136299117Y-84228352D01*
X136299127Y-84228363D01*
X136303457Y-84232693D01*
X136303458Y-84232694D01*
X136415262Y-84344498D01*
X136415264Y-84344499D01*
X136415268Y-84344502D01*
X136552187Y-84423551D01*
X136552194Y-84423555D01*
X136663997Y-84453512D01*
X136704920Y-84464478D01*
X136704921Y-84464478D01*
X137478007Y-84464478D01*
X137545046Y-84484163D01*
X137590801Y-84536967D01*
X137600745Y-84606125D01*
X137571720Y-84669681D01*
X137565688Y-84676159D01*
X132966359Y-89275488D01*
X132905036Y-89308973D01*
X132878678Y-89311807D01*
X129498083Y-89311807D01*
X129431044Y-89292122D01*
X129388938Y-89246657D01*
X129355784Y-89185168D01*
X129245847Y-89057956D01*
X129245844Y-89057953D01*
X129109534Y-88959523D01*
X128954199Y-88895180D01*
X128954191Y-88895178D01*
X128788209Y-88868394D01*
X128788205Y-88868393D01*
X128639435Y-88879231D01*
X128620515Y-88880610D01*
X128620513Y-88880610D01*
X128620507Y-88880611D01*
X128525652Y-88909010D01*
X128381952Y-88968532D01*
X128312483Y-88976001D01*
X128250004Y-88944725D01*
X128214352Y-88884636D01*
X128210500Y-88853971D01*
X128210500Y-88821155D01*
X128210499Y-88821153D01*
X128189621Y-88716192D01*
X128179737Y-88666503D01*
X128176791Y-88659390D01*
X128119397Y-88520827D01*
X128119390Y-88520814D01*
X128031789Y-88389711D01*
X128031786Y-88389707D01*
X127920292Y-88278213D01*
X127920288Y-88278210D01*
X127789185Y-88190609D01*
X127789172Y-88190602D01*
X127643501Y-88130264D01*
X127643489Y-88130261D01*
X127488845Y-88099500D01*
X127488842Y-88099500D01*
X127331158Y-88099500D01*
X127331155Y-88099500D01*
X127176510Y-88130261D01*
X127176498Y-88130264D01*
X127030827Y-88190602D01*
X127030814Y-88190609D01*
X126899711Y-88278210D01*
X126899707Y-88278213D01*
X126788213Y-88389707D01*
X126788210Y-88389711D01*
X126700609Y-88520814D01*
X126700602Y-88520827D01*
X126640264Y-88666498D01*
X126640261Y-88666510D01*
X126609500Y-88821153D01*
X126609500Y-88970392D01*
X126609318Y-88977100D01*
X126608618Y-88990006D01*
X126596973Y-89033469D01*
X126596973Y-89191583D01*
X126596974Y-89191586D01*
X126596974Y-89204933D01*
X126596974Y-89631480D01*
X126577289Y-89698519D01*
X126531825Y-89740625D01*
X126490629Y-89762837D01*
X126363417Y-89872774D01*
X126264984Y-90009086D01*
X126200642Y-90164423D01*
X126200641Y-90164426D01*
X126173856Y-90330411D01*
X126173855Y-90330415D01*
X126186072Y-90498103D01*
X126186073Y-90498113D01*
X126214471Y-90592964D01*
X126214473Y-90592970D01*
X126421002Y-91091577D01*
X126447278Y-91155012D01*
X126494273Y-91242170D01*
X126567093Y-91326433D01*
X126596034Y-91390026D01*
X126585999Y-91459172D01*
X126560954Y-91495193D01*
X125752434Y-92303715D01*
X125691111Y-92337200D01*
X125664753Y-92340034D01*
X115924346Y-92340034D01*
X115857307Y-92320349D01*
X115818809Y-92281133D01*
X115790442Y-92235143D01*
X115671552Y-92116253D01*
X115671548Y-92116250D01*
X115528456Y-92027989D01*
X115528450Y-92027986D01*
X115528448Y-92027985D01*
X115465397Y-92007092D01*
X115407955Y-91967320D01*
X115381132Y-91902804D01*
X115393447Y-91834028D01*
X115416720Y-91801709D01*
X121463992Y-85754438D01*
X121525315Y-85720953D01*
X121551673Y-85718119D01*
X128665712Y-85718119D01*
X128665728Y-85718120D01*
X128673324Y-85718120D01*
X128831435Y-85718120D01*
X128831438Y-85718120D01*
X128984166Y-85677196D01*
X129034285Y-85648258D01*
X129121097Y-85598139D01*
X129232901Y-85486335D01*
X129232901Y-85486333D01*
X129243109Y-85476126D01*
X129243110Y-85476123D01*
X131984662Y-82734572D01*
X132045983Y-82701089D01*
X132048150Y-82700638D01*
X132106085Y-82689113D01*
X132203497Y-82669737D01*
X132349179Y-82609394D01*
X132480289Y-82521789D01*
X132591789Y-82410289D01*
X132679394Y-82279179D01*
X132739737Y-82133497D01*
X132770500Y-81978842D01*
X132770500Y-81821158D01*
X132770500Y-81821155D01*
X132770499Y-81821153D01*
X132762470Y-81780789D01*
X132739737Y-81666503D01*
X132735895Y-81657227D01*
X132679397Y-81520827D01*
X132679390Y-81520814D01*
X132591789Y-81389711D01*
X132591786Y-81389707D01*
X132480292Y-81278213D01*
X132480288Y-81278210D01*
X132349185Y-81190609D01*
X132349172Y-81190602D01*
X132203501Y-81130264D01*
X132203489Y-81130261D01*
X132048845Y-81099500D01*
X132048842Y-81099500D01*
X131891158Y-81099500D01*
X131891155Y-81099500D01*
X131736510Y-81130261D01*
X131736498Y-81130264D01*
X131590827Y-81190602D01*
X131590814Y-81190609D01*
X131459711Y-81278210D01*
X131459707Y-81278213D01*
X131348213Y-81389707D01*
X131348210Y-81389711D01*
X131260609Y-81520814D01*
X131260602Y-81520827D01*
X131200264Y-81666498D01*
X131200261Y-81666508D01*
X131169361Y-81821850D01*
X131136976Y-81883761D01*
X131135425Y-81885339D01*
X128539965Y-84480800D01*
X128478642Y-84514285D01*
X128452284Y-84517119D01*
X126955970Y-84517119D01*
X126888931Y-84497434D01*
X126843176Y-84444630D01*
X126833232Y-84375472D01*
X126862257Y-84311916D01*
X126868289Y-84305438D01*
X129109555Y-82064172D01*
X131399325Y-79774401D01*
X131417813Y-79764306D01*
X131433488Y-79750227D01*
X131447864Y-79747897D01*
X131460646Y-79740918D01*
X131481661Y-79742420D01*
X131502458Y-79739051D01*
X131515810Y-79744863D01*
G37*
%TD.AperFunction*%
%TA.AperFunction,NonConductor*%
G36*
X97066942Y-79960185D02*
G01*
X97087583Y-79976818D01*
X102308903Y-85198139D01*
X102308905Y-85198140D01*
X102308909Y-85198143D01*
X102445828Y-85277192D01*
X102445835Y-85277196D01*
X102598562Y-85318120D01*
X102598564Y-85318120D01*
X102764273Y-85318120D01*
X102764289Y-85318119D01*
X119902479Y-85318119D01*
X119969518Y-85337804D01*
X120015273Y-85390608D01*
X120025217Y-85459766D01*
X119996192Y-85523322D01*
X119990160Y-85529800D01*
X113591245Y-91928715D01*
X113529922Y-91962200D01*
X113503564Y-91965034D01*
X113161979Y-91965034D01*
X113063477Y-91975097D01*
X113063476Y-91975098D01*
X112984380Y-92001307D01*
X112903876Y-92027984D01*
X112903865Y-92027989D01*
X112760773Y-92116250D01*
X112760769Y-92116253D01*
X112641880Y-92235142D01*
X112641877Y-92235146D01*
X112553616Y-92378238D01*
X112553612Y-92378247D01*
X112500725Y-92537849D01*
X112500725Y-92537850D01*
X112500724Y-92537850D01*
X112490661Y-92636352D01*
X112490661Y-92991034D01*
X112470976Y-93058073D01*
X112418172Y-93103828D01*
X112366661Y-93115034D01*
X104735445Y-93115034D01*
X104668406Y-93095349D01*
X104647764Y-93078715D01*
X102257322Y-90688273D01*
X102223837Y-90626950D01*
X102226212Y-90565030D01*
X102246249Y-90498106D01*
X102258465Y-90330414D01*
X102231679Y-90164425D01*
X102167337Y-90009087D01*
X102068904Y-89872775D01*
X101941690Y-89762837D01*
X101941689Y-89762836D01*
X101854531Y-89715841D01*
X101854529Y-89715840D01*
X101361780Y-89511737D01*
X101361775Y-89511735D01*
X101361774Y-89511735D01*
X101266923Y-89483337D01*
X101266917Y-89483336D01*
X101266916Y-89483336D01*
X101238534Y-89481268D01*
X101099225Y-89471119D01*
X101099221Y-89471120D01*
X100933239Y-89497904D01*
X100933231Y-89497906D01*
X100891517Y-89515185D01*
X100822047Y-89522652D01*
X100759569Y-89491376D01*
X100729506Y-89448079D01*
X100712227Y-89406361D01*
X100712224Y-89406357D01*
X100712224Y-89406356D01*
X100629733Y-89292122D01*
X100613794Y-89270049D01*
X100586726Y-89246657D01*
X100486581Y-89160111D01*
X100445386Y-89137899D01*
X100395720Y-89088755D01*
X100380237Y-89028754D01*
X100380237Y-88783231D01*
X100399922Y-88716192D01*
X100452726Y-88670437D01*
X100456785Y-88668670D01*
X100468664Y-88663749D01*
X100479179Y-88659394D01*
X100610289Y-88571789D01*
X100721789Y-88460289D01*
X100809394Y-88329179D01*
X100869737Y-88183497D01*
X100900500Y-88028842D01*
X100900500Y-87871158D01*
X100900500Y-87871155D01*
X100900499Y-87871153D01*
X100869738Y-87716510D01*
X100869737Y-87716503D01*
X100869735Y-87716498D01*
X100809397Y-87570827D01*
X100809390Y-87570814D01*
X100721789Y-87439711D01*
X100721786Y-87439707D01*
X100610292Y-87328213D01*
X100610288Y-87328210D01*
X100479185Y-87240609D01*
X100479172Y-87240602D01*
X100333501Y-87180264D01*
X100333489Y-87180261D01*
X100178845Y-87149500D01*
X100178842Y-87149500D01*
X100021158Y-87149500D01*
X100021155Y-87149500D01*
X99866510Y-87180261D01*
X99866498Y-87180264D01*
X99720827Y-87240602D01*
X99720814Y-87240609D01*
X99589711Y-87328210D01*
X99589707Y-87328213D01*
X99478213Y-87439707D01*
X99478210Y-87439711D01*
X99390609Y-87570814D01*
X99390602Y-87570827D01*
X99330264Y-87716498D01*
X99330261Y-87716510D01*
X99299500Y-87871153D01*
X99298903Y-87877218D01*
X99297034Y-87877033D01*
X99282888Y-87929830D01*
X99249098Y-87988357D01*
X99249096Y-87988359D01*
X99220162Y-88038472D01*
X99220161Y-88038473D01*
X99220160Y-88038478D01*
X99179236Y-88191206D01*
X99179236Y-88191208D01*
X99179236Y-88359309D01*
X99179237Y-88359322D01*
X99179237Y-89020173D01*
X99159552Y-89087212D01*
X99149057Y-89101252D01*
X99076539Y-89185165D01*
X99073077Y-89191586D01*
X99030771Y-89270048D01*
X99029539Y-89272332D01*
X98796734Y-89834375D01*
X98768336Y-89929226D01*
X98768335Y-89929236D01*
X98756118Y-90096924D01*
X98756119Y-90096930D01*
X98762154Y-90134328D01*
X98753401Y-90203647D01*
X98708561Y-90257230D01*
X98641870Y-90278064D01*
X98639738Y-90278082D01*
X97615934Y-90278082D01*
X97548895Y-90258397D01*
X97528253Y-90241763D01*
X90517961Y-83231471D01*
X90484476Y-83170148D01*
X90484984Y-83115194D01*
X90497446Y-83062618D01*
X90497446Y-82894483D01*
X90458671Y-82730878D01*
X90383212Y-82580625D01*
X90320671Y-82503851D01*
X89943537Y-82126717D01*
X89866763Y-82064176D01*
X89866758Y-82064173D01*
X89866756Y-82064172D01*
X89716513Y-81988718D01*
X89716511Y-81988717D01*
X89716510Y-81988717D01*
X89552905Y-81949942D01*
X89507752Y-81949942D01*
X89440713Y-81930257D01*
X89394958Y-81877453D01*
X89385348Y-81845775D01*
X89383752Y-81835924D01*
X89383752Y-81780789D01*
X89355513Y-81661640D01*
X89354798Y-81657227D01*
X89358617Y-81626821D01*
X89360238Y-81596218D01*
X89363016Y-81591805D01*
X89363507Y-81587902D01*
X89371485Y-81578355D01*
X89389521Y-81549713D01*
X90962416Y-79976819D01*
X91023739Y-79943334D01*
X91050097Y-79940500D01*
X96999903Y-79940500D01*
X97066942Y-79960185D01*
G37*
%TD.AperFunction*%
%TA.AperFunction,NonConductor*%
G36*
X92552299Y-24916805D02*
G01*
X92597752Y-24969869D01*
X92607300Y-25039084D01*
X92577913Y-25102473D01*
X92572346Y-25108417D01*
X87527166Y-30153597D01*
X87527162Y-30153601D01*
X87521286Y-30159478D01*
X87521284Y-30159480D01*
X87409480Y-30271284D01*
X87386097Y-30311785D01*
X87330423Y-30408215D01*
X87289499Y-30560943D01*
X87289499Y-30560945D01*
X87289499Y-30729046D01*
X87289500Y-30729059D01*
X87289500Y-31818397D01*
X87289499Y-31818415D01*
X87289499Y-31984126D01*
X87304222Y-32039074D01*
X87305105Y-32099761D01*
X87273502Y-32233110D01*
X87273502Y-32401244D01*
X87285962Y-32453823D01*
X87282267Y-32523595D01*
X87252985Y-32570098D01*
X80086398Y-39736687D01*
X79974593Y-39848491D01*
X79974591Y-39848493D01*
X79951549Y-39888404D01*
X79941810Y-39905274D01*
X79895535Y-39985424D01*
X79854611Y-40138152D01*
X79854611Y-40138154D01*
X79854611Y-40306255D01*
X79854612Y-40306268D01*
X79854612Y-43693610D01*
X79854611Y-43693614D01*
X79854611Y-43851728D01*
X79857865Y-43863873D01*
X79858141Y-43879048D01*
X79852757Y-43898695D01*
X79852272Y-43919061D01*
X79848723Y-43928752D01*
X79815362Y-44009293D01*
X79786965Y-44104143D01*
X79786964Y-44104153D01*
X79774747Y-44271841D01*
X79774748Y-44271845D01*
X79801532Y-44437827D01*
X79801534Y-44437835D01*
X79865877Y-44593170D01*
X79964307Y-44729480D01*
X79964310Y-44729483D01*
X80091522Y-44839420D01*
X80153011Y-44872574D01*
X80202677Y-44921717D01*
X80218161Y-44981719D01*
X80218161Y-54370169D01*
X80198476Y-54437208D01*
X80145672Y-54482963D01*
X80076514Y-54492907D01*
X80046709Y-54484730D01*
X79963501Y-54450264D01*
X79963489Y-54450261D01*
X79808845Y-54419500D01*
X79808842Y-54419500D01*
X79651158Y-54419500D01*
X79651155Y-54419500D01*
X79496510Y-54450261D01*
X79496498Y-54450264D01*
X79350827Y-54510602D01*
X79350814Y-54510609D01*
X79219711Y-54598210D01*
X79219707Y-54598213D01*
X79108213Y-54709707D01*
X79108212Y-54709709D01*
X79020609Y-54840814D01*
X79020602Y-54840827D01*
X78960264Y-54986498D01*
X78960261Y-54986508D01*
X78929361Y-55141849D01*
X78896976Y-55203760D01*
X78895426Y-55205338D01*
X78819570Y-55281193D01*
X78745048Y-55355716D01*
X78683726Y-55389200D01*
X78657368Y-55392034D01*
X78088979Y-55392034D01*
X77990477Y-55402097D01*
X77990476Y-55402098D01*
X77911380Y-55428307D01*
X77830876Y-55454984D01*
X77830865Y-55454989D01*
X77687773Y-55543250D01*
X77687769Y-55543253D01*
X77568880Y-55662142D01*
X77568877Y-55662146D01*
X77480616Y-55805238D01*
X77480611Y-55805249D01*
X77466362Y-55848250D01*
X77427725Y-55964849D01*
X77427725Y-55964850D01*
X77427724Y-55964850D01*
X77417661Y-56063352D01*
X77417661Y-56596715D01*
X77427724Y-56695217D01*
X77480611Y-56854818D01*
X77480616Y-56854829D01*
X77568877Y-56997921D01*
X77568880Y-56997925D01*
X77600808Y-57029853D01*
X77634293Y-57091176D01*
X77629309Y-57160868D01*
X77600808Y-57205215D01*
X77568880Y-57237142D01*
X77568877Y-57237146D01*
X77480616Y-57380238D01*
X77480611Y-57380249D01*
X77457882Y-57448842D01*
X77427725Y-57539849D01*
X77427725Y-57539850D01*
X77427724Y-57539850D01*
X77417661Y-57638352D01*
X77417661Y-58171715D01*
X77427724Y-58270217D01*
X77480611Y-58429818D01*
X77480616Y-58429829D01*
X77568877Y-58572921D01*
X77568880Y-58572925D01*
X77687770Y-58691815D01*
X77733759Y-58720181D01*
X77780482Y-58772128D01*
X77792661Y-58825719D01*
X77792661Y-68779554D01*
X77792660Y-68779572D01*
X77792660Y-68945278D01*
X77792659Y-68945278D01*
X77792660Y-68945281D01*
X77833584Y-69098009D01*
X77857068Y-69138684D01*
X77862519Y-69148124D01*
X77862520Y-69148128D01*
X77862521Y-69148128D01*
X77912640Y-69234938D01*
X77912642Y-69234941D01*
X78031510Y-69353809D01*
X78031516Y-69353814D01*
X80442721Y-71765019D01*
X80469601Y-71805247D01*
X80498898Y-71875976D01*
X80611250Y-72147219D01*
X80622195Y-72173641D01*
X80669190Y-72260799D01*
X80779124Y-72388009D01*
X80780658Y-72389414D01*
X80781399Y-72390641D01*
X80783851Y-72393478D01*
X80783366Y-72393896D01*
X80816787Y-72449217D01*
X80820887Y-72480839D01*
X80820887Y-75993479D01*
X80820886Y-75993497D01*
X80820886Y-76159203D01*
X80820885Y-76159203D01*
X80820886Y-76159206D01*
X80861810Y-76311934D01*
X80862087Y-76312414D01*
X80862109Y-76312495D01*
X80862128Y-76312485D01*
X80940862Y-76448858D01*
X80940868Y-76448866D01*
X81059736Y-76567734D01*
X81059742Y-76567739D01*
X87861444Y-83369441D01*
X87861454Y-83369452D01*
X87865784Y-83373782D01*
X87865785Y-83373783D01*
X87977589Y-83485587D01*
X88064400Y-83535706D01*
X88064402Y-83535708D01*
X88102456Y-83557678D01*
X88114520Y-83564644D01*
X88267248Y-83605568D01*
X88267251Y-83605568D01*
X88432958Y-83605568D01*
X88432974Y-83605567D01*
X88611893Y-83605567D01*
X88678932Y-83625252D01*
X88699574Y-83641886D01*
X88941105Y-83883417D01*
X89017879Y-83945958D01*
X89168132Y-84021417D01*
X89331737Y-84060192D01*
X89331739Y-84060192D01*
X89499872Y-84060192D01*
X89552448Y-84047731D01*
X89622218Y-84051423D01*
X89668725Y-84080707D01*
X96947120Y-91359102D01*
X96947122Y-91359103D01*
X96947126Y-91359106D01*
X97000682Y-91390026D01*
X97084052Y-91438159D01*
X97236779Y-91479083D01*
X97236781Y-91479083D01*
X97402490Y-91479083D01*
X97402506Y-91479082D01*
X100792237Y-91479082D01*
X100792241Y-91479083D01*
X100950355Y-91479083D01*
X100962502Y-91475827D01*
X100977675Y-91475552D01*
X100997312Y-91480932D01*
X101017663Y-91481413D01*
X101027365Y-91484964D01*
X101107914Y-91518329D01*
X101153277Y-91531910D01*
X101202770Y-91546728D01*
X101202771Y-91546728D01*
X101202778Y-91546730D01*
X101370470Y-91558946D01*
X101370481Y-91558944D01*
X101372540Y-91558855D01*
X101373931Y-91559198D01*
X101377674Y-91559471D01*
X101377627Y-91560110D01*
X101440375Y-91575594D01*
X101465635Y-91595056D01*
X103950487Y-94079908D01*
X103950497Y-94079919D01*
X103954827Y-94084249D01*
X103954828Y-94084250D01*
X104066632Y-94196054D01*
X104153443Y-94246173D01*
X104153445Y-94246175D01*
X104191499Y-94268145D01*
X104203563Y-94275111D01*
X104356291Y-94316035D01*
X104356294Y-94316035D01*
X104522001Y-94316035D01*
X104522017Y-94316034D01*
X114141992Y-94316034D01*
X114142008Y-94316035D01*
X114149604Y-94316035D01*
X114307715Y-94316035D01*
X114307718Y-94316035D01*
X114460446Y-94275111D01*
X114510565Y-94246173D01*
X114597377Y-94196054D01*
X114709181Y-94084250D01*
X114709181Y-94084248D01*
X114719389Y-94074041D01*
X114719389Y-94074039D01*
X114841078Y-93952352D01*
X114902402Y-93918868D01*
X114928759Y-93916034D01*
X115270330Y-93916034D01*
X115270335Y-93916034D01*
X115368846Y-93905970D01*
X115528448Y-93853083D01*
X115671552Y-93764815D01*
X115790442Y-93645925D01*
X115818809Y-93599935D01*
X115870755Y-93553213D01*
X115924346Y-93541034D01*
X125878181Y-93541034D01*
X125878197Y-93541035D01*
X125885793Y-93541035D01*
X126043904Y-93541035D01*
X126043907Y-93541035D01*
X126196635Y-93500111D01*
X126246754Y-93471173D01*
X126333566Y-93421054D01*
X126445370Y-93309250D01*
X126445370Y-93309248D01*
X126455578Y-93299041D01*
X126455580Y-93299038D01*
X128863650Y-90890967D01*
X128903872Y-90864092D01*
X129272266Y-90711500D01*
X129359427Y-90664503D01*
X129486641Y-90554565D01*
X129486645Y-90554558D01*
X129488041Y-90553036D01*
X129489268Y-90552294D01*
X129492105Y-90549843D01*
X129492523Y-90550327D01*
X129547844Y-90516907D01*
X129579466Y-90512807D01*
X133092106Y-90512807D01*
X133092122Y-90512808D01*
X133099718Y-90512808D01*
X133257829Y-90512808D01*
X133257832Y-90512808D01*
X133410560Y-90471884D01*
X133503451Y-90418253D01*
X133547491Y-90392827D01*
X133659295Y-90281023D01*
X133659295Y-90281021D01*
X133669499Y-90270818D01*
X133669503Y-90270813D01*
X139595816Y-84344500D01*
X139595821Y-84344498D01*
X139707625Y-84232694D01*
X139707626Y-84232691D01*
X140462200Y-83478117D01*
X140462205Y-83478113D01*
X140472408Y-83467909D01*
X140472410Y-83467909D01*
X140584214Y-83356105D01*
X140659201Y-83226223D01*
X140663271Y-83219174D01*
X140704194Y-83066446D01*
X140704194Y-82908332D01*
X140704194Y-82908331D01*
X140704194Y-82721801D01*
X140723879Y-82654762D01*
X140740513Y-82634120D01*
X140852847Y-82521786D01*
X140982044Y-82392589D01*
X141044585Y-82315815D01*
X141120044Y-82165562D01*
X141158819Y-82001957D01*
X141158819Y-81833822D01*
X141155816Y-81821153D01*
X141146358Y-81781245D01*
X141150051Y-81711473D01*
X141179332Y-81664969D01*
X148457729Y-74386574D01*
X148536786Y-74249642D01*
X148577710Y-74096915D01*
X148577710Y-73938800D01*
X148577710Y-73931205D01*
X148577709Y-73931187D01*
X148577709Y-70552567D01*
X148577709Y-70541456D01*
X148577710Y-70541453D01*
X148577710Y-70383339D01*
X148574451Y-70371180D01*
X148574179Y-70355989D01*
X148579560Y-70336364D01*
X148580043Y-70316018D01*
X148583592Y-70306324D01*
X148616956Y-70225780D01*
X148645357Y-70130916D01*
X148657573Y-69963224D01*
X148657571Y-69963213D01*
X148657482Y-69961151D01*
X148657825Y-69959758D01*
X148658098Y-69956020D01*
X148658736Y-69956066D01*
X148674222Y-69893316D01*
X148693679Y-69868061D01*
X151182874Y-67378867D01*
X151182877Y-67378866D01*
X151271776Y-67289966D01*
X151333095Y-67256484D01*
X151333097Y-67256484D01*
X151343065Y-67257197D01*
X151402787Y-67261468D01*
X151402788Y-67261468D01*
X151402789Y-67261469D01*
X151418691Y-67273374D01*
X151458721Y-67303339D01*
X151483138Y-67368803D01*
X151479558Y-67408488D01*
X151346498Y-67926720D01*
X151345470Y-67930477D01*
X151004494Y-69104128D01*
X151003349Y-69107851D01*
X150625662Y-70270248D01*
X150624400Y-70273933D01*
X150210400Y-71423865D01*
X150209023Y-71427509D01*
X149759111Y-72563857D01*
X149757621Y-72567456D01*
X149272223Y-73689142D01*
X149270620Y-73692693D01*
X148750227Y-74798587D01*
X148748513Y-74802085D01*
X148193645Y-75891075D01*
X148191822Y-75894517D01*
X147603035Y-76965517D01*
X147601105Y-76968901D01*
X146978954Y-78020898D01*
X146976919Y-78024219D01*
X146322030Y-79056160D01*
X146319891Y-79059416D01*
X145632916Y-80070269D01*
X145630676Y-80073456D01*
X144912287Y-81062235D01*
X144909967Y-81065325D01*
X144443650Y-81666498D01*
X144160878Y-82031045D01*
X144158443Y-82034085D01*
X143379363Y-82975832D01*
X143376833Y-82978794D01*
X142568576Y-83895581D01*
X142565954Y-83898462D01*
X141729303Y-84789404D01*
X141726592Y-84792201D01*
X140862385Y-85656408D01*
X140859588Y-85659119D01*
X139968646Y-86495770D01*
X139965765Y-86498392D01*
X139048978Y-87306649D01*
X139046016Y-87309179D01*
X138104269Y-88088259D01*
X138101229Y-88090694D01*
X138050220Y-88130261D01*
X137135509Y-88839783D01*
X137132419Y-88842103D01*
X136143640Y-89560492D01*
X136140453Y-89562732D01*
X135129600Y-90249707D01*
X135126344Y-90251846D01*
X134094403Y-90906735D01*
X134091082Y-90908770D01*
X133039085Y-91530921D01*
X133035701Y-91532851D01*
X131964701Y-92121638D01*
X131961259Y-92123461D01*
X130872269Y-92678329D01*
X130868771Y-92680043D01*
X129762877Y-93200436D01*
X129759326Y-93202039D01*
X128637640Y-93687437D01*
X128634041Y-93688927D01*
X127497693Y-94138839D01*
X127494049Y-94140216D01*
X126344117Y-94554216D01*
X126340432Y-94555478D01*
X125178035Y-94933165D01*
X125174312Y-94934310D01*
X124000661Y-95275286D01*
X123996904Y-95276314D01*
X122813117Y-95580260D01*
X122809329Y-95581170D01*
X121616548Y-95847788D01*
X121612733Y-95848578D01*
X120412167Y-96077597D01*
X120408330Y-96078266D01*
X119201205Y-96269456D01*
X119197348Y-96270005D01*
X117984804Y-96423185D01*
X117980933Y-96423613D01*
X116764126Y-96538636D01*
X116760242Y-96538941D01*
X115540493Y-96615681D01*
X115536602Y-96615865D01*
X114314987Y-96654256D01*
X114311092Y-96654317D01*
X113088908Y-96654317D01*
X113085013Y-96654256D01*
X111863397Y-96615865D01*
X111859506Y-96615681D01*
X110639757Y-96538941D01*
X110635873Y-96538636D01*
X109419066Y-96423613D01*
X109415195Y-96423185D01*
X108202651Y-96270005D01*
X108198794Y-96269456D01*
X106991669Y-96078266D01*
X106987832Y-96077597D01*
X105787266Y-95848578D01*
X105783451Y-95847788D01*
X104590670Y-95581170D01*
X104586882Y-95580260D01*
X103403095Y-95276314D01*
X103399338Y-95275286D01*
X102225687Y-94934310D01*
X102221964Y-94933165D01*
X101059567Y-94555478D01*
X101055882Y-94554216D01*
X99905950Y-94140216D01*
X99902306Y-94138839D01*
X98765958Y-93688927D01*
X98762359Y-93687437D01*
X97640673Y-93202039D01*
X97637122Y-93200436D01*
X96531228Y-92680043D01*
X96527730Y-92678329D01*
X96445345Y-92636352D01*
X95438734Y-92123458D01*
X95435298Y-92121638D01*
X95264942Y-92027984D01*
X94364280Y-91532840D01*
X94360933Y-91530932D01*
X94015145Y-91326433D01*
X93308917Y-90908770D01*
X93305596Y-90906735D01*
X92273655Y-90251846D01*
X92270399Y-90249707D01*
X91259546Y-89562732D01*
X91256359Y-89560492D01*
X90640595Y-89113114D01*
X90267555Y-88842084D01*
X90264520Y-88839806D01*
X89298745Y-88090674D01*
X89295730Y-88088259D01*
X88846348Y-87716498D01*
X88353968Y-87309166D01*
X88351037Y-87306663D01*
X87434234Y-86498392D01*
X87431353Y-86495770D01*
X86540411Y-85659119D01*
X86537614Y-85656408D01*
X85673407Y-84792201D01*
X85670696Y-84789404D01*
X84834045Y-83898462D01*
X84831423Y-83895581D01*
X84812601Y-83874232D01*
X84023148Y-82978773D01*
X84020654Y-82975853D01*
X83241554Y-82034082D01*
X83239147Y-82031078D01*
X82490001Y-81065285D01*
X82487739Y-81062271D01*
X81898254Y-80250915D01*
X81769323Y-80073456D01*
X81767083Y-80070269D01*
X81080108Y-79059416D01*
X81077969Y-79056160D01*
X80423080Y-78024219D01*
X80421045Y-78020898D01*
X80039947Y-77376498D01*
X79798871Y-76968862D01*
X79796986Y-76965556D01*
X79208161Y-75894488D01*
X79206369Y-75891104D01*
X78651470Y-74802053D01*
X78649787Y-74798619D01*
X78129379Y-73692693D01*
X78127776Y-73689142D01*
X77973467Y-73332555D01*
X77642363Y-72567421D01*
X77640903Y-72563893D01*
X77190967Y-71427485D01*
X77189599Y-71423865D01*
X77156221Y-71331155D01*
X76775595Y-70273923D01*
X76774337Y-70270248D01*
X76773336Y-70267168D01*
X76396641Y-69107822D01*
X76395514Y-69104158D01*
X76054528Y-67930475D01*
X76053501Y-67926720D01*
X76009016Y-67753464D01*
X75749542Y-66742880D01*
X75748657Y-66739197D01*
X75482020Y-65546334D01*
X75481243Y-65542579D01*
X75252218Y-64341983D01*
X75251549Y-64338146D01*
X75060359Y-63131021D01*
X75059810Y-63127164D01*
X74906628Y-61914606D01*
X74906202Y-61910749D01*
X74904673Y-61894574D01*
X74791176Y-60693905D01*
X74790874Y-60690058D01*
X74790293Y-60680827D01*
X74714133Y-59470288D01*
X74713950Y-59466418D01*
X74713899Y-59464804D01*
X74675560Y-58244803D01*
X74675499Y-58240908D01*
X74675499Y-57018723D01*
X74675560Y-57014828D01*
X74713951Y-55793191D01*
X74714134Y-55789322D01*
X74716992Y-55743896D01*
X74790876Y-54569537D01*
X74791175Y-54565731D01*
X74906204Y-53348856D01*
X74906630Y-53345011D01*
X74909474Y-53322503D01*
X75059811Y-52132455D01*
X75060359Y-52128610D01*
X75209747Y-51185416D01*
X75251550Y-50921478D01*
X75252218Y-50917648D01*
X75481245Y-49717039D01*
X75482018Y-49713309D01*
X75748660Y-48520420D01*
X75749538Y-48516765D01*
X76053505Y-47332893D01*
X76054529Y-47329154D01*
X76395519Y-46155455D01*
X76396635Y-46151827D01*
X76774346Y-44989354D01*
X76775588Y-44985727D01*
X77189615Y-43835721D01*
X77190958Y-43832167D01*
X77640912Y-42695715D01*
X77642354Y-42692232D01*
X78127784Y-41570469D01*
X78129379Y-41566938D01*
X78140529Y-41543243D01*
X78649799Y-40460987D01*
X78651457Y-40457603D01*
X79206383Y-39368500D01*
X79208147Y-39365170D01*
X79797001Y-38294047D01*
X79798855Y-38290796D01*
X80421046Y-37238731D01*
X80423080Y-37235412D01*
X80866231Y-36537117D01*
X81077975Y-36203460D01*
X81080108Y-36200215D01*
X81750396Y-35213917D01*
X81767089Y-35189353D01*
X81769323Y-35186175D01*
X82487761Y-34197329D01*
X82489978Y-34194376D01*
X83239172Y-33228522D01*
X83241529Y-33225579D01*
X84020680Y-32283746D01*
X84023120Y-32280889D01*
X84831451Y-31364018D01*
X84834016Y-31361200D01*
X85670727Y-30470194D01*
X85673375Y-30467462D01*
X86537646Y-29603191D01*
X86540378Y-29600543D01*
X87431384Y-28763832D01*
X87434202Y-28761267D01*
X88351073Y-27952936D01*
X88353930Y-27950496D01*
X89295763Y-27171345D01*
X89298706Y-27168988D01*
X90264560Y-26419794D01*
X90267513Y-26417577D01*
X91256367Y-25699132D01*
X91259546Y-25696899D01*
X92270409Y-25009917D01*
X92273615Y-25007810D01*
X92418225Y-24916037D01*
X92485373Y-24896738D01*
X92552299Y-24916805D01*
G37*
%TD.AperFunction*%
M02*
